<?xml version="1.0" encoding="utf-8" standalone="no"?>
<!DOCTYPE svg PUBLIC "-//W3C//DTD SVG 1.1//EN"
  "http://www.w3.org/Graphics/SVG/1.1/DTD/svg11.dtd">
<svg xmlns:xlink="http://www.w3.org/1999/xlink" width="460.8pt" height="345.6pt" viewBox="0 0 460.8 345.6" xmlns="http://www.w3.org/2000/svg" version="1.1">
 <metadata>
  <rdf:RDF xmlns:dc="http://purl.org/dc/elements/1.1/" xmlns:cc="http://creativecommons.org/ns#" xmlns:rdf="http://www.w3.org/1999/02/22-rdf-syntax-ns#">
   <cc:Work>
    <dc:type rdf:resource="http://purl.org/dc/dcmitype/StillImage"/>
    <dc:date>2022-10-29T14:51:08.821588</dc:date>
    <dc:format>image/svg+xml</dc:format>
    <dc:creator>
     <cc:Agent>
      <dc:title>Matplotlib v3.5.1, https://matplotlib.org/</dc:title>
     </cc:Agent>
    </dc:creator>
   </cc:Work>
  </rdf:RDF>
 </metadata>
 <defs>
  <style type="text/css">*{stroke-linejoin: round; stroke-linecap: butt}</style>
 </defs>
 <g id="figure_1">
  <g id="patch_1">
   <path d="M 0 345.6 
L 460.8 345.6 
L 460.8 0 
L 0 0 
z
" style="fill: #ffffff"/>
  </g>
  <g id="axes_1">
   <g id="patch_2">
    <path d="M 57.6 307.584 
L 414.72 307.584 
L 414.72 41.472 
L 57.6 41.472 
z
" style="fill: #ffffff"/>
   </g>
   <g id="patch_3">
    <path d="M 72.48 307.584 
L 102.24 307.584 
L 102.24 263.065846 
L 72.48 263.065846 
z
" clip-path="url(#p8de0259425)" style="fill: #1f77b4"/>
   </g>
   <g id="patch_4">
    <path d="M 132 307.584 
L 161.76 307.584 
L 161.76 280.719494 
L 132 280.719494 
z
" clip-path="url(#p8de0259425)" style="fill: #1f77b4"/>
   </g>
   <g id="patch_5">
    <path d="M 191.52 307.584 
L 221.28 307.584 
L 221.28 262.774843 
L 191.52 262.774843 
z
" clip-path="url(#p8de0259425)" style="fill: #1f77b4"/>
   </g>
   <g id="patch_6">
    <path d="M 251.04 307.584 
L 280.8 307.584 
L 280.8 173.50484 
L 251.04 173.50484 
z
" clip-path="url(#p8de0259425)" style="fill: #1f77b4"/>
   </g>
   <g id="patch_7">
    <path d="M 310.56 307.584 
L 340.32 307.584 
L 340.32 128.960637 
L 310.56 128.960637 
z
" clip-path="url(#p8de0259425)" style="fill: #1f77b4"/>
   </g>
   <g id="patch_8">
    <path d="M 370.08 307.584 
L 399.84 307.584 
L 399.84 289.684005 
L 370.08 289.684005 
z
" clip-path="url(#p8de0259425)" style="fill: #1f77b4"/>
   </g>
   <g id="patch_9">
    <path d="M 72.48 263.065846 
L 102.24 263.065846 
L 102.24 251.788945 
L 72.48 251.788945 
z
" clip-path="url(#p8de0259425)" style="fill: #ff7f0e"/>
   </g>
   <g id="patch_10">
    <path d="M 132 280.719494 
L 161.76 280.719494 
L 161.76 277.413528 
L 132 277.413528 
z
" clip-path="url(#p8de0259425)" style="fill: #ff7f0e"/>
   </g>
   <g id="patch_11">
    <path d="M 191.52 262.774843 
L 221.28 262.774843 
L 221.28 251.771828 
L 191.52 251.771828 
z
" clip-path="url(#p8de0259425)" style="fill: #ff7f0e"/>
   </g>
   <g id="patch_12">
    <path d="M 251.04 173.50484 
L 280.8 173.50484 
L 280.8 163.431395 
L 251.04 163.431395 
z
" clip-path="url(#p8de0259425)" style="fill: #ff7f0e"/>
   </g>
   <g id="patch_13">
    <path d="M 310.56 128.960637 
L 340.32 128.960637 
L 340.32 54.144 
L 310.56 54.144 
z
" clip-path="url(#p8de0259425)" style="fill: #ff7f0e"/>
   </g>
   <g id="patch_14">
    <path d="M 370.08 289.684005 
L 399.84 289.684005 
L 399.84 288.765598 
L 370.08 288.765598 
z
" clip-path="url(#p8de0259425)" style="fill: #ff7f0e"/>
   </g>
   <g id="matplotlib.axis_1">
    <g id="xtick_1">
     <g id="line2d_1">
      <defs>
       <path id="m236330e7df" d="M 0 0 
L 0 3.5 
" style="stroke: #000000; stroke-width: 0.8"/>
      </defs>
      <g>
       <use xlink:href="#m236330e7df" x="87.36" y="307.584" style="stroke: #000000; stroke-width: 0.8"/>
      </g>
     </g>
     <g id="text_1">
      <!-- 上市企业 -->
      <g transform="translate(75.579491 348.475407)rotate(-45)scale(0.1 -0.1)">
       <defs>
        <path id="SimHei-4e0a" d="M 3250 5075 
Q 3225 4650 3225 4275 
L 3225 3225 
L 4650 3225 
Q 5150 3225 5600 3250 
L 5600 2700 
Q 5100 2725 4600 2725 
L 3225 2725 
L 3225 200 
L 5200 200 
Q 5575 200 6075 225 
L 6075 -300 
Q 5600 -275 5200 -275 
L 1250 -275 
Q 850 -275 350 -300 
L 350 225 
Q 825 200 1250 200 
L 2700 200 
L 2700 4250 
Q 2700 4625 2675 5075 
L 3250 5075 
z
" transform="scale(0.015625)"/>
        <path id="SimHei-5e02" d="M 4750 4200 
Q 5350 4200 6050 4225 
L 6050 3725 
Q 5350 3750 4750 3750 
L 3450 3750 
L 3450 2900 
L 5375 2900 
Q 5350 2450 5350 1975 
L 5350 750 
Q 5350 325 5062 175 
Q 4775 25 4250 -25 
Q 4200 275 4025 575 
Q 4550 575 4687 600 
Q 4825 625 4825 850 
L 4825 2450 
L 3450 2450 
L 3450 475 
Q 3450 -150 3475 -600 
L 2900 -600 
Q 2925 -150 2925 475 
L 2925 2450 
L 1525 2450 
L 1525 0 
L 975 0 
Q 1000 400 1000 950 
L 1000 1875 
Q 1000 2450 975 2900 
L 2925 2900 
L 2925 3750 
L 1625 3750 
Q 975 3750 325 3725 
L 325 4225 
Q 975 4200 1625 4200 
L 4750 4200 
z
M 2950 5275 
Q 3250 4975 3575 4475 
Q 3300 4350 3125 4225 
Q 2900 4625 2550 5000 
Q 2750 5150 2950 5275 
z
" transform="scale(0.015625)"/>
        <path id="SimHei-4f01" d="M 1450 -300 
Q 1300 -300 700 -325 
L 700 150 
Q 1375 125 1350 125 
L 1625 125 
L 1625 1725 
Q 1625 2025 1575 2500 
L 2175 2500 
Q 2125 2025 2125 1725 
L 2125 125 
L 3100 125 
L 3100 2550 
Q 3100 2850 3075 3325 
L 3625 3325 
Q 3600 2875 3600 2075 
L 4375 2075 
Q 4775 2075 5250 2100 
L 5250 1625 
Q 4800 1650 4400 1650 
L 3600 1650 
L 3600 125 
L 5150 125 
Q 5225 125 5675 150 
L 5675 -325 
Q 5225 -300 5125 -300 
L 1450 -300 
z
M 3450 4800 
Q 4275 3525 6150 3000 
Q 5900 2825 5775 2450 
Q 3825 3275 3175 4475 
Q 2325 3225 575 2300 
Q 400 2625 200 2800 
Q 1475 3300 2162 4037 
Q 2850 4775 3000 5225 
Q 3150 5125 3575 4975 
L 3450 4800 
z
" transform="scale(0.015625)"/>
        <path id="SimHei-4e1a" d="M 2825 5025 
Q 2775 4325 2775 3825 
L 2775 150 
L 3600 150 
L 3600 4125 
Q 3600 4525 3550 5025 
L 4175 5025 
Q 4125 4625 4125 4175 
L 4125 150 
L 5100 150 
Q 5500 150 6075 200 
L 6075 -350 
Q 5500 -300 5125 -300 
L 1325 -300 
Q 975 -300 325 -350 
L 325 200 
Q 975 150 1300 150 
L 2225 150 
L 2225 3850 
Q 2225 4375 2150 5025 
L 2825 5025 
z
M 1025 3775 
Q 1325 3000 1850 1500 
Q 1575 1450 1275 1300 
Q 825 2750 475 3550 
Q 725 3650 1025 3775 
z
M 5850 3625 
Q 5525 2775 4950 1250 
Q 4700 1400 4425 1475 
Q 4950 2450 5225 3825 
Q 5500 3725 5850 3625 
z
" transform="scale(0.015625)"/>
       </defs>
       <use xlink:href="#SimHei-4e0a"/>
       <use xlink:href="#SimHei-5e02" x="100"/>
       <use xlink:href="#SimHei-4f01" x="200"/>
       <use xlink:href="#SimHei-4e1a" x="300"/>
      </g>
     </g>
    </g>
    <g id="xtick_2">
     <g id="line2d_2">
      <g>
       <use xlink:href="#m236330e7df" x="146.88" y="307.584" style="stroke: #000000; stroke-width: 0.8"/>
      </g>
     </g>
     <g id="text_2">
      <!-- 世界五百强 -->
      <g transform="translate(131.522525 355.463611)rotate(-45)scale(0.1 -0.1)">
       <defs>
        <path id="SimHei-4e16" d="M 4750 5100 
Q 4700 4775 4700 3325 
L 5325 3325 
Q 5575 3325 6050 3350 
L 6050 2850 
Q 5650 2875 5350 2875 
L 4700 2875 
Q 4700 1350 4750 950 
L 2500 950 
Q 2550 1300 2550 2875 
L 1575 2875 
L 1575 75 
L 4700 75 
Q 5225 75 5675 100 
L 5675 -400 
Q 5225 -375 4725 -375 
L 975 -375 
Q 1050 -50 1050 400 
L 1050 2875 
Q 625 2875 275 2850 
L 275 3350 
Q 650 3325 1050 3325 
Q 1050 4475 1000 4850 
L 1625 4850 
Q 1575 4550 1575 3325 
L 2550 3325 
Q 2550 4775 2500 5100 
L 3100 5100 
Q 3075 4800 3075 3325 
L 4175 3325 
Q 4175 4700 4150 5100 
L 4750 5100 
z
M 4175 1400 
L 4175 2875 
L 3075 2875 
L 3075 1400 
L 4175 1400 
z
" transform="scale(0.015625)"/>
        <path id="SimHei-754c" d="M 5400 5075 
Q 5375 4800 5375 4225 
L 5375 3675 
Q 5375 3350 5400 2875 
L 975 2875 
Q 1000 3350 1000 3700 
L 1000 4225 
Q 1000 4700 975 5075 
L 5400 5075 
z
M 3400 2450 
Q 3875 2100 4700 1787 
Q 5525 1475 6150 1425 
Q 5925 1200 5800 925 
Q 5175 1075 4575 1325 
Q 4550 1175 4550 925 
L 4550 150 
Q 4550 -225 4575 -600 
L 4025 -600 
Q 4050 -250 4050 150 
L 4050 825 
Q 4050 1150 4025 1450 
L 4325 1450 
Q 3775 1650 3100 2200 
Q 2700 1900 2075 1587 
Q 1450 1275 625 1000 
Q 525 1225 300 1425 
Q 675 1500 1300 1725 
Q 1925 1950 2387 2262 
Q 2850 2575 3000 2800 
Q 3250 2675 3525 2550 
L 3400 2450 
z
M 2400 1375 
Q 2350 1200 2337 1000 
Q 2325 800 2262 525 
Q 2200 250 2000 -37 
Q 1800 -325 1325 -700 
Q 1150 -475 950 -350 
Q 1350 -100 1562 137 
Q 1775 375 1825 600 
Q 1875 825 1887 987 
Q 1900 1150 1900 1450 
Q 2225 1400 2400 1375 
z
M 4875 3225 
L 4875 3800 
L 3400 3800 
L 3400 3225 
L 4875 3225 
z
M 4875 4150 
L 4875 4725 
L 3400 4725 
L 3400 4150 
L 4875 4150 
z
M 2925 4150 
L 2925 4725 
L 1500 4725 
L 1500 4150 
L 2925 4150 
z
M 2925 3225 
L 2925 3800 
L 1500 3800 
L 1500 3225 
L 2925 3225 
z
" transform="scale(0.015625)"/>
        <path id="SimHei-4e94" d="M 4975 4600 
Q 5325 4600 5650 4625 
L 5650 4175 
Q 5325 4200 5000 4200 
L 3150 4200 
L 3000 2875 
L 4950 2875 
Q 4900 2575 4900 2125 
L 4850 300 
Q 5650 300 6000 325 
L 6000 -200 
Q 5650 -175 4975 -175 
L 1375 -175 
Q 775 -175 425 -225 
L 425 325 
Q 800 300 1325 300 
L 2150 300 
L 2450 2475 
L 1850 2475 
Q 1400 2475 1125 2450 
L 1125 2900 
Q 1425 2875 1850 2875 
L 2525 2875 
L 2675 4200 
L 1550 4200 
Q 1150 4200 800 4175 
L 800 4625 
Q 1125 4600 1550 4600 
L 4975 4600 
z
M 4350 300 
L 4425 2475 
L 2950 2475 
L 2650 300 
L 4350 300 
z
" transform="scale(0.015625)"/>
        <path id="SimHei-767e" d="M 5050 4850 
Q 5675 4850 5950 4875 
L 5950 4425 
Q 5600 4450 5050 4450 
L 3400 4450 
Q 3200 3875 3075 3450 
L 5300 3450 
Q 5275 2975 5275 2475 
L 5275 550 
Q 5275 -50 5300 -525 
L 4800 -525 
L 4800 -25 
L 1625 -25 
L 1625 -600 
L 1125 -600 
Q 1150 275 1150 550 
L 1150 2400 
Q 1150 3100 1125 3450 
L 2600 3450 
Q 2775 3950 2875 4450 
L 1400 4450 
Q 975 4450 425 4425 
L 425 4875 
Q 925 4850 1375 4850 
L 5050 4850 
z
M 4800 400 
L 4800 1525 
L 1625 1525 
L 1625 400 
L 4800 400 
z
M 4800 1950 
L 4800 3050 
L 1625 3050 
L 1625 1950 
L 4800 1950 
z
" transform="scale(0.015625)"/>
        <path id="SimHei-5f3a" d="M 2350 25 
Q 3100 75 3950 225 
L 3950 1200 
L 3100 1200 
L 3100 975 
L 2625 975 
Q 2650 1725 2650 2050 
L 2650 2875 
L 3950 2875 
L 3950 3500 
L 2850 3500 
Q 2875 3900 2875 4275 
Q 2875 4675 2850 5025 
L 5525 5025 
Q 5500 4675 5500 4275 
Q 5500 3900 5525 3500 
L 4400 3500 
L 4400 2875 
L 5750 2875 
Q 5725 2575 5725 2075 
Q 5725 1575 5750 1200 
L 4400 1200 
L 4400 275 
L 5250 425 
Q 5150 575 5050 750 
Q 5300 825 5475 925 
Q 5925 200 6175 -250 
Q 5925 -350 5725 -500 
Q 5625 -250 5425 100 
Q 5125 50 4225 -137 
Q 3325 -325 2600 -525 
Q 2525 -200 2350 25 
z
M 600 -25 
Q 1250 -25 1400 50 
Q 1550 125 1575 325 
L 1675 1850 
L 500 1850 
Q 550 2350 562 2762 
Q 575 3175 575 3575 
L 1800 3575 
L 1800 4550 
L 1275 4550 
Q 825 4550 425 4525 
L 425 4950 
Q 850 4925 1275 4925 
L 2275 4925 
Q 2250 4525 2250 4075 
Q 2250 3650 2275 3200 
L 1075 3200 
L 1025 2225 
L 2175 2225 
Q 2125 1775 2100 1425 
L 2025 150 
Q 1975 -250 1637 -387 
Q 1300 -525 850 -600 
Q 775 -275 600 -25 
z
M 5050 3875 
L 5050 4650 
L 3325 4650 
L 3325 3875 
L 5050 3875 
z
M 3950 1575 
L 3950 2500 
L 3100 2500 
L 3100 1575 
L 3950 1575 
z
M 5250 1575 
L 5250 2500 
L 4400 2500 
L 4400 1575 
L 5250 1575 
z
" transform="scale(0.015625)"/>
       </defs>
       <use xlink:href="#SimHei-4e16"/>
       <use xlink:href="#SimHei-754c" x="100"/>
       <use xlink:href="#SimHei-4e94" x="200"/>
       <use xlink:href="#SimHei-767e" x="300"/>
       <use xlink:href="#SimHei-5f3a" x="400"/>
      </g>
     </g>
    </g>
    <g id="xtick_3">
     <g id="line2d_3">
      <g>
       <use xlink:href="#m236330e7df" x="206.4" y="307.584" style="stroke: #000000; stroke-width: 0.8"/>
      </g>
     </g>
     <g id="text_3">
      <!-- 幼教与中小学校 -->
      <g transform="translate(184.081942 369.826717)rotate(-45)scale(0.1 -0.1)">
       <defs>
        <path id="SimHei-5e7c" d="M 4375 75 
Q 4950 50 5100 100 
Q 5250 150 5275 375 
Q 5300 600 5475 3375 
L 4575 3375 
Q 4550 2625 4450 2037 
Q 4350 1450 4125 937 
Q 3900 425 3600 62 
Q 3300 -300 2900 -600 
Q 2675 -400 2350 -250 
Q 2850 0 3187 387 
Q 3525 775 3787 1475 
Q 4050 2175 4100 3375 
Q 3575 3375 3125 3350 
L 3125 3775 
Q 3600 3750 4100 3750 
Q 4125 4475 4075 5125 
Q 4375 5075 4675 5075 
Q 4600 4625 4575 3750 
L 6050 3750 
Q 5950 3350 5850 1787 
Q 5750 225 5725 -25 
Q 5700 -275 5387 -375 
Q 5075 -475 4575 -500 
Q 4525 -200 4375 75 
z
M 2325 4875 
Q 2100 4625 1825 4100 
Q 1550 3575 1125 2900 
Q 1450 2900 2025 2925 
Q 2200 3275 2350 3650 
Q 2600 3475 2900 3350 
Q 2550 2875 2087 2137 
Q 1625 1400 1225 875 
Q 1900 950 2450 1050 
Q 2275 1450 2150 1600 
Q 2425 1700 2625 1800 
Q 2725 1650 2900 1237 
Q 3075 825 3175 575 
Q 2975 500 2700 350 
L 2600 625 
Q 2225 575 1750 500 
Q 1275 425 700 250 
Q 500 575 400 750 
Q 700 900 1075 1375 
Q 1450 1850 1800 2525 
Q 1500 2500 1175 2475 
Q 850 2450 500 2375 
Q 450 2550 325 2850 
Q 625 2975 862 3325 
Q 1100 3675 1325 4200 
Q 1550 4725 1625 5075 
Q 1975 4950 2325 4875 
z
" transform="scale(0.015625)"/>
        <path id="SimHei-6559" d="M 1675 4475 
Q 1675 4900 1650 5200 
L 2150 5200 
Q 2125 4900 2125 4475 
Q 2400 4475 2775 4500 
L 2775 4050 
Q 2450 4075 2125 4075 
L 2125 3400 
L 2325 3400 
Q 2550 3650 2775 4025 
Q 3000 4400 3125 4800 
Q 3350 4650 3575 4525 
Q 3500 4450 3312 4125 
Q 3125 3800 2825 3400 
Q 3225 3400 3425 3425 
L 3425 2975 
Q 3050 3000 2525 3000 
Q 2200 2700 1900 2425 
L 3100 2425 
L 3100 2050 
Q 2925 1975 2712 1837 
Q 2500 1700 2300 1525 
L 2300 1225 
Q 2875 1300 3400 1400 
L 3400 1000 
Q 3300 1000 2300 825 
L 2300 50 
Q 2325 -475 1350 -550 
Q 1325 -275 1175 -25 
Q 1850 -75 1850 225 
L 1850 750 
Q 925 600 500 450 
L 300 950 
Q 650 975 1850 1150 
Q 1850 1425 1800 1650 
Q 2075 1825 2325 2025 
L 1375 2025 
Q 975 1725 550 1475 
Q 400 1675 200 1850 
Q 600 2025 1025 2275 
L 1025 2425 
L 1250 2425 
Q 1700 2775 1925 3000 
Q 775 3000 325 2975 
L 325 3425 
Q 775 3400 1675 3400 
L 1675 4075 
Q 1175 4075 775 4050 
L 775 4500 
Q 1150 4475 1675 4475 
z
M 4675 4975 
Q 4600 4900 4325 3900 
Q 5675 3900 6100 3925 
L 6100 3475 
Q 5750 3500 5525 3500 
Q 5475 3000 5400 2550 
Q 5325 2100 5212 1675 
Q 5100 1250 4875 825 
Q 5375 225 6175 -50 
Q 5900 -300 5825 -500 
Q 5175 -175 4575 475 
Q 3950 -200 3000 -600 
Q 2900 -400 2700 -200 
Q 3700 125 4325 850 
Q 3950 1600 3750 2450 
L 3475 2025 
Q 3350 2200 3150 2375 
Q 3450 2775 3687 3412 
Q 3925 4050 4012 4500 
Q 4100 4950 4125 5175 
Q 4425 5050 4675 4975 
z
M 4025 3025 
Q 4275 1850 4600 1275 
Q 4925 1950 5075 3500 
L 4200 3500 
Q 4100 3225 4025 3025 
z
" transform="scale(0.015625)"/>
        <path id="SimHei-4e0e" d="M 5350 100 
Q 5275 -300 4925 -425 
Q 4575 -550 3900 -600 
Q 3875 -375 3650 -25 
Q 4375 -50 4575 0 
Q 4775 50 4837 225 
Q 4900 400 5100 2350 
L 1125 2350 
Q 1450 4350 1475 5200 
Q 1800 5150 2075 5125 
Q 1975 4825 1900 4275 
L 4900 4275 
Q 5400 4275 5800 4300 
L 5800 3825 
Q 5400 3850 4950 3850 
L 1850 3850 
L 1700 2750 
L 5675 2750 
Q 5625 2450 5575 2050 
L 5350 100 
z
M 3675 1350 
Q 4125 1350 4500 1375 
L 4500 875 
Q 4125 900 3850 900 
L 1450 900 
Q 1000 900 500 875 
L 500 1375 
Q 1000 1350 1450 1350 
L 3675 1350 
z
" transform="scale(0.015625)"/>
        <path id="SimHei-4e2d" d="M 3475 5200 
Q 3450 4500 3450 3875 
L 5625 3875 
Q 5600 3375 5600 2500 
Q 5600 1650 5625 1225 
L 5075 1225 
L 5075 1600 
L 3450 1600 
L 3450 525 
Q 3450 225 3475 -600 
L 2875 -600 
Q 2925 -150 2925 450 
L 2925 1600 
L 1300 1600 
L 1300 1225 
L 750 1225 
Q 775 1600 775 2500 
Q 775 3425 750 3875 
L 2925 3875 
Q 2925 4550 2900 5200 
L 3475 5200 
z
M 5075 2000 
L 5075 3475 
L 3450 3475 
L 3450 2000 
L 5075 2000 
z
M 2925 2000 
L 2925 3475 
L 1300 3475 
L 1300 2000 
L 2925 2000 
z
" transform="scale(0.015625)"/>
        <path id="SimHei-5c0f" d="M 3500 5150 
Q 3475 4800 3475 4200 
L 3475 175 
Q 3475 -300 3225 -425 
Q 2975 -550 2375 -600 
Q 2325 -300 2150 -25 
Q 2700 -25 2837 0 
Q 2975 25 2975 300 
L 2975 4200 
Q 2975 4650 2950 5150 
L 3500 5150 
z
M 2075 3400 
Q 1850 2775 1550 1962 
Q 1250 1150 1025 750 
Q 775 950 500 1000 
Q 925 1750 1175 2487 
Q 1425 3225 1500 3575 
Q 1800 3425 2075 3400 
z
M 4675 3600 
Q 5675 1800 5875 1150 
Q 5625 1100 5375 925 
Q 5000 2000 4225 3325 
Q 4425 3425 4675 3600 
z
" transform="scale(0.015625)"/>
        <path id="SimHei-5b66" d="M 4875 2675 
L 4875 2150 
Q 4525 2075 4237 1912 
Q 3950 1750 3575 1575 
L 3575 1350 
L 5150 1350 
Q 5450 1350 5925 1375 
L 5925 875 
Q 5425 900 5150 900 
L 3575 900 
L 3575 -125 
Q 3575 -475 3300 -562 
Q 3025 -650 2400 -700 
Q 2325 -425 2150 -150 
L 2825 -150 
Q 3075 -150 3075 125 
L 3075 900 
L 1350 900 
Q 950 900 450 875 
L 450 1375 
Q 975 1350 1325 1350 
L 3075 1350 
Q 3075 1550 3025 1800 
L 3925 2250 
L 2550 2250 
Q 2075 2250 1475 2225 
L 1475 2700 
Q 2025 2675 2525 2675 
L 4875 2675 
z
M 5350 4975 
Q 4850 4400 4500 3800 
L 5875 3800 
Q 5850 3575 5850 3275 
Q 5850 2975 5875 2700 
L 5350 2700 
L 5350 3375 
L 1025 3375 
L 1025 2675 
L 500 2675 
Q 525 2975 525 3275 
Q 525 3575 500 3800 
L 3975 3800 
Q 4175 4150 4387 4537 
Q 4600 4925 4725 5300 
Q 5125 5075 5350 4975 
z
M 2950 5225 
Q 3425 4625 3575 4350 
Q 3350 4175 3100 4025 
Q 2900 4425 2500 4925 
Q 2750 5100 2950 5225 
z
M 1250 5050 
Q 1700 4675 2025 4275 
Q 1750 4075 1600 3900 
Q 1275 4375 850 4725 
Q 1125 4925 1250 5050 
z
" transform="scale(0.015625)"/>
        <path id="SimHei-6821" d="M 1250 3825 
Q 1250 4800 1225 5125 
L 1750 5125 
Q 1725 4800 1725 3825 
Q 2025 3825 2375 3850 
L 2375 3400 
Q 2050 3425 1725 3425 
L 1725 2475 
Q 1900 2600 2100 2700 
Q 2375 2225 2600 1875 
Q 2350 1750 2125 1600 
Q 1975 2000 1725 2425 
L 1725 475 
Q 1725 -25 1750 -550 
L 1225 -550 
Q 1250 -25 1250 475 
L 1250 2325 
Q 1025 1575 625 800 
Q 425 1100 200 1275 
Q 850 2125 1150 3425 
Q 775 3425 350 3400 
L 350 3850 
Q 775 3825 1250 3825 
z
M 3550 2225 
Q 3875 1375 4200 1000 
Q 4575 1425 4850 2300 
Q 5075 2150 5400 2100 
Q 5225 1800 5062 1450 
Q 4900 1100 4525 650 
Q 4750 400 5175 200 
Q 5600 0 6200 -100 
Q 5875 -350 5800 -600 
Q 5275 -425 4862 -200 
Q 4450 25 4200 300 
Q 3875 25 3525 -175 
Q 3175 -375 2475 -650 
Q 2325 -375 2100 -200 
Q 2850 0 3212 200 
Q 3575 400 3875 650 
Q 3400 1225 3125 2025 
Q 3350 2075 3550 2225 
z
M 5150 4275 
Q 5650 4275 6100 4300 
L 6100 3850 
Q 5700 3875 5150 3875 
L 3375 3875 
Q 2875 3875 2500 3850 
L 2500 4300 
Q 2875 4275 3375 4275 
L 5150 4275 
z
M 4025 3250 
Q 3850 3125 3525 2762 
Q 3200 2400 3000 2175 
Q 2800 2350 2550 2475 
Q 3200 3050 3500 3575 
L 4025 3250 
z
M 5025 3525 
Q 5775 2925 6100 2650 
Q 5850 2450 5650 2250 
Q 5400 2600 4675 3200 
Q 4900 3350 5025 3525 
z
M 4225 5250 
Q 4425 4975 4625 4550 
Q 4400 4475 4125 4325 
Q 4050 4650 3800 5050 
L 4225 5250 
z
" transform="scale(0.015625)"/>
       </defs>
       <use xlink:href="#SimHei-5e7c"/>
       <use xlink:href="#SimHei-6559" x="100"/>
       <use xlink:href="#SimHei-4e0e" x="200"/>
       <use xlink:href="#SimHei-4e2d" x="300"/>
       <use xlink:href="#SimHei-5c0f" x="400"/>
       <use xlink:href="#SimHei-5b66" x="500"/>
       <use xlink:href="#SimHei-6821" x="600"/>
      </g>
     </g>
    </g>
    <g id="xtick_4">
     <g id="line2d_4">
      <g>
       <use xlink:href="#m236330e7df" x="265.92" y="307.584" style="stroke: #000000; stroke-width: 0.8"/>
      </g>
     </g>
     <g id="text_4">
      <!-- 政府机构 -->
      <g transform="translate(254.153301 348.503028)rotate(-45)scale(0.1 -0.1)">
       <defs>
        <path id="SimHei-653f" d="M 2450 -100 
Q 2875 -25 3337 225 
Q 3800 475 4125 875 
Q 3925 1275 3775 1775 
Q 3625 2275 3550 2800 
L 3425 2600 
Q 3225 2725 3000 2875 
Q 3300 3300 3562 3887 
Q 3825 4475 4025 5225 
Q 4200 5125 4625 4950 
Q 4500 4850 4362 4550 
Q 4225 4250 4125 4000 
L 5200 4000 
Q 5675 4000 6050 4025 
L 6050 3575 
Q 5700 3600 5400 3600 
Q 5375 2650 5175 1925 
Q 4975 1200 4700 850 
Q 5000 500 5375 300 
Q 5750 100 6200 0 
Q 5875 -300 5800 -575 
Q 5375 -350 5062 -125 
Q 4750 100 4425 475 
Q 4025 75 3637 -175 
Q 3250 -425 2850 -625 
Q 2700 -275 2450 -100 
z
M 3175 725 
Q 2100 450 1337 225 
Q 575 0 400 -75 
Q 300 200 200 500 
Q 500 550 750 600 
L 750 2350 
Q 750 2850 725 3175 
L 1250 3175 
Q 1225 2850 1225 2350 
L 1225 700 
L 1800 825 
L 1800 4225 
Q 1000 4225 575 4200 
L 575 4650 
Q 975 4625 1350 4625 
L 2500 4625 
Q 2850 4625 3275 4650 
L 3275 4200 
Q 2850 4225 2275 4225 
L 2275 2800 
Q 2600 2800 3000 2825 
L 3000 2375 
Q 2600 2400 2275 2400 
L 2275 925 
L 3175 1150 
L 3175 725 
z
M 3575 2850 
Q 3825 2875 4025 2900 
Q 4150 2025 4425 1325 
Q 4625 1800 4750 2287 
Q 4875 2775 4925 3600 
L 3975 3600 
Q 3800 3250 3575 2850 
z
" transform="scale(0.015625)"/>
        <path id="SimHei-5e9c" d="M 3150 4500 
Q 3075 4825 2975 5125 
Q 3225 5200 3525 5275 
Q 3650 4850 3725 4500 
L 4750 4500 
Q 5350 4500 5875 4525 
L 5875 4075 
Q 5400 4100 4750 4100 
L 1375 4100 
Q 1375 2650 1325 2000 
Q 1275 1350 1125 737 
Q 975 125 750 -400 
Q 500 -250 225 -150 
Q 550 325 675 962 
Q 800 1600 837 2537 
Q 875 3475 850 4500 
L 3150 4500 
z
M 2900 2975 
Q 3450 2950 3775 2950 
L 4725 2950 
Q 4725 3525 4700 3875 
L 5200 3875 
Q 5175 3525 5175 2950 
Q 5650 2950 6025 2975 
L 6025 2500 
Q 5675 2525 5175 2525 
L 5175 225 
Q 5200 -275 4900 -400 
Q 4600 -525 4125 -575 
Q 4050 -250 3950 -25 
Q 4400 -25 4575 25 
Q 4750 75 4725 375 
L 4725 2525 
L 3775 2525 
Q 3425 2525 2900 2500 
L 2900 2975 
z
M 1750 1775 
Q 1550 1975 1350 2125 
Q 1700 2450 2012 2950 
Q 2325 3450 2475 3950 
Q 2775 3800 3075 3700 
Q 2700 3200 2600 2975 
L 2600 525 
Q 2600 50 2625 -525 
L 2125 -525 
Q 2150 25 2150 550 
L 2150 2275 
Q 1975 2075 1750 1775 
z
M 3675 925 
Q 3550 1175 3200 1825 
Q 3475 2025 3575 2075 
Q 3925 1475 4050 1175 
Q 3950 1100 3675 925 
z
" transform="scale(0.015625)"/>
        <path id="SimHei-673a" d="M 5100 4775 
Q 5075 4075 5075 3575 
L 5075 325 
Q 5075 0 5225 -25 
Q 5375 -50 5475 -37 
Q 5575 -25 5612 137 
Q 5650 300 5650 625 
Q 5875 500 6175 425 
Q 6075 -100 5975 -275 
Q 5875 -450 5650 -450 
L 5125 -450 
Q 4825 -450 4687 -312 
Q 4550 -175 4575 250 
L 4575 4350 
L 3625 4350 
Q 3625 2925 3587 2137 
Q 3550 1350 3362 712 
Q 3175 75 2625 -575 
Q 2500 -425 2175 -175 
Q 2525 100 2737 500 
Q 2950 900 3025 1325 
Q 3100 1750 3125 2225 
Q 3150 2700 3150 3425 
Q 3150 4175 3125 4775 
L 5100 4775 
z
M 2150 2725 
Q 2550 2175 2750 1875 
Q 2575 1725 2325 1550 
Q 2175 1875 1800 2425 
L 1800 600 
Q 1800 100 1825 -525 
L 1275 -525 
Q 1300 100 1300 600 
L 1300 2200 
Q 1175 1825 1025 1487 
Q 875 1150 600 725 
Q 375 975 200 1125 
Q 400 1350 725 2000 
Q 1050 2650 1225 3450 
L 1075 3450 
Q 725 3450 375 3400 
L 375 3875 
Q 725 3850 1050 3850 
L 1300 3850 
L 1300 4350 
Q 1300 4750 1275 5100 
L 1850 5100 
Q 1800 4850 1800 4350 
L 1800 3850 
L 2075 3850 
Q 2350 3850 2700 3875 
L 2700 3425 
Q 2150 3450 1800 3450 
L 1800 2450 
Q 1950 2575 2150 2725 
z
" transform="scale(0.015625)"/>
        <path id="SimHei-6784" d="M 2250 1625 
Q 2050 2100 1825 2475 
L 1825 575 
Q 1825 50 1850 -500 
L 1325 -500 
Q 1350 75 1350 575 
L 1350 2375 
Q 1075 1750 525 1000 
Q 375 1200 175 1400 
Q 625 1900 912 2512 
Q 1200 3125 1250 3500 
Q 850 3500 475 3475 
L 475 3925 
Q 850 3900 1350 3900 
L 1350 4475 
Q 1350 4850 1325 5150 
L 1850 5150 
Q 1825 4900 1825 4475 
L 1825 3900 
Q 2150 3900 2525 3925 
L 2525 3475 
Q 2150 3500 1825 3500 
L 1825 2525 
Q 2025 2625 2225 2750 
Q 2475 2300 2700 1875 
Q 2475 1775 2250 1625 
z
M 4000 5050 
Q 3875 4875 3762 4625 
Q 3650 4375 3550 4125 
L 6025 4125 
Q 6000 3750 5975 3200 
Q 5975 1675 5875 350 
Q 5775 -200 5462 -337 
Q 5150 -475 4500 -525 
Q 4450 -250 4300 50 
Q 4825 25 5100 75 
Q 5375 125 5425 725 
Q 5525 2125 5500 3700 
L 3375 3700 
Q 3150 3200 2875 2750 
Q 2675 2900 2450 2975 
Q 2825 3525 3075 4150 
Q 3325 4775 3425 5250 
Q 3725 5100 4000 5050 
z
M 4450 1050 
Q 4175 1025 3662 950 
Q 3150 875 2800 725 
Q 2700 1025 2575 1300 
Q 2725 1350 2925 1675 
Q 3125 2000 3250 2337 
Q 3375 2675 3500 3150 
Q 3800 3025 4075 2875 
Q 3925 2725 3637 2162 
Q 3350 1600 3175 1350 
Q 3725 1375 4375 1425 
Q 4275 1775 4125 2175 
L 4625 2325 
Q 4775 1900 4900 1525 
Q 5025 1150 5075 800 
Q 4800 750 4550 650 
Q 4500 875 4450 1050 
z
" transform="scale(0.015625)"/>
       </defs>
       <use xlink:href="#SimHei-653f"/>
       <use xlink:href="#SimHei-5e9c" x="100"/>
       <use xlink:href="#SimHei-673a" x="200"/>
       <use xlink:href="#SimHei-6784" x="300"/>
      </g>
     </g>
    </g>
    <g id="xtick_5">
     <g id="line2d_5">
      <g>
       <use xlink:href="#m236330e7df" x="325.44" y="307.584" style="stroke: #000000; stroke-width: 0.8"/>
      </g>
     </g>
     <g id="text_5">
      <!-- 普通企业 -->
      <g transform="translate(313.700923 348.558271)rotate(-45)scale(0.1 -0.1)">
       <defs>
        <path id="SimHei-666e" d="M 5200 1875 
Q 5175 1375 5175 625 
Q 5175 -100 5200 -650 
L 4700 -650 
L 4700 -350 
L 1700 -350 
L 1700 -650 
L 1200 -650 
Q 1225 -100 1225 550 
Q 1225 1225 1200 1875 
L 5200 1875 
z
M 325 2750 
Q 750 2725 2350 2725 
L 2350 4050 
Q 1300 4050 675 4025 
L 675 4450 
Q 1300 4425 2200 4425 
Q 2050 4750 1775 5025 
Q 1950 5150 2125 5300 
Q 2425 5000 2675 4675 
Q 2450 4525 2275 4425 
L 3750 4425 
Q 4050 4950 4125 5300 
L 4700 5050 
Q 4525 4875 4250 4425 
Q 5325 4425 5700 4450 
L 5700 4000 
Q 5325 4025 4000 4025 
L 4000 2725 
Q 5725 2725 6100 2750 
L 6100 2325 
Q 5750 2350 5225 2350 
L 1200 2350 
Q 775 2350 325 2325 
L 325 2750 
z
M 4700 50 
L 4700 550 
L 1700 550 
L 1700 50 
L 4700 50 
z
M 4700 975 
L 4700 1475 
L 1700 1475 
L 1700 975 
L 4700 975 
z
M 3575 2725 
L 3575 4025 
L 2775 4025 
L 2775 2725 
L 3575 2725 
z
M 5350 3675 
Q 5300 3625 5137 3362 
Q 4975 3100 4775 2750 
Q 4600 2875 4400 2975 
Q 4725 3500 4875 3950 
Q 5100 3775 5350 3675 
z
M 1575 2800 
Q 1350 3325 1075 3625 
Q 1275 3725 1450 3875 
Q 1700 3550 2000 3075 
Q 1750 2950 1575 2800 
z
" transform="scale(0.015625)"/>
        <path id="SimHei-901a" d="M 5675 5050 
Q 5325 4650 4937 4300 
Q 4550 3950 4250 3650 
L 5700 3650 
Q 5675 3100 5675 2575 
L 5675 850 
Q 5700 525 5500 425 
Q 5300 325 4900 250 
Q 4850 475 4650 775 
Q 5025 800 5150 850 
Q 5275 900 5250 1325 
L 4125 1325 
L 4125 300 
L 3675 300 
L 3675 1325 
L 2575 1325 
L 2575 300 
L 2125 300 
Q 2150 1125 2150 1950 
Q 2150 2775 2125 3650 
L 3600 3650 
Q 3475 3850 3050 4200 
Q 3225 4350 3375 4525 
Q 3825 4175 4000 4000 
Q 4400 4425 4625 4650 
L 3025 4650 
Q 2525 4650 2150 4625 
L 2150 5075 
Q 2525 5050 2975 5050 
L 5675 5050 
z
M 1425 3000 
Q 1400 2500 1400 2100 
L 1400 600 
Q 2025 -25 3700 -25 
Q 5375 -25 6150 125 
Q 6000 -175 5975 -500 
Q 3975 -525 3137 -450 
Q 2300 -375 1775 -112 
Q 1250 150 1075 -37 
Q 900 -225 650 -650 
Q 425 -400 200 -225 
Q 600 125 975 425 
L 975 2575 
Q 775 2575 350 2550 
L 350 3025 
Q 750 3000 1425 3000 
z
M 5250 1725 
L 5250 2325 
L 4125 2325 
L 4125 1725 
L 5250 1725 
z
M 3675 1725 
L 3675 2325 
L 2575 2325 
L 2575 1725 
L 3675 1725 
z
M 5250 2725 
L 5250 3275 
L 4125 3275 
L 4125 2725 
L 5250 2725 
z
M 3675 2725 
L 3675 3275 
L 2575 3275 
L 2575 2725 
L 3675 2725 
z
M 1025 5025 
Q 1450 4425 1700 4075 
Q 1425 3925 1250 3725 
Q 1075 4100 600 4725 
Q 800 4875 1025 5025 
z
" transform="scale(0.015625)"/>
       </defs>
       <use xlink:href="#SimHei-666e"/>
       <use xlink:href="#SimHei-901a" x="100"/>
       <use xlink:href="#SimHei-4f01" x="200"/>
       <use xlink:href="#SimHei-4e1a" x="300"/>
      </g>
     </g>
    </g>
    <g id="xtick_6">
     <g id="line2d_6">
      <g>
       <use xlink:href="#m236330e7df" x="384.96" y="307.584" style="stroke: #000000; stroke-width: 0.8"/>
      </g>
     </g>
     <g id="text_6">
      <!-- 高等教育机构 -->
      <g transform="translate(366.136044 362.672785)rotate(-45)scale(0.1 -0.1)">
       <defs>
        <path id="SimHei-9ad8" d="M 5825 -25 
Q 5850 -400 5550 -500 
Q 5250 -600 4975 -625 
Q 4875 -325 4725 -100 
Q 4975 -100 5175 -87 
Q 5375 -75 5350 250 
L 5350 1825 
L 1100 1825 
L 1100 -575 
L 600 -575 
Q 625 -225 625 850 
Q 625 1950 600 2200 
L 5850 2200 
Q 5825 1850 5825 1425 
L 5825 -25 
z
M 4925 3800 
Q 4900 3475 4900 3175 
Q 4900 2900 4925 2600 
L 1400 2600 
Q 1425 2825 1425 3175 
Q 1425 3525 1400 3800 
L 4925 3800 
z
M 4500 1400 
Q 4475 1125 4475 800 
Q 4475 500 4500 200 
L 1950 200 
Q 2000 500 2000 800 
Q 2000 1125 1950 1400 
L 4500 1400 
z
M 425 4600 
Q 750 4575 1125 4575 
L 2925 4575 
Q 2850 4875 2750 5100 
Q 3050 5125 3350 5200 
Q 3400 4950 3525 4575 
L 5250 4575 
Q 5600 4575 5975 4600 
L 5975 4150 
Q 5600 4175 5050 4175 
L 1150 4175 
Q 750 4175 425 4150 
L 425 4600 
z
M 4450 2975 
L 4450 3425 
L 1900 3425 
L 1900 2975 
L 4450 2975 
z
M 4025 550 
L 4025 1050 
L 2400 1050 
L 2400 550 
L 4025 550 
z
" transform="scale(0.015625)"/>
        <path id="SimHei-7b49" d="M 2925 3450 
Q 2925 3625 2900 3950 
L 3450 3950 
Q 3425 3625 3425 3450 
L 4475 3450 
Q 4850 3450 5350 3475 
L 5350 3050 
Q 4875 3075 4500 3075 
L 3425 3075 
L 3425 2400 
L 5225 2400 
Q 5625 2400 6125 2425 
L 6125 1975 
Q 5650 2000 5225 2000 
L 4700 2000 
L 4700 1350 
Q 5325 1350 5750 1375 
L 5750 925 
Q 5250 950 4700 950 
L 4700 125 
Q 4725 -325 4437 -437 
Q 4150 -550 3550 -625 
Q 3500 -325 3350 -75 
Q 3775 -100 3975 -75 
Q 4175 -50 4175 275 
L 4175 950 
L 1550 950 
Q 1225 950 700 925 
L 700 1375 
Q 1200 1350 1650 1350 
L 4175 1350 
L 4175 2000 
L 1075 2000 
Q 750 2000 200 1975 
L 200 2425 
Q 750 2400 1075 2400 
L 2925 2400 
L 2925 3075 
L 1925 3075 
Q 1575 3075 1050 3050 
L 1050 3475 
Q 1725 3450 1925 3450 
L 2925 3450 
z
M 1825 5100 
Q 1675 5000 1500 4725 
L 2400 4725 
Q 2925 4725 3275 4750 
L 3275 4350 
Q 3000 4375 2575 4375 
L 2275 4375 
Q 2400 4175 2575 3850 
Q 2275 3750 2025 3675 
Q 2025 3725 1775 4375 
L 1325 4375 
Q 1125 4075 750 3625 
Q 525 3800 275 3900 
Q 625 4175 850 4525 
Q 1075 4875 1250 5300 
Q 1550 5175 1825 5100 
z
M 3700 3875 
Q 3500 4000 3225 4075 
Q 3475 4275 3650 4575 
Q 3825 4875 3975 5250 
Q 4250 5150 4550 5050 
Q 4350 4875 4250 4700 
L 5275 4700 
Q 5450 4700 6125 4725 
L 6125 4325 
Q 5650 4350 5200 4350 
Q 5475 3900 5600 3725 
Q 5250 3650 5025 3575 
Q 4975 3800 4700 4350 
L 4050 4350 
Q 3925 4150 3700 3875 
z
M 2575 75 
Q 2350 -50 2125 -200 
Q 1900 225 1525 625 
Q 1700 725 1925 900 
Q 2300 500 2575 75 
z
" transform="scale(0.015625)"/>
        <path id="SimHei-80b2" d="M 4025 -100 
Q 4475 -125 4575 -12 
Q 4675 100 4650 450 
L 1975 450 
L 1975 -550 
L 1500 -550 
Q 1525 100 1525 475 
L 1525 1650 
Q 1525 2075 1500 2575 
L 5150 2575 
Q 5125 2125 5125 1725 
L 5125 25 
Q 5125 -425 4875 -500 
Q 4625 -575 4225 -625 
Q 4150 -325 4025 -100 
z
M 4275 3975 
Q 5200 3300 5475 3100 
Q 5275 2900 5150 2750 
Q 4925 2975 4750 3075 
Q 4225 3025 3175 2975 
Q 2125 2925 1475 2825 
Q 1400 3100 1250 3300 
Q 1500 3375 1750 3587 
Q 2000 3800 2200 4100 
L 1375 4100 
Q 1000 4100 550 4075 
L 550 4500 
Q 1000 4475 1375 4475 
L 3025 4475 
Q 3000 4600 2800 5050 
Q 3075 5100 3300 5200 
Q 3525 4625 3600 4475 
L 4900 4475 
Q 5275 4475 5925 4500 
L 5925 4075 
Q 5275 4100 4900 4100 
L 2400 4100 
Q 2550 3950 2700 3825 
L 2400 3600 
Q 2200 3450 1950 3250 
Q 2625 3275 3162 3300 
Q 3700 3325 4325 3375 
L 3975 3625 
Q 4125 3775 4275 3975 
z
M 4650 1675 
L 4650 2175 
L 1975 2175 
L 1975 1675 
L 4650 1675 
z
M 4650 850 
L 4650 1300 
L 1975 1300 
L 1975 850 
L 4650 850 
z
" transform="scale(0.015625)"/>
       </defs>
       <use xlink:href="#SimHei-9ad8"/>
       <use xlink:href="#SimHei-7b49" x="100"/>
       <use xlink:href="#SimHei-6559" x="200"/>
       <use xlink:href="#SimHei-80b2" x="300"/>
       <use xlink:href="#SimHei-673a" x="400"/>
       <use xlink:href="#SimHei-6784" x="500"/>
      </g>
     </g>
    </g>
    <g id="text_7">
     <!-- employer_type -->
     <g transform="translate(203.66 381.585601)scale(0.1 -0.1)">
      <defs>
       <path id="SimHei-65" d="M 2850 1075 
Q 2800 625 2450 350 
Q 2100 75 1625 75 
Q 1025 75 637 462 
Q 250 850 250 1525 
Q 250 2200 637 2587 
Q 1025 2975 1625 2975 
Q 2150 2975 2487 2637 
Q 2825 2300 2825 1525 
L 800 1525 
Q 800 975 1037 750 
Q 1275 525 1625 525 
Q 1900 525 2075 662 
Q 2250 800 2300 1075 
L 2850 1075 
z
M 2250 1925 
Q 2200 2275 2025 2412 
Q 1850 2550 1575 2550 
Q 1325 2550 1125 2412 
Q 925 2275 825 1925 
L 2250 1925 
z
" transform="scale(0.015625)"/>
       <path id="SimHei-6d" d="M 3050 125 
L 2550 125 
L 2550 2150 
Q 2550 2300 2500 2400 
Q 2450 2500 2300 2500 
Q 2125 2500 1975 2312 
Q 1825 2125 1825 1825 
L 1825 125 
L 1325 125 
L 1325 2150 
Q 1325 2300 1275 2400 
Q 1225 2500 1075 2500 
Q 900 2500 750 2312 
Q 600 2125 600 1825 
L 600 125 
L 100 125 
L 100 2925 
L 600 2925 
L 600 2550 
Q 725 2750 900 2862 
Q 1075 2975 1275 2975 
Q 1475 2975 1612 2862 
Q 1750 2750 1800 2550 
Q 1925 2750 2087 2862 
Q 2250 2975 2450 2975 
Q 2750 2975 2900 2812 
Q 3050 2650 3050 2350 
L 3050 125 
z
" transform="scale(0.015625)"/>
       <path id="SimHei-70" d="M 2825 1525 
Q 2825 800 2475 425 
Q 2125 50 1625 50 
Q 1350 50 1150 162 
Q 950 275 800 500 
L 800 -800 
L 300 -800 
L 300 2925 
L 800 2925 
L 800 2550 
Q 950 2775 1150 2875 
Q 1350 2975 1625 2975 
Q 2125 2975 2475 2612 
Q 2825 2250 2825 1525 
z
M 2275 1525 
Q 2275 2000 2087 2262 
Q 1900 2525 1525 2525 
Q 1225 2525 1012 2262 
Q 800 2000 800 1525 
Q 800 1050 1012 775 
Q 1225 500 1525 500 
Q 1900 500 2087 775 
Q 2275 1050 2275 1525 
z
" transform="scale(0.015625)"/>
       <path id="SimHei-6c" d="M 1825 125 
L 1325 125 
L 1325 4400 
L 1825 4400 
L 1825 125 
z
" transform="scale(0.015625)"/>
       <path id="SimHei-6f" d="M 2925 1525 
Q 2925 875 2525 475 
Q 2125 75 1575 75 
Q 1025 75 625 475 
Q 225 875 225 1525 
Q 225 2175 625 2575 
Q 1025 2975 1575 2975 
Q 2125 2975 2525 2575 
Q 2925 2175 2925 1525 
z
M 2375 1525 
Q 2375 2025 2125 2275 
Q 1875 2525 1575 2525 
Q 1275 2525 1025 2275 
Q 775 2025 775 1525 
Q 775 1025 1025 775 
Q 1275 525 1575 525 
Q 1875 525 2125 775 
Q 2375 1025 2375 1525 
z
" transform="scale(0.015625)"/>
       <path id="SimHei-79" d="M 2900 2925 
L 1750 -100 
Q 1650 -450 1450 -625 
Q 1250 -800 950 -800 
Q 825 -800 712 -787 
Q 600 -775 500 -725 
L 500 -225 
Q 600 -275 700 -300 
Q 800 -325 875 -325 
Q 1075 -325 1150 -262 
Q 1225 -200 1300 25 
L 200 2925 
L 750 2925 
L 1550 725 
L 1575 725 
L 2350 2925 
L 2900 2925 
z
" transform="scale(0.015625)"/>
       <path id="SimHei-72" d="M 2500 2425 
Q 2025 2500 1700 2287 
Q 1375 2075 1150 1550 
L 1150 125 
L 650 125 
L 650 2925 
L 1150 2925 
L 1150 2200 
Q 1375 2600 1712 2787 
Q 2050 2975 2500 2975 
L 2500 2425 
z
" transform="scale(0.015625)"/>
       <path id="SimHei-5f" d="M 3150 -850 
L 0 -850 
L 0 -550 
L 3150 -550 
L 3150 -850 
z
" transform="scale(0.015625)"/>
       <path id="SimHei-74" d="M 2750 200 
Q 2625 150 2462 112 
Q 2300 75 2025 75 
Q 1575 75 1300 325 
Q 1025 575 1025 1025 
L 1025 2525 
L 175 2525 
L 175 2925 
L 1025 2925 
L 1025 3900 
L 1525 3900 
L 1525 2925 
L 2550 2925 
L 2550 2525 
L 1525 2525 
L 1525 1000 
Q 1525 800 1625 662 
Q 1725 525 2000 525 
Q 2275 525 2450 575 
Q 2625 625 2750 700 
L 2750 200 
z
" transform="scale(0.015625)"/>
      </defs>
      <use xlink:href="#SimHei-65"/>
      <use xlink:href="#SimHei-6d" x="50"/>
      <use xlink:href="#SimHei-70" x="100"/>
      <use xlink:href="#SimHei-6c" x="150"/>
      <use xlink:href="#SimHei-6f" x="200"/>
      <use xlink:href="#SimHei-79" x="250"/>
      <use xlink:href="#SimHei-65" x="300"/>
      <use xlink:href="#SimHei-72" x="350"/>
      <use xlink:href="#SimHei-5f" x="400"/>
      <use xlink:href="#SimHei-74" x="450"/>
      <use xlink:href="#SimHei-79" x="500"/>
      <use xlink:href="#SimHei-70" x="550"/>
      <use xlink:href="#SimHei-65" x="600"/>
     </g>
    </g>
   </g>
   <g id="matplotlib.axis_2">
    <g id="ytick_1">
     <g id="line2d_7">
      <defs>
       <path id="m335062c003" d="M 0 0 
L -3.5 0 
" style="stroke: #000000; stroke-width: 0.8"/>
      </defs>
      <g>
       <use xlink:href="#m335062c003" x="57.6" y="307.584" style="stroke: #000000; stroke-width: 0.8"/>
      </g>
     </g>
     <g id="text_8">
      <!-- 0 -->
      <g transform="translate(45.6 311.0215)scale(0.1 -0.1)">
       <defs>
        <path id="SimHei-30" d="M 225 2537 
Q 250 3200 412 3587 
Q 575 3975 875 4225 
Q 1175 4475 1612 4475 
Q 2050 4475 2375 4112 
Q 2700 3750 2800 3200 
Q 2900 2650 2862 1937 
Q 2825 1225 2612 775 
Q 2400 325 1975 150 
Q 1550 -25 1125 187 
Q 700 400 525 750 
Q 350 1100 275 1487 
Q 200 1875 225 2537 
z
M 750 2687 
Q 675 2000 800 1462 
Q 925 925 1212 700 
Q 1500 475 1800 612 
Q 2100 750 2237 1162 
Q 2375 1575 2375 2062 
Q 2375 2550 2337 2950 
Q 2300 3350 2112 3675 
Q 1925 4000 1612 4012 
Q 1300 4025 1062 3700 
Q 825 3375 750 2687 
z
" transform="scale(0.015625)"/>
       </defs>
       <use xlink:href="#SimHei-30"/>
      </g>
     </g>
    </g>
    <g id="ytick_2">
     <g id="line2d_8">
      <g>
       <use xlink:href="#m335062c003" x="57.6" y="270.37142" style="stroke: #000000; stroke-width: 0.8"/>
      </g>
     </g>
     <g id="text_9">
      <!-- 50000 -->
      <g transform="translate(25.6 273.80892)scale(0.1 -0.1)">
       <defs>
        <path id="SimHei-35" d="M 550 1325 
Q 725 650 1150 575 
Q 1575 500 1837 662 
Q 2100 825 2212 1087 
Q 2325 1350 2312 1675 
Q 2300 2000 2137 2225 
Q 1975 2450 1725 2525 
Q 1475 2600 1162 2525 
Q 850 2450 650 2175 
L 225 2225 
Q 275 2375 700 4375 
L 2675 4375 
L 2675 3925 
L 1075 3925 
Q 950 3250 825 2850 
Q 1200 3025 1525 3012 
Q 1850 3000 2150 2862 
Q 2450 2725 2587 2487 
Q 2725 2250 2787 2012 
Q 2850 1775 2837 1500 
Q 2825 1225 2725 937 
Q 2625 650 2425 462 
Q 2225 275 1937 162 
Q 1650 50 1275 75 
Q 900 100 562 350 
Q 225 600 100 1200 
L 550 1325 
z
" transform="scale(0.015625)"/>
       </defs>
       <use xlink:href="#SimHei-35"/>
       <use xlink:href="#SimHei-30" x="50"/>
       <use xlink:href="#SimHei-30" x="100"/>
       <use xlink:href="#SimHei-30" x="150"/>
       <use xlink:href="#SimHei-30" x="200"/>
      </g>
     </g>
    </g>
    <g id="ytick_3">
     <g id="line2d_9">
      <g>
       <use xlink:href="#m335062c003" x="57.6" y="233.158839" style="stroke: #000000; stroke-width: 0.8"/>
      </g>
     </g>
     <g id="text_10">
      <!-- 100000 -->
      <g transform="translate(20.6 236.596339)scale(0.1 -0.1)">
       <defs>
        <path id="SimHei-31" d="M 1400 3600 
Q 1075 3275 575 2975 
L 575 3450 
Q 1200 3875 1600 4450 
L 1900 4450 
L 1900 150 
L 1400 150 
L 1400 3600 
z
" transform="scale(0.015625)"/>
       </defs>
       <use xlink:href="#SimHei-31"/>
       <use xlink:href="#SimHei-30" x="50"/>
       <use xlink:href="#SimHei-30" x="100"/>
       <use xlink:href="#SimHei-30" x="150"/>
       <use xlink:href="#SimHei-30" x="200"/>
       <use xlink:href="#SimHei-30" x="250"/>
      </g>
     </g>
    </g>
    <g id="ytick_4">
     <g id="line2d_10">
      <g>
       <use xlink:href="#m335062c003" x="57.6" y="195.946259" style="stroke: #000000; stroke-width: 0.8"/>
      </g>
     </g>
     <g id="text_11">
      <!-- 150000 -->
      <g transform="translate(20.6 199.383759)scale(0.1 -0.1)">
       <use xlink:href="#SimHei-31"/>
       <use xlink:href="#SimHei-35" x="50"/>
       <use xlink:href="#SimHei-30" x="100"/>
       <use xlink:href="#SimHei-30" x="150"/>
       <use xlink:href="#SimHei-30" x="200"/>
       <use xlink:href="#SimHei-30" x="250"/>
      </g>
     </g>
    </g>
    <g id="ytick_5">
     <g id="line2d_11">
      <g>
       <use xlink:href="#m335062c003" x="57.6" y="158.733678" style="stroke: #000000; stroke-width: 0.8"/>
      </g>
     </g>
     <g id="text_12">
      <!-- 200000 -->
      <g transform="translate(20.6 162.171178)scale(0.1 -0.1)">
       <defs>
        <path id="SimHei-32" d="M 300 250 
Q 325 625 650 925 
Q 975 1225 1475 1862 
Q 1975 2500 2125 2850 
Q 2275 3200 2237 3450 
Q 2200 3700 2000 3862 
Q 1800 4025 1537 4000 
Q 1275 3975 1037 3800 
Q 800 3625 675 3275 
L 200 3350 
Q 400 3925 712 4187 
Q 1025 4450 1450 4475 
Q 1700 4500 1900 4462 
Q 2100 4425 2312 4287 
Q 2525 4150 2662 3875 
Q 2800 3600 2762 3212 
Q 2725 2825 2375 2287 
Q 2025 1750 1025 600 
L 2825 600 
L 2825 150 
L 300 150 
L 300 250 
z
" transform="scale(0.015625)"/>
       </defs>
       <use xlink:href="#SimHei-32"/>
       <use xlink:href="#SimHei-30" x="50"/>
       <use xlink:href="#SimHei-30" x="100"/>
       <use xlink:href="#SimHei-30" x="150"/>
       <use xlink:href="#SimHei-30" x="200"/>
       <use xlink:href="#SimHei-30" x="250"/>
      </g>
     </g>
    </g>
    <g id="ytick_6">
     <g id="line2d_12">
      <g>
       <use xlink:href="#m335062c003" x="57.6" y="121.521098" style="stroke: #000000; stroke-width: 0.8"/>
      </g>
     </g>
     <g id="text_13">
      <!-- 250000 -->
      <g transform="translate(20.6 124.958598)scale(0.1 -0.1)">
       <use xlink:href="#SimHei-32"/>
       <use xlink:href="#SimHei-35" x="50"/>
       <use xlink:href="#SimHei-30" x="100"/>
       <use xlink:href="#SimHei-30" x="150"/>
       <use xlink:href="#SimHei-30" x="200"/>
       <use xlink:href="#SimHei-30" x="250"/>
      </g>
     </g>
    </g>
    <g id="ytick_7">
     <g id="line2d_13">
      <g>
       <use xlink:href="#m335062c003" x="57.6" y="84.308518" style="stroke: #000000; stroke-width: 0.8"/>
      </g>
     </g>
     <g id="text_14">
      <!-- 300000 -->
      <g transform="translate(20.6 87.746018)scale(0.1 -0.1)">
       <defs>
        <path id="SimHei-33" d="M 250 1225 
L 700 1300 
Q 800 975 1025 762 
Q 1250 550 1587 562 
Q 1925 575 2125 837 
Q 2325 1100 2300 1437 
Q 2275 1775 2037 1962 
Q 1800 2150 1275 2225 
L 1275 2550 
Q 1800 2600 2037 2825 
Q 2275 3050 2250 3412 
Q 2225 3775 1925 3937 
Q 1625 4100 1287 3975 
Q 950 3850 750 3275 
L 300 3350 
Q 450 3800 712 4100 
Q 975 4400 1425 4450 
Q 1875 4500 2212 4337 
Q 2550 4175 2687 3837 
Q 2825 3500 2725 3100 
Q 2625 2700 2150 2400 
Q 2500 2250 2687 1950 
Q 2875 1650 2812 1162 
Q 2750 675 2375 375 
Q 2000 75 1525 87 
Q 1050 100 700 387 
Q 350 675 250 1225 
z
" transform="scale(0.015625)"/>
       </defs>
       <use xlink:href="#SimHei-33"/>
       <use xlink:href="#SimHei-30" x="50"/>
       <use xlink:href="#SimHei-30" x="100"/>
       <use xlink:href="#SimHei-30" x="150"/>
       <use xlink:href="#SimHei-30" x="200"/>
       <use xlink:href="#SimHei-30" x="250"/>
      </g>
     </g>
    </g>
    <g id="ytick_8">
     <g id="line2d_14">
      <g>
       <use xlink:href="#m335062c003" x="57.6" y="47.095937" style="stroke: #000000; stroke-width: 0.8"/>
      </g>
     </g>
     <g id="text_15">
      <!-- 350000 -->
      <g transform="translate(20.6 50.533437)scale(0.1 -0.1)">
       <use xlink:href="#SimHei-33"/>
       <use xlink:href="#SimHei-35" x="50"/>
       <use xlink:href="#SimHei-30" x="100"/>
       <use xlink:href="#SimHei-30" x="150"/>
       <use xlink:href="#SimHei-30" x="200"/>
       <use xlink:href="#SimHei-30" x="250"/>
      </g>
     </g>
    </g>
   </g>
   <g id="patch_15">
    <path d="M 57.6 307.584 
L 57.6 41.472 
" style="fill: none; stroke: #000000; stroke-width: 0.8; stroke-linejoin: miter; stroke-linecap: square"/>
   </g>
   <g id="patch_16">
    <path d="M 414.72 307.584 
L 414.72 41.472 
" style="fill: none; stroke: #000000; stroke-width: 0.8; stroke-linejoin: miter; stroke-linecap: square"/>
   </g>
   <g id="patch_17">
    <path d="M 57.6 307.584 
L 414.72 307.584 
" style="fill: none; stroke: #000000; stroke-width: 0.8; stroke-linejoin: miter; stroke-linecap: square"/>
   </g>
   <g id="patch_18">
    <path d="M 57.6 41.472 
L 414.72 41.472 
" style="fill: none; stroke: #000000; stroke-width: 0.8; stroke-linejoin: miter; stroke-linecap: square"/>
   </g>
   <g id="text_16">
    <!-- employer_type -->
    <g transform="translate(197.16 35.472)scale(0.12 -0.12)">
     <use xlink:href="#SimHei-65"/>
     <use xlink:href="#SimHei-6d" x="50"/>
     <use xlink:href="#SimHei-70" x="100"/>
     <use xlink:href="#SimHei-6c" x="150"/>
     <use xlink:href="#SimHei-6f" x="200"/>
     <use xlink:href="#SimHei-79" x="250"/>
     <use xlink:href="#SimHei-65" x="300"/>
     <use xlink:href="#SimHei-72" x="350"/>
     <use xlink:href="#SimHei-5f" x="400"/>
     <use xlink:href="#SimHei-74" x="450"/>
     <use xlink:href="#SimHei-79" x="500"/>
     <use xlink:href="#SimHei-70" x="550"/>
     <use xlink:href="#SimHei-65" x="600"/>
    </g>
   </g>
   <g id="legend_1">
    <g id="patch_19">
     <path d="M 358.72 89.097 
L 407.72 89.097 
Q 409.72 89.097 409.72 87.097 
L 409.72 48.472 
Q 409.72 46.472 407.72 46.472 
L 358.72 46.472 
Q 356.72 46.472 356.72 48.472 
L 356.72 87.097 
Q 356.72 89.097 358.72 89.097 
z
" style="fill: #ffffff; opacity: 0.8; stroke: #cccccc; stroke-linejoin: miter"/>
    </g>
    <g id="text_17">
     <!-- isDefault -->
     <g transform="translate(360.72 57.347)scale(0.1 -0.1)">
      <defs>
       <path id="SimHei-69" d="M 1800 3725 
L 1300 3725 
L 1300 4375 
L 1800 4375 
L 1800 3725 
z
M 1800 125 
L 1300 125 
L 1300 2925 
L 1800 2925 
L 1800 125 
z
" transform="scale(0.015625)"/>
       <path id="SimHei-73" d="M 2750 900 
Q 2750 500 2437 287 
Q 2125 75 1650 75 
Q 1050 75 725 312 
Q 400 550 400 1000 
L 900 1000 
Q 900 700 1112 600 
Q 1325 500 1625 500 
Q 1925 500 2075 612 
Q 2225 725 2225 900 
Q 2225 1025 2100 1150 
Q 1975 1275 1475 1350 
Q 900 1425 687 1637 
Q 475 1850 475 2200 
Q 475 2500 762 2737 
Q 1050 2975 1600 2975 
Q 2100 2975 2387 2750 
Q 2675 2525 2675 2150 
L 2175 2150 
Q 2175 2375 2012 2462 
Q 1850 2550 1600 2550 
Q 1275 2550 1137 2437 
Q 1000 2325 1000 2175 
Q 1000 2000 1125 1900 
Q 1250 1800 1650 1750 
Q 2300 1650 2525 1437 
Q 2750 1225 2750 900 
z
" transform="scale(0.015625)"/>
       <path id="SimHei-44" d="M 2925 2250 
Q 2925 1100 2437 612 
Q 1950 125 1125 125 
L 275 125 
L 275 4400 
L 1125 4400 
Q 2050 4400 2487 3900 
Q 2925 3400 2925 2250 
z
M 2325 2250 
Q 2325 3175 2025 3550 
Q 1725 3925 1125 3925 
L 850 3925 
L 850 600 
L 1125 600 
Q 1725 600 2025 962 
Q 2325 1325 2325 2250 
z
" transform="scale(0.015625)"/>
       <path id="SimHei-66" d="M 2850 3825 
Q 2725 3900 2550 3950 
Q 2375 4000 2100 4000 
Q 1825 4000 1725 3862 
Q 1625 3725 1625 3525 
L 1625 2925 
L 2650 2925 
L 2650 2525 
L 1625 2525 
L 1625 125 
L 1125 125 
L 1125 2525 
L 275 2525 
L 275 2925 
L 1125 2925 
L 1125 3500 
Q 1125 3950 1400 4200 
Q 1675 4450 2125 4450 
Q 2400 4450 2562 4412 
Q 2725 4375 2850 4325 
L 2850 3825 
z
" transform="scale(0.015625)"/>
       <path id="SimHei-61" d="M 2875 125 
L 2275 125 
Q 2225 175 2200 262 
Q 2175 350 2175 475 
Q 2000 275 1750 175 
Q 1500 75 1225 75 
Q 825 75 550 275 
Q 275 475 275 850 
Q 275 1225 525 1450 
Q 775 1675 1300 1750 
Q 1650 1800 1912 1875 
Q 2175 1950 2175 2075 
Q 2175 2225 2062 2375 
Q 1950 2525 1575 2525 
Q 1275 2525 1137 2412 
Q 1000 2300 950 2100 
L 400 2100 
Q 450 2500 762 2737 
Q 1075 2975 1575 2975 
Q 2125 2975 2400 2725 
Q 2675 2475 2675 2025 
L 2675 650 
Q 2675 500 2725 375 
Q 2775 250 2875 125 
z
M 2175 1050 
L 2175 1550 
Q 2025 1500 1887 1462 
Q 1750 1425 1425 1375 
Q 1050 1325 937 1200 
Q 825 1075 825 900 
Q 825 750 937 637 
Q 1050 525 1275 525 
Q 1500 525 1762 650 
Q 2025 775 2175 1050 
z
" transform="scale(0.015625)"/>
       <path id="SimHei-75" d="M 2800 125 
L 2300 125 
L 2300 650 
Q 2100 375 1862 225 
Q 1625 75 1250 75 
Q 800 75 575 325 
Q 350 575 350 950 
L 350 2925 
L 850 2925 
L 850 1125 
Q 850 825 1000 650 
Q 1150 475 1400 475 
Q 1725 475 2012 812 
Q 2300 1150 2300 1650 
L 2300 2925 
L 2800 2925 
L 2800 125 
z
" transform="scale(0.015625)"/>
      </defs>
      <use xlink:href="#SimHei-69"/>
      <use xlink:href="#SimHei-73" x="50"/>
      <use xlink:href="#SimHei-44" x="100"/>
      <use xlink:href="#SimHei-65" x="150"/>
      <use xlink:href="#SimHei-66" x="200"/>
      <use xlink:href="#SimHei-61" x="250"/>
      <use xlink:href="#SimHei-75" x="300"/>
      <use xlink:href="#SimHei-6c" x="350"/>
      <use xlink:href="#SimHei-74" x="400"/>
     </g>
    </g>
    <g id="patch_20">
     <path d="M 366.72 70.597 
L 386.72 70.597 
L 386.72 63.597 
L 366.72 63.597 
z
" style="fill: #1f77b4"/>
    </g>
    <g id="text_18">
     <!-- 0 -->
     <g transform="translate(394.72 70.597)scale(0.1 -0.1)">
      <use xlink:href="#SimHei-30"/>
     </g>
    </g>
    <g id="patch_21">
     <path d="M 366.72 83.847 
L 386.72 83.847 
L 386.72 76.847 
L 366.72 76.847 
z
" style="fill: #ff7f0e"/>
    </g>
    <g id="text_19">
     <!-- 1 -->
     <g transform="translate(394.72 83.847)scale(0.1 -0.1)">
      <use xlink:href="#SimHei-31"/>
     </g>
    </g>
   </g>
  </g>
 </g>
 <defs>
  <clipPath id="p8de0259425">
   <rect x="57.6" y="41.472" width="357.12" height="266.112"/>
  </clipPath>
 </defs>
</svg>
