<?xml version="1.0" encoding="utf-8" standalone="no"?>
<!DOCTYPE svg PUBLIC "-//W3C//DTD SVG 1.1//EN"
  "http://www.w3.org/Graphics/SVG/1.1/DTD/svg11.dtd">
<svg xmlns:xlink="http://www.w3.org/1999/xlink" width="720pt" height="360pt" viewBox="0 0 720 360" xmlns="http://www.w3.org/2000/svg" version="1.1">
 <metadata>
  <rdf:RDF xmlns:dc="http://purl.org/dc/elements/1.1/" xmlns:cc="http://creativecommons.org/ns#" xmlns:rdf="http://www.w3.org/1999/02/22-rdf-syntax-ns#">
   <cc:Work>
    <dc:type rdf:resource="http://purl.org/dc/dcmitype/StillImage"/>
    <dc:date>2022-10-29T15:55:44.004813</dc:date>
    <dc:format>image/svg+xml</dc:format>
    <dc:creator>
     <cc:Agent>
      <dc:title>Matplotlib v3.5.1, https://matplotlib.org/</dc:title>
     </cc:Agent>
    </dc:creator>
   </cc:Work>
  </rdf:RDF>
 </metadata>
 <defs>
  <style type="text/css">*{stroke-linejoin: round; stroke-linecap: butt}</style>
 </defs>
 <g id="figure_1">
  <g id="patch_1">
   <path d="M 0 360 
L 720 360 
L 720 0 
L 0 0 
z
" style="fill: #ffffff"/>
  </g>
  <g id="axes_1">
   <g id="patch_2">
    <path d="M 90 320.4 
L 648 320.4 
L 648 43.2 
L 90 43.2 
z
" style="fill: #ffffff"/>
   </g>
   <g id="matplotlib.axis_1">
    <g id="xtick_1">
     <g id="line2d_1">
      <defs>
       <path id="m8771291701" d="M 0 0 
L 0 3.5 
" style="stroke: #000000; stroke-width: 0.8"/>
      </defs>
      <g>
       <use xlink:href="#m8771291701" x="155.16702" y="320.4" style="stroke: #000000; stroke-width: 0.8"/>
      </g>
     </g>
     <g id="text_1">
      <!-- 0 -->
      <g transform="translate(152.66702 334.275)scale(0.1 -0.1)">
       <defs>
        <path id="SimHei-30" d="M 225 2537 
Q 250 3200 412 3587 
Q 575 3975 875 4225 
Q 1175 4475 1612 4475 
Q 2050 4475 2375 4112 
Q 2700 3750 2800 3200 
Q 2900 2650 2862 1937 
Q 2825 1225 2612 775 
Q 2400 325 1975 150 
Q 1550 -25 1125 187 
Q 700 400 525 750 
Q 350 1100 275 1487 
Q 200 1875 225 2537 
z
M 750 2687 
Q 675 2000 800 1462 
Q 925 925 1212 700 
Q 1500 475 1800 612 
Q 2100 750 2237 1162 
Q 2375 1575 2375 2062 
Q 2375 2550 2337 2950 
Q 2300 3350 2112 3675 
Q 1925 4000 1612 4012 
Q 1300 4025 1062 3700 
Q 825 3375 750 2687 
z
" transform="scale(0.015625)"/>
       </defs>
       <use xlink:href="#SimHei-30"/>
      </g>
     </g>
    </g>
    <g id="xtick_2">
     <g id="line2d_2">
      <g>
       <use xlink:href="#m8771291701" x="224.778642" y="320.4" style="stroke: #000000; stroke-width: 0.8"/>
      </g>
     </g>
     <g id="text_2">
      <!-- 250 -->
      <g transform="translate(217.278642 334.275)scale(0.1 -0.1)">
       <defs>
        <path id="SimHei-32" d="M 300 250 
Q 325 625 650 925 
Q 975 1225 1475 1862 
Q 1975 2500 2125 2850 
Q 2275 3200 2237 3450 
Q 2200 3700 2000 3862 
Q 1800 4025 1537 4000 
Q 1275 3975 1037 3800 
Q 800 3625 675 3275 
L 200 3350 
Q 400 3925 712 4187 
Q 1025 4450 1450 4475 
Q 1700 4500 1900 4462 
Q 2100 4425 2312 4287 
Q 2525 4150 2662 3875 
Q 2800 3600 2762 3212 
Q 2725 2825 2375 2287 
Q 2025 1750 1025 600 
L 2825 600 
L 2825 150 
L 300 150 
L 300 250 
z
" transform="scale(0.015625)"/>
        <path id="SimHei-35" d="M 550 1325 
Q 725 650 1150 575 
Q 1575 500 1837 662 
Q 2100 825 2212 1087 
Q 2325 1350 2312 1675 
Q 2300 2000 2137 2225 
Q 1975 2450 1725 2525 
Q 1475 2600 1162 2525 
Q 850 2450 650 2175 
L 225 2225 
Q 275 2375 700 4375 
L 2675 4375 
L 2675 3925 
L 1075 3925 
Q 950 3250 825 2850 
Q 1200 3025 1525 3012 
Q 1850 3000 2150 2862 
Q 2450 2725 2587 2487 
Q 2725 2250 2787 2012 
Q 2850 1775 2837 1500 
Q 2825 1225 2725 937 
Q 2625 650 2425 462 
Q 2225 275 1937 162 
Q 1650 50 1275 75 
Q 900 100 562 350 
Q 225 600 100 1200 
L 550 1325 
z
" transform="scale(0.015625)"/>
       </defs>
       <use xlink:href="#SimHei-32"/>
       <use xlink:href="#SimHei-35" x="50"/>
       <use xlink:href="#SimHei-30" x="100"/>
      </g>
     </g>
    </g>
    <g id="xtick_3">
     <g id="line2d_3">
      <g>
       <use xlink:href="#m8771291701" x="294.390264" y="320.4" style="stroke: #000000; stroke-width: 0.8"/>
      </g>
     </g>
     <g id="text_3">
      <!-- 500 -->
      <g transform="translate(286.890264 334.275)scale(0.1 -0.1)">
       <use xlink:href="#SimHei-35"/>
       <use xlink:href="#SimHei-30" x="50"/>
       <use xlink:href="#SimHei-30" x="100"/>
      </g>
     </g>
    </g>
    <g id="xtick_4">
     <g id="line2d_4">
      <g>
       <use xlink:href="#m8771291701" x="364.001886" y="320.4" style="stroke: #000000; stroke-width: 0.8"/>
      </g>
     </g>
     <g id="text_4">
      <!-- 750 -->
      <g transform="translate(356.501886 334.275)scale(0.1 -0.1)">
       <defs>
        <path id="SimHei-37" d="M 850 150 
Q 1300 2050 2425 3925 
L 275 3925 
L 275 4375 
L 2950 4375 
L 2950 3950 
Q 1775 2050 1400 150 
L 850 150 
z
" transform="scale(0.015625)"/>
       </defs>
       <use xlink:href="#SimHei-37"/>
       <use xlink:href="#SimHei-35" x="50"/>
       <use xlink:href="#SimHei-30" x="100"/>
      </g>
     </g>
    </g>
    <g id="xtick_5">
     <g id="line2d_5">
      <g>
       <use xlink:href="#m8771291701" x="433.613507" y="320.4" style="stroke: #000000; stroke-width: 0.8"/>
      </g>
     </g>
     <g id="text_5">
      <!-- 1000 -->
      <g transform="translate(423.613507 334.275)scale(0.1 -0.1)">
       <defs>
        <path id="SimHei-31" d="M 1400 3600 
Q 1075 3275 575 2975 
L 575 3450 
Q 1200 3875 1600 4450 
L 1900 4450 
L 1900 150 
L 1400 150 
L 1400 3600 
z
" transform="scale(0.015625)"/>
       </defs>
       <use xlink:href="#SimHei-31"/>
       <use xlink:href="#SimHei-30" x="50"/>
       <use xlink:href="#SimHei-30" x="100"/>
       <use xlink:href="#SimHei-30" x="150"/>
      </g>
     </g>
    </g>
    <g id="xtick_6">
     <g id="line2d_6">
      <g>
       <use xlink:href="#m8771291701" x="503.225129" y="320.4" style="stroke: #000000; stroke-width: 0.8"/>
      </g>
     </g>
     <g id="text_6">
      <!-- 1250 -->
      <g transform="translate(493.225129 334.275)scale(0.1 -0.1)">
       <use xlink:href="#SimHei-31"/>
       <use xlink:href="#SimHei-32" x="50"/>
       <use xlink:href="#SimHei-35" x="100"/>
       <use xlink:href="#SimHei-30" x="150"/>
      </g>
     </g>
    </g>
    <g id="xtick_7">
     <g id="line2d_7">
      <g>
       <use xlink:href="#m8771291701" x="572.836751" y="320.4" style="stroke: #000000; stroke-width: 0.8"/>
      </g>
     </g>
     <g id="text_7">
      <!-- 1500 -->
      <g transform="translate(562.836751 334.275)scale(0.1 -0.1)">
       <use xlink:href="#SimHei-31"/>
       <use xlink:href="#SimHei-35" x="50"/>
       <use xlink:href="#SimHei-30" x="100"/>
       <use xlink:href="#SimHei-30" x="150"/>
      </g>
     </g>
    </g>
    <g id="xtick_8">
     <g id="line2d_8">
      <g>
       <use xlink:href="#m8771291701" x="642.448373" y="320.4" style="stroke: #000000; stroke-width: 0.8"/>
      </g>
     </g>
     <g id="text_8">
      <!-- 1750 -->
      <g transform="translate(632.448373 334.275)scale(0.1 -0.1)">
       <use xlink:href="#SimHei-31"/>
       <use xlink:href="#SimHei-37" x="50"/>
       <use xlink:href="#SimHei-35" x="100"/>
       <use xlink:href="#SimHei-30" x="150"/>
      </g>
     </g>
    </g>
    <g id="text_9">
     <!-- monthly_payment -->
     <g transform="translate(331.5 346.4)scale(0.1 -0.1)">
      <defs>
       <path id="SimHei-6d" d="M 3050 125 
L 2550 125 
L 2550 2150 
Q 2550 2300 2500 2400 
Q 2450 2500 2300 2500 
Q 2125 2500 1975 2312 
Q 1825 2125 1825 1825 
L 1825 125 
L 1325 125 
L 1325 2150 
Q 1325 2300 1275 2400 
Q 1225 2500 1075 2500 
Q 900 2500 750 2312 
Q 600 2125 600 1825 
L 600 125 
L 100 125 
L 100 2925 
L 600 2925 
L 600 2550 
Q 725 2750 900 2862 
Q 1075 2975 1275 2975 
Q 1475 2975 1612 2862 
Q 1750 2750 1800 2550 
Q 1925 2750 2087 2862 
Q 2250 2975 2450 2975 
Q 2750 2975 2900 2812 
Q 3050 2650 3050 2350 
L 3050 125 
z
" transform="scale(0.015625)"/>
       <path id="SimHei-6f" d="M 2925 1525 
Q 2925 875 2525 475 
Q 2125 75 1575 75 
Q 1025 75 625 475 
Q 225 875 225 1525 
Q 225 2175 625 2575 
Q 1025 2975 1575 2975 
Q 2125 2975 2525 2575 
Q 2925 2175 2925 1525 
z
M 2375 1525 
Q 2375 2025 2125 2275 
Q 1875 2525 1575 2525 
Q 1275 2525 1025 2275 
Q 775 2025 775 1525 
Q 775 1025 1025 775 
Q 1275 525 1575 525 
Q 1875 525 2125 775 
Q 2375 1025 2375 1525 
z
" transform="scale(0.015625)"/>
       <path id="SimHei-6e" d="M 2800 125 
L 2300 125 
L 2300 1925 
Q 2300 2225 2150 2400 
Q 2000 2575 1750 2575 
Q 1425 2575 1137 2237 
Q 850 1900 850 1400 
L 850 125 
L 350 125 
L 350 2925 
L 850 2925 
L 850 2400 
Q 1050 2675 1287 2825 
Q 1525 2975 1900 2975 
Q 2350 2975 2575 2725 
Q 2800 2475 2800 2100 
L 2800 125 
z
" transform="scale(0.015625)"/>
       <path id="SimHei-74" d="M 2750 200 
Q 2625 150 2462 112 
Q 2300 75 2025 75 
Q 1575 75 1300 325 
Q 1025 575 1025 1025 
L 1025 2525 
L 175 2525 
L 175 2925 
L 1025 2925 
L 1025 3900 
L 1525 3900 
L 1525 2925 
L 2550 2925 
L 2550 2525 
L 1525 2525 
L 1525 1000 
Q 1525 800 1625 662 
Q 1725 525 2000 525 
Q 2275 525 2450 575 
Q 2625 625 2750 700 
L 2750 200 
z
" transform="scale(0.015625)"/>
       <path id="SimHei-68" d="M 2800 125 
L 2300 125 
L 2300 1925 
Q 2300 2225 2150 2400 
Q 2000 2575 1750 2575 
Q 1425 2575 1137 2237 
Q 850 1900 850 1400 
L 850 125 
L 350 125 
L 350 4400 
L 850 4400 
L 850 2400 
Q 1050 2675 1287 2825 
Q 1525 2975 1900 2975 
Q 2350 2975 2575 2725 
Q 2800 2475 2800 2100 
L 2800 125 
z
" transform="scale(0.015625)"/>
       <path id="SimHei-6c" d="M 1825 125 
L 1325 125 
L 1325 4400 
L 1825 4400 
L 1825 125 
z
" transform="scale(0.015625)"/>
       <path id="SimHei-79" d="M 2900 2925 
L 1750 -100 
Q 1650 -450 1450 -625 
Q 1250 -800 950 -800 
Q 825 -800 712 -787 
Q 600 -775 500 -725 
L 500 -225 
Q 600 -275 700 -300 
Q 800 -325 875 -325 
Q 1075 -325 1150 -262 
Q 1225 -200 1300 25 
L 200 2925 
L 750 2925 
L 1550 725 
L 1575 725 
L 2350 2925 
L 2900 2925 
z
" transform="scale(0.015625)"/>
       <path id="SimHei-5f" d="M 3150 -850 
L 0 -850 
L 0 -550 
L 3150 -550 
L 3150 -850 
z
" transform="scale(0.015625)"/>
       <path id="SimHei-70" d="M 2825 1525 
Q 2825 800 2475 425 
Q 2125 50 1625 50 
Q 1350 50 1150 162 
Q 950 275 800 500 
L 800 -800 
L 300 -800 
L 300 2925 
L 800 2925 
L 800 2550 
Q 950 2775 1150 2875 
Q 1350 2975 1625 2975 
Q 2125 2975 2475 2612 
Q 2825 2250 2825 1525 
z
M 2275 1525 
Q 2275 2000 2087 2262 
Q 1900 2525 1525 2525 
Q 1225 2525 1012 2262 
Q 800 2000 800 1525 
Q 800 1050 1012 775 
Q 1225 500 1525 500 
Q 1900 500 2087 775 
Q 2275 1050 2275 1525 
z
" transform="scale(0.015625)"/>
       <path id="SimHei-61" d="M 2875 125 
L 2275 125 
Q 2225 175 2200 262 
Q 2175 350 2175 475 
Q 2000 275 1750 175 
Q 1500 75 1225 75 
Q 825 75 550 275 
Q 275 475 275 850 
Q 275 1225 525 1450 
Q 775 1675 1300 1750 
Q 1650 1800 1912 1875 
Q 2175 1950 2175 2075 
Q 2175 2225 2062 2375 
Q 1950 2525 1575 2525 
Q 1275 2525 1137 2412 
Q 1000 2300 950 2100 
L 400 2100 
Q 450 2500 762 2737 
Q 1075 2975 1575 2975 
Q 2125 2975 2400 2725 
Q 2675 2475 2675 2025 
L 2675 650 
Q 2675 500 2725 375 
Q 2775 250 2875 125 
z
M 2175 1050 
L 2175 1550 
Q 2025 1500 1887 1462 
Q 1750 1425 1425 1375 
Q 1050 1325 937 1200 
Q 825 1075 825 900 
Q 825 750 937 637 
Q 1050 525 1275 525 
Q 1500 525 1762 650 
Q 2025 775 2175 1050 
z
" transform="scale(0.015625)"/>
       <path id="SimHei-65" d="M 2850 1075 
Q 2800 625 2450 350 
Q 2100 75 1625 75 
Q 1025 75 637 462 
Q 250 850 250 1525 
Q 250 2200 637 2587 
Q 1025 2975 1625 2975 
Q 2150 2975 2487 2637 
Q 2825 2300 2825 1525 
L 800 1525 
Q 800 975 1037 750 
Q 1275 525 1625 525 
Q 1900 525 2075 662 
Q 2250 800 2300 1075 
L 2850 1075 
z
M 2250 1925 
Q 2200 2275 2025 2412 
Q 1850 2550 1575 2550 
Q 1325 2550 1125 2412 
Q 925 2275 825 1925 
L 2250 1925 
z
" transform="scale(0.015625)"/>
      </defs>
      <use xlink:href="#SimHei-6d"/>
      <use xlink:href="#SimHei-6f" x="50"/>
      <use xlink:href="#SimHei-6e" x="100"/>
      <use xlink:href="#SimHei-74" x="150"/>
      <use xlink:href="#SimHei-68" x="200"/>
      <use xlink:href="#SimHei-6c" x="250"/>
      <use xlink:href="#SimHei-79" x="300"/>
      <use xlink:href="#SimHei-5f" x="350"/>
      <use xlink:href="#SimHei-70" x="400"/>
      <use xlink:href="#SimHei-61" x="450"/>
      <use xlink:href="#SimHei-79" x="500"/>
      <use xlink:href="#SimHei-6d" x="550"/>
      <use xlink:href="#SimHei-65" x="600"/>
      <use xlink:href="#SimHei-6e" x="650"/>
      <use xlink:href="#SimHei-74" x="700"/>
     </g>
    </g>
   </g>
   <g id="matplotlib.axis_2">
    <g id="ytick_1">
     <g id="line2d_9">
      <defs>
       <path id="m2ebe7e403b" d="M 0 0 
L -3.5 0 
" style="stroke: #000000; stroke-width: 0.8"/>
      </defs>
      <g>
       <use xlink:href="#m2ebe7e403b" x="90" y="320.4" style="stroke: #000000; stroke-width: 0.8"/>
      </g>
     </g>
     <g id="text_10">
      <!-- 0.00000 -->
      <g transform="translate(48 323.8375)scale(0.1 -0.1)">
       <defs>
        <path id="SimHei-2e" d="M 1075 125 
L 500 125 
L 500 675 
L 1075 675 
L 1075 125 
z
" transform="scale(0.015625)"/>
       </defs>
       <use xlink:href="#SimHei-30"/>
       <use xlink:href="#SimHei-2e" x="50"/>
       <use xlink:href="#SimHei-30" x="100"/>
       <use xlink:href="#SimHei-30" x="150"/>
       <use xlink:href="#SimHei-30" x="200"/>
       <use xlink:href="#SimHei-30" x="250"/>
       <use xlink:href="#SimHei-30" x="300"/>
      </g>
     </g>
    </g>
    <g id="ytick_2">
     <g id="line2d_10">
      <g>
       <use xlink:href="#m2ebe7e403b" x="90" y="288.146678" style="stroke: #000000; stroke-width: 0.8"/>
      </g>
     </g>
     <g id="text_11">
      <!-- 0.00025 -->
      <g transform="translate(48 291.584178)scale(0.1 -0.1)">
       <use xlink:href="#SimHei-30"/>
       <use xlink:href="#SimHei-2e" x="50"/>
       <use xlink:href="#SimHei-30" x="100"/>
       <use xlink:href="#SimHei-30" x="150"/>
       <use xlink:href="#SimHei-30" x="200"/>
       <use xlink:href="#SimHei-32" x="250"/>
       <use xlink:href="#SimHei-35" x="300"/>
      </g>
     </g>
    </g>
    <g id="ytick_3">
     <g id="line2d_11">
      <g>
       <use xlink:href="#m2ebe7e403b" x="90" y="255.893356" style="stroke: #000000; stroke-width: 0.8"/>
      </g>
     </g>
     <g id="text_12">
      <!-- 0.00050 -->
      <g transform="translate(48 259.330856)scale(0.1 -0.1)">
       <use xlink:href="#SimHei-30"/>
       <use xlink:href="#SimHei-2e" x="50"/>
       <use xlink:href="#SimHei-30" x="100"/>
       <use xlink:href="#SimHei-30" x="150"/>
       <use xlink:href="#SimHei-30" x="200"/>
       <use xlink:href="#SimHei-35" x="250"/>
       <use xlink:href="#SimHei-30" x="300"/>
      </g>
     </g>
    </g>
    <g id="ytick_4">
     <g id="line2d_12">
      <g>
       <use xlink:href="#m2ebe7e403b" x="90" y="223.640033" style="stroke: #000000; stroke-width: 0.8"/>
      </g>
     </g>
     <g id="text_13">
      <!-- 0.00075 -->
      <g transform="translate(48 227.077533)scale(0.1 -0.1)">
       <use xlink:href="#SimHei-30"/>
       <use xlink:href="#SimHei-2e" x="50"/>
       <use xlink:href="#SimHei-30" x="100"/>
       <use xlink:href="#SimHei-30" x="150"/>
       <use xlink:href="#SimHei-30" x="200"/>
       <use xlink:href="#SimHei-37" x="250"/>
       <use xlink:href="#SimHei-35" x="300"/>
      </g>
     </g>
    </g>
    <g id="ytick_5">
     <g id="line2d_13">
      <g>
       <use xlink:href="#m2ebe7e403b" x="90" y="191.386711" style="stroke: #000000; stroke-width: 0.8"/>
      </g>
     </g>
     <g id="text_14">
      <!-- 0.00100 -->
      <g transform="translate(48 194.824211)scale(0.1 -0.1)">
       <use xlink:href="#SimHei-30"/>
       <use xlink:href="#SimHei-2e" x="50"/>
       <use xlink:href="#SimHei-30" x="100"/>
       <use xlink:href="#SimHei-30" x="150"/>
       <use xlink:href="#SimHei-31" x="200"/>
       <use xlink:href="#SimHei-30" x="250"/>
       <use xlink:href="#SimHei-30" x="300"/>
      </g>
     </g>
    </g>
    <g id="ytick_6">
     <g id="line2d_14">
      <g>
       <use xlink:href="#m2ebe7e403b" x="90" y="159.133389" style="stroke: #000000; stroke-width: 0.8"/>
      </g>
     </g>
     <g id="text_15">
      <!-- 0.00125 -->
      <g transform="translate(48 162.570889)scale(0.1 -0.1)">
       <use xlink:href="#SimHei-30"/>
       <use xlink:href="#SimHei-2e" x="50"/>
       <use xlink:href="#SimHei-30" x="100"/>
       <use xlink:href="#SimHei-30" x="150"/>
       <use xlink:href="#SimHei-31" x="200"/>
       <use xlink:href="#SimHei-32" x="250"/>
       <use xlink:href="#SimHei-35" x="300"/>
      </g>
     </g>
    </g>
    <g id="ytick_7">
     <g id="line2d_15">
      <g>
       <use xlink:href="#m2ebe7e403b" x="90" y="126.880067" style="stroke: #000000; stroke-width: 0.8"/>
      </g>
     </g>
     <g id="text_16">
      <!-- 0.00150 -->
      <g transform="translate(48 130.317567)scale(0.1 -0.1)">
       <use xlink:href="#SimHei-30"/>
       <use xlink:href="#SimHei-2e" x="50"/>
       <use xlink:href="#SimHei-30" x="100"/>
       <use xlink:href="#SimHei-30" x="150"/>
       <use xlink:href="#SimHei-31" x="200"/>
       <use xlink:href="#SimHei-35" x="250"/>
       <use xlink:href="#SimHei-30" x="300"/>
      </g>
     </g>
    </g>
    <g id="ytick_8">
     <g id="line2d_16">
      <g>
       <use xlink:href="#m2ebe7e403b" x="90" y="94.626744" style="stroke: #000000; stroke-width: 0.8"/>
      </g>
     </g>
     <g id="text_17">
      <!-- 0.00175 -->
      <g transform="translate(48 98.064244)scale(0.1 -0.1)">
       <use xlink:href="#SimHei-30"/>
       <use xlink:href="#SimHei-2e" x="50"/>
       <use xlink:href="#SimHei-30" x="100"/>
       <use xlink:href="#SimHei-30" x="150"/>
       <use xlink:href="#SimHei-31" x="200"/>
       <use xlink:href="#SimHei-37" x="250"/>
       <use xlink:href="#SimHei-35" x="300"/>
      </g>
     </g>
    </g>
    <g id="ytick_9">
     <g id="line2d_17">
      <g>
       <use xlink:href="#m2ebe7e403b" x="90" y="62.373422" style="stroke: #000000; stroke-width: 0.8"/>
      </g>
     </g>
     <g id="text_18">
      <!-- 0.00200 -->
      <g transform="translate(48 65.810922)scale(0.1 -0.1)">
       <use xlink:href="#SimHei-30"/>
       <use xlink:href="#SimHei-2e" x="50"/>
       <use xlink:href="#SimHei-30" x="100"/>
       <use xlink:href="#SimHei-30" x="150"/>
       <use xlink:href="#SimHei-32" x="200"/>
       <use xlink:href="#SimHei-30" x="250"/>
       <use xlink:href="#SimHei-30" x="300"/>
      </g>
     </g>
    </g>
    <g id="text_19">
     <!-- Density -->
     <g transform="translate(42.75 199.3)rotate(-90)scale(0.1 -0.1)">
      <defs>
       <path id="SimHei-44" d="M 2925 2250 
Q 2925 1100 2437 612 
Q 1950 125 1125 125 
L 275 125 
L 275 4400 
L 1125 4400 
Q 2050 4400 2487 3900 
Q 2925 3400 2925 2250 
z
M 2325 2250 
Q 2325 3175 2025 3550 
Q 1725 3925 1125 3925 
L 850 3925 
L 850 600 
L 1125 600 
Q 1725 600 2025 962 
Q 2325 1325 2325 2250 
z
" transform="scale(0.015625)"/>
       <path id="SimHei-73" d="M 2750 900 
Q 2750 500 2437 287 
Q 2125 75 1650 75 
Q 1050 75 725 312 
Q 400 550 400 1000 
L 900 1000 
Q 900 700 1112 600 
Q 1325 500 1625 500 
Q 1925 500 2075 612 
Q 2225 725 2225 900 
Q 2225 1025 2100 1150 
Q 1975 1275 1475 1350 
Q 900 1425 687 1637 
Q 475 1850 475 2200 
Q 475 2500 762 2737 
Q 1050 2975 1600 2975 
Q 2100 2975 2387 2750 
Q 2675 2525 2675 2150 
L 2175 2150 
Q 2175 2375 2012 2462 
Q 1850 2550 1600 2550 
Q 1275 2550 1137 2437 
Q 1000 2325 1000 2175 
Q 1000 2000 1125 1900 
Q 1250 1800 1650 1750 
Q 2300 1650 2525 1437 
Q 2750 1225 2750 900 
z
" transform="scale(0.015625)"/>
       <path id="SimHei-69" d="M 1800 3725 
L 1300 3725 
L 1300 4375 
L 1800 4375 
L 1800 3725 
z
M 1800 125 
L 1300 125 
L 1300 2925 
L 1800 2925 
L 1800 125 
z
" transform="scale(0.015625)"/>
      </defs>
      <use xlink:href="#SimHei-44"/>
      <use xlink:href="#SimHei-65" x="50"/>
      <use xlink:href="#SimHei-6e" x="100"/>
      <use xlink:href="#SimHei-73" x="150"/>
      <use xlink:href="#SimHei-69" x="200"/>
      <use xlink:href="#SimHei-74" x="250"/>
      <use xlink:href="#SimHei-79" x="300"/>
     </g>
    </g>
   </g>
   <g id="line2d_18">
    <path d="M 127.574158 320.314463 
L 132.373433 320.104217 
L 134.77307 319.878478 
L 137.172707 319.511939 
L 139.572344 318.938741 
L 141.971981 318.075116 
L 144.371618 316.820872 
L 146.771255 315.064109 
L 149.170892 312.689415 
L 151.57053 309.589048 
L 153.970167 305.675703 
L 156.369804 300.894732 
L 158.769441 295.233365 
L 161.169078 288.724764 
L 163.568715 281.445624 
L 165.968352 273.507339 
L 170.767627 256.186146 
L 177.966538 228.383699 
L 187.565086 190.207647 
L 194.763998 161.45504 
L 197.163635 152.264544 
L 199.563272 143.516532 
L 201.962909 135.360604 
L 204.362546 127.912359 
L 206.762183 121.232454 
L 209.16182 115.315951 
L 211.561457 110.094241 
L 213.961095 105.448323 
L 216.360732 101.229515 
L 221.160006 93.467205 
L 233.158192 74.437139 
L 235.557829 71.11237 
L 237.957466 68.41896 
L 240.357103 66.656361 
L 242.75674 66.120372 
L 245.156377 67.059854 
L 247.556014 69.635671 
L 249.955651 73.89049 
L 252.355288 79.735504 
L 254.754926 86.955709 
L 257.154563 95.231013 
L 266.753111 130.659589 
L 269.152748 138.082061 
L 271.552385 144.322567 
L 273.952023 149.253511 
L 276.35166 152.877741 
L 278.751297 155.330851 
L 281.150934 156.867885 
L 283.550571 157.833792 
L 285.950208 158.620399 
L 288.349845 159.615926 
L 290.749482 161.155093 
L 293.149119 163.477937 
L 295.548757 166.703688 
L 297.948394 170.822897 
L 300.348031 175.707484 
L 305.147305 186.825016 
L 307.546942 192.473219 
L 309.946579 197.793104 
L 312.346216 202.54658 
L 314.745854 206.569592 
L 317.145491 209.78786 
L 319.545128 212.221921 
L 321.944765 213.980981 
L 324.344402 215.246083 
L 329.143676 217.218171 
L 331.543313 218.391467 
L 333.94295 219.941204 
L 336.342588 221.974867 
L 338.742225 224.51912 
L 341.141862 227.520383 
L 345.941136 234.36108 
L 348.340773 237.845703 
L 350.74041 241.134237 
L 353.140047 244.085964 
L 355.539685 246.614701 
L 357.939322 248.69751 
L 360.338959 250.3727 
L 362.738596 251.728205 
L 372.337144 256.362269 
L 374.736781 257.820557 
L 377.136419 259.486743 
L 379.536056 261.343623 
L 384.33533 265.456489 
L 396.333516 276.111394 
L 403.532427 282.107689 
L 408.331701 285.753677 
L 410.731338 287.399778 
L 413.130975 288.901166 
L 415.530612 290.250571 
L 417.93025 291.453672 
L 422.729524 293.497941 
L 427.528798 295.232243 
L 434.727709 297.547456 
L 439.526984 298.853533 
L 444.326258 299.806477 
L 449.125532 300.315315 
L 453.924806 300.436641 
L 470.722266 300.302477 
L 475.52154 300.531207 
L 480.320815 300.971273 
L 485.120089 301.682549 
L 489.919363 302.694036 
L 494.718637 304.002745 
L 499.517912 305.606491 
L 504.317186 307.500454 
L 511.516097 310.711065 
L 516.315371 312.824252 
L 521.114646 314.665466 
L 525.91392 316.119065 
L 530.713194 317.197703 
L 535.512468 317.989489 
L 540.311743 318.581827 
L 547.510654 319.191797 
L 554.709565 319.521335 
L 585.904848 320.256268 
L 597.903033 320.381535 
L 605.101945 320.396592 
L 605.101945 320.396592 
" clip-path="url(#p497c899b99)" style="fill: none; stroke: #1f77b4; stroke-width: 1.5; stroke-linecap: square"/>
   </g>
   <g id="line2d_19">
    <path d="M 115.363636 320.325538 
L 123.010964 320.075449 
L 128.109182 319.622334 
L 130.658291 319.233675 
L 133.207401 318.686671 
L 135.75651 317.934085 
L 138.305619 316.921727 
L 140.854728 315.590039 
L 143.403837 313.876673 
L 145.952947 311.720012 
L 148.502056 309.063444 
L 151.051165 305.860009 
L 153.600274 302.076915 
L 156.149383 297.699315 
L 158.698492 292.732757 
L 161.247602 287.203813 
L 163.796711 281.158612 
L 166.34582 274.65931 
L 171.444038 260.594535 
L 176.542257 245.607257 
L 186.738693 214.563404 
L 196.93513 182.873262 
L 204.582458 158.467241 
L 222.426222 100.505853 
L 224.975331 92.699733 
L 227.52444 85.2759 
L 230.07355 78.370552 
L 232.622659 72.134925 
L 235.171768 66.729134 
L 237.720877 62.313782 
L 240.269986 59.039688 
L 242.819095 57.036338 
L 245.368205 56.4 
L 247.917314 57.182735 
L 250.466423 59.383707 
L 253.015532 62.944172 
L 255.564641 67.747263 
L 258.113751 73.623189 
L 260.66286 80.359747 
L 263.211969 87.717324 
L 273.408406 118.615716 
L 275.957515 125.765728 
L 278.506624 132.467976 
L 281.055733 138.700743 
L 283.604842 144.483451 
L 286.153952 149.865109 
L 288.703061 154.911221 
L 293.801279 164.26753 
L 298.899497 172.987211 
L 303.997716 181.254049 
L 309.095934 189.036395 
L 314.194153 196.239583 
L 319.292371 202.856508 
L 324.390589 209.037055 
L 334.587026 221.197181 
L 339.685244 227.627479 
L 352.43079 244.188448 
L 357.529009 250.235492 
L 360.078118 253.0106 
L 362.627227 255.608996 
L 365.176336 258.036636 
L 370.274555 262.440972 
L 375.372773 266.365604 
L 380.470991 269.906599 
L 385.56921 273.059828 
L 390.667428 275.751044 
L 393.216537 276.901233 
L 395.765646 277.918758 
L 400.863865 279.595492 
L 408.511192 281.583864 
L 413.609411 282.986184 
L 416.15852 283.829481 
L 418.707629 284.810431 
L 421.256738 285.949327 
L 423.805847 287.254017 
L 426.354957 288.718644 
L 431.453175 292.037335 
L 441.649612 299.081364 
L 444.198721 300.653551 
L 446.74783 302.071026 
L 449.296939 303.308986 
L 451.846048 304.352845 
L 454.395158 305.197948 
L 456.944267 305.848637 
L 459.493376 306.316934 
L 462.042485 306.621044 
L 464.591594 306.783836 
L 469.689813 306.791417 
L 487.533577 306.17501 
L 492.631795 306.382978 
L 497.730014 306.843749 
L 502.828232 307.544491 
L 507.92645 308.463896 
L 513.024669 309.572845 
L 520.671996 311.488381 
L 533.417542 314.757289 
L 538.515761 315.877137 
L 543.613979 316.814456 
L 548.712197 317.551121 
L 553.810416 318.092127 
L 561.457743 318.601031 
L 574.203289 319.068061 
L 592.047053 319.821492 
L 604.792599 320.228853 
L 617.538145 320.372101 
L 622.636364 320.388614 
L 622.636364 320.388614 
" clip-path="url(#p497c899b99)" style="fill: none; stroke: #ff7f0e; stroke-width: 1.5; stroke-linecap: square"/>
   </g>
   <g id="patch_3">
    <path d="M 90 320.4 
L 90 43.2 
" style="fill: none; stroke: #000000; stroke-width: 0.8; stroke-linejoin: miter; stroke-linecap: square"/>
   </g>
   <g id="patch_4">
    <path d="M 648 320.4 
L 648 43.2 
" style="fill: none; stroke: #000000; stroke-width: 0.8; stroke-linejoin: miter; stroke-linecap: square"/>
   </g>
   <g id="patch_5">
    <path d="M 90 320.4 
L 648 320.4 
" style="fill: none; stroke: #000000; stroke-width: 0.8; stroke-linejoin: miter; stroke-linecap: square"/>
   </g>
   <g id="patch_6">
    <path d="M 90 43.2 
L 648 43.2 
" style="fill: none; stroke: #000000; stroke-width: 0.8; stroke-linejoin: miter; stroke-linecap: square"/>
   </g>
   <g id="legend_1">
    <g id="patch_7">
     <path d="M 604 77.7 
L 641 77.7 
Q 643 77.7 643 75.7 
L 643 50.2 
Q 643 48.2 641 48.2 
L 604 48.2 
Q 602 48.2 602 50.2 
L 602 75.7 
Q 602 77.7 604 77.7 
z
" style="fill: #ffffff; opacity: 0.8; stroke: #cccccc; stroke-linejoin: miter"/>
    </g>
    <g id="line2d_20">
     <path d="M 606 55.7 
L 616 55.7 
L 626 55.7 
" style="fill: none; stroke: #1f77b4; stroke-width: 1.5; stroke-linecap: square"/>
    </g>
    <g id="text_20">
     <!-- 0 -->
     <g transform="translate(634 59.2)scale(0.1 -0.1)">
      <use xlink:href="#SimHei-30"/>
     </g>
    </g>
    <g id="line2d_21">
     <path d="M 606 68.95 
L 616 68.95 
L 626 68.95 
" style="fill: none; stroke: #ff7f0e; stroke-width: 1.5; stroke-linecap: square"/>
    </g>
    <g id="text_21">
     <!-- 1 -->
     <g transform="translate(634 72.45)scale(0.1 -0.1)">
      <use xlink:href="#SimHei-31"/>
     </g>
    </g>
   </g>
  </g>
 </g>
 <defs>
  <clipPath id="p497c899b99">
   <rect x="90" y="43.2" width="558" height="277.2"/>
  </clipPath>
 </defs>
</svg>
