<?xml version="1.0" encoding="utf-8" standalone="no"?>
<!DOCTYPE svg PUBLIC "-//W3C//DTD SVG 1.1//EN"
  "http://www.w3.org/Graphics/SVG/1.1/DTD/svg11.dtd">
<svg xmlns:xlink="http://www.w3.org/1999/xlink" width="460.8pt" height="345.6pt" viewBox="0 0 460.8 345.6" xmlns="http://www.w3.org/2000/svg" version="1.1">
 <metadata>
  <rdf:RDF xmlns:dc="http://purl.org/dc/elements/1.1/" xmlns:cc="http://creativecommons.org/ns#" xmlns:rdf="http://www.w3.org/1999/02/22-rdf-syntax-ns#">
   <cc:Work>
    <dc:type rdf:resource="http://purl.org/dc/dcmitype/StillImage"/>
    <dc:date>2022-10-29T14:18:57.769723</dc:date>
    <dc:format>image/svg+xml</dc:format>
    <dc:creator>
     <cc:Agent>
      <dc:title>Matplotlib v3.5.1, https://matplotlib.org/</dc:title>
     </cc:Agent>
    </dc:creator>
   </cc:Work>
  </rdf:RDF>
 </metadata>
 <defs>
  <style type="text/css">*{stroke-linejoin: round; stroke-linecap: butt}</style>
 </defs>
 <g id="figure_1">
  <g id="patch_1">
   <path d="M 0 345.6 
L 460.8 345.6 
L 460.8 0 
L 0 0 
z
" style="fill: #ffffff"/>
  </g>
  <g id="axes_1">
   <g id="patch_2">
    <path d="M 57.6 307.584 
L 414.72 307.584 
L 414.72 41.472 
L 57.6 41.472 
z
" style="fill: #ffffff"/>
   </g>
   <g id="patch_3">
    <path d="M 60.150857 307.584 
L 65.252571 307.584 
L 65.252571 182.269481 
L 60.150857 182.269481 
z
" clip-path="url(#pf25a72f67b)" style="fill: #1f77b4"/>
   </g>
   <g id="patch_4">
    <path d="M 70.354286 307.584 
L 75.456 307.584 
L 75.456 201.812871 
L 70.354286 201.812871 
z
" clip-path="url(#pf25a72f67b)" style="fill: #1f77b4"/>
   </g>
   <g id="patch_5">
    <path d="M 80.557714 307.584 
L 85.659429 307.584 
L 85.659429 200.516735 
L 80.557714 200.516735 
z
" clip-path="url(#pf25a72f67b)" style="fill: #1f77b4"/>
   </g>
   <g id="patch_6">
    <path d="M 90.761143 307.584 
L 95.862857 307.584 
L 95.862857 163.446167 
L 90.761143 163.446167 
z
" clip-path="url(#pf25a72f67b)" style="fill: #1f77b4"/>
   </g>
   <g id="patch_7">
    <path d="M 100.964571 307.584 
L 106.066286 307.584 
L 106.066286 133.907059 
L 100.964571 133.907059 
z
" clip-path="url(#pf25a72f67b)" style="fill: #1f77b4"/>
   </g>
   <g id="patch_8">
    <path d="M 111.168 307.584 
L 116.269714 307.584 
L 116.269714 117.510667 
L 111.168 117.510667 
z
" clip-path="url(#pf25a72f67b)" style="fill: #1f77b4"/>
   </g>
   <g id="patch_9">
    <path d="M 121.371429 307.584 
L 126.473143 307.584 
L 126.473143 111.131329 
L 121.371429 111.131329 
z
" clip-path="url(#pf25a72f67b)" style="fill: #1f77b4"/>
   </g>
   <g id="patch_10">
    <path d="M 131.574857 307.584 
L 136.676571 307.584 
L 136.676571 95.6417 
L 131.574857 95.6417 
z
" clip-path="url(#pf25a72f67b)" style="fill: #1f77b4"/>
   </g>
   <g id="patch_11">
    <path d="M 141.778286 307.584 
L 146.88 307.584 
L 146.88 96.863162 
L 141.778286 96.863162 
z
" clip-path="url(#pf25a72f67b)" style="fill: #1f77b4"/>
   </g>
   <g id="patch_12">
    <path d="M 151.981714 307.584 
L 157.083429 307.584 
L 157.083429 103.210496 
L 151.981714 103.210496 
z
" clip-path="url(#pf25a72f67b)" style="fill: #1f77b4"/>
   </g>
   <g id="patch_13">
    <path d="M 162.185143 307.584 
L 167.286857 307.584 
L 167.286857 102.42108 
L 162.185143 102.42108 
z
" clip-path="url(#pf25a72f67b)" style="fill: #1f77b4"/>
   </g>
   <g id="patch_14">
    <path d="M 172.388571 307.584 
L 177.490286 307.584 
L 177.490286 121.100378 
L 172.388571 121.100378 
z
" clip-path="url(#pf25a72f67b)" style="fill: #1f77b4"/>
   </g>
   <g id="patch_15">
    <path d="M 182.592 307.584 
L 187.693714 307.584 
L 187.693714 133.795047 
L 182.592 133.795047 
z
" clip-path="url(#pf25a72f67b)" style="fill: #1f77b4"/>
   </g>
   <g id="patch_16">
    <path d="M 192.795429 307.584 
L 197.897143 307.584 
L 197.897143 141.678544 
L 192.795429 141.678544 
z
" clip-path="url(#pf25a72f67b)" style="fill: #1f77b4"/>
   </g>
   <g id="patch_17">
    <path d="M 202.998857 307.584 
L 208.100571 307.584 
L 208.100571 158.976364 
L 202.998857 158.976364 
z
" clip-path="url(#pf25a72f67b)" style="fill: #1f77b4"/>
   </g>
   <g id="patch_18">
    <path d="M 213.202286 307.584 
L 218.304 307.584 
L 218.304 197.40174 
L 213.202286 197.40174 
z
" clip-path="url(#pf25a72f67b)" style="fill: #1f77b4"/>
   </g>
   <g id="patch_19">
    <path d="M 223.405714 307.584 
L 228.507429 307.584 
L 228.507429 214.640887 
L 223.405714 214.640887 
z
" clip-path="url(#pf25a72f67b)" style="fill: #1f77b4"/>
   </g>
   <g id="patch_20">
    <path d="M 233.609143 307.584 
L 238.710857 307.584 
L 238.710857 226.172767 
L 233.609143 226.172767 
z
" clip-path="url(#pf25a72f67b)" style="fill: #1f77b4"/>
   </g>
   <g id="patch_21">
    <path d="M 243.812571 307.584 
L 248.914286 307.584 
L 248.914286 235.917793 
L 243.812571 235.917793 
z
" clip-path="url(#pf25a72f67b)" style="fill: #1f77b4"/>
   </g>
   <g id="patch_22">
    <path d="M 254.016 307.584 
L 259.117714 307.584 
L 259.117714 248.329765 
L 254.016 248.329765 
z
" clip-path="url(#pf25a72f67b)" style="fill: #1f77b4"/>
   </g>
   <g id="patch_23">
    <path d="M 264.219429 307.584 
L 269.321143 307.584 
L 269.321143 262.315237 
L 264.219429 262.315237 
z
" clip-path="url(#pf25a72f67b)" style="fill: #1f77b4"/>
   </g>
   <g id="patch_24">
    <path d="M 274.422857 307.584 
L 279.524571 307.584 
L 279.524571 267.814482 
L 274.422857 267.814482 
z
" clip-path="url(#pf25a72f67b)" style="fill: #1f77b4"/>
   </g>
   <g id="patch_25">
    <path d="M 284.626286 307.584 
L 289.728 307.584 
L 289.728 273.927125 
L 284.626286 273.927125 
z
" clip-path="url(#pf25a72f67b)" style="fill: #1f77b4"/>
   </g>
   <g id="patch_26">
    <path d="M 294.829714 307.584 
L 299.931429 307.584 
L 299.931429 279.927757 
L 294.829714 279.927757 
z
" clip-path="url(#pf25a72f67b)" style="fill: #1f77b4"/>
   </g>
   <g id="patch_27">
    <path d="M 305.033143 307.584 
L 310.134857 307.584 
L 310.134857 282.333343 
L 305.033143 282.333343 
z
" clip-path="url(#pf25a72f67b)" style="fill: #1f77b4"/>
   </g>
   <g id="patch_28">
    <path d="M 315.236571 307.584 
L 320.338286 307.584 
L 320.338286 290.632883 
L 315.236571 290.632883 
z
" clip-path="url(#pf25a72f67b)" style="fill: #1f77b4"/>
   </g>
   <g id="patch_29">
    <path d="M 325.44 307.584 
L 330.541714 307.584 
L 330.541714 295.769424 
L 325.44 295.769424 
z
" clip-path="url(#pf25a72f67b)" style="fill: #1f77b4"/>
   </g>
   <g id="patch_30">
    <path d="M 335.643429 307.584 
L 340.745143 307.584 
L 340.745143 297.913649 
L 335.643429 297.913649 
z
" clip-path="url(#pf25a72f67b)" style="fill: #1f77b4"/>
   </g>
   <g id="patch_31">
    <path d="M 345.846857 307.584 
L 350.948571 307.584 
L 350.948571 300.132549 
L 345.846857 300.132549 
z
" clip-path="url(#pf25a72f67b)" style="fill: #1f77b4"/>
   </g>
   <g id="patch_32">
    <path d="M 356.050286 307.584 
L 361.152 307.584 
L 361.152 301.450021 
L 356.050286 301.450021 
z
" clip-path="url(#pf25a72f67b)" style="fill: #1f77b4"/>
   </g>
   <g id="patch_33">
    <path d="M 366.253714 307.584 
L 371.355429 307.584 
L 371.355429 302.884839 
L 366.253714 302.884839 
z
" clip-path="url(#pf25a72f67b)" style="fill: #1f77b4"/>
   </g>
   <g id="patch_34">
    <path d="M 376.457143 307.584 
L 381.558857 307.584 
L 381.558857 304.410333 
L 376.457143 304.410333 
z
" clip-path="url(#pf25a72f67b)" style="fill: #1f77b4"/>
   </g>
   <g id="patch_35">
    <path d="M 386.660571 307.584 
L 391.762286 307.584 
L 391.762286 305.237086 
L 386.660571 305.237086 
z
" clip-path="url(#pf25a72f67b)" style="fill: #1f77b4"/>
   </g>
   <g id="patch_36">
    <path d="M 396.864 307.584 
L 401.965714 307.584 
L 401.965714 305.759808 
L 396.864 305.759808 
z
" clip-path="url(#pf25a72f67b)" style="fill: #1f77b4"/>
   </g>
   <g id="patch_37">
    <path d="M 407.067429 307.584 
L 412.169143 307.584 
L 412.169143 306.106511 
L 407.067429 306.106511 
z
" clip-path="url(#pf25a72f67b)" style="fill: #1f77b4"/>
   </g>
   <g id="patch_38">
    <path d="M 60.150857 182.269481 
L 65.252571 182.269481 
L 65.252571 178.141047 
L 60.150857 178.141047 
z
" clip-path="url(#pf25a72f67b)" style="fill: #ff7f0e"/>
   </g>
   <g id="patch_39">
    <path d="M 70.354286 201.812871 
L 75.456 201.812871 
L 75.456 196.825679 
L 70.354286 196.825679 
z
" clip-path="url(#pf25a72f67b)" style="fill: #ff7f0e"/>
   </g>
   <g id="patch_40">
    <path d="M 80.557714 200.516735 
L 85.659429 200.516735 
L 85.659429 194.132063 
L 80.557714 194.132063 
z
" clip-path="url(#pf25a72f67b)" style="fill: #ff7f0e"/>
   </g>
   <g id="patch_41">
    <path d="M 90.761143 163.446167 
L 95.862857 163.446167 
L 95.862857 153.061075 
L 90.761143 153.061075 
z
" clip-path="url(#pf25a72f67b)" style="fill: #ff7f0e"/>
   </g>
   <g id="patch_42">
    <path d="M 100.964571 133.907059 
L 106.066286 133.907059 
L 106.066286 117.633347 
L 100.964571 117.633347 
z
" clip-path="url(#pf25a72f67b)" style="fill: #ff7f0e"/>
   </g>
   <g id="patch_43">
    <path d="M 111.168 117.510667 
L 116.269714 117.510667 
L 116.269714 95.625698 
L 111.168 95.625698 
z
" clip-path="url(#pf25a72f67b)" style="fill: #ff7f0e"/>
   </g>
   <g id="patch_44">
    <path d="M 121.371429 111.131329 
L 126.473143 111.131329 
L 126.473143 86.238044 
L 121.371429 86.238044 
z
" clip-path="url(#pf25a72f67b)" style="fill: #ff7f0e"/>
   </g>
   <g id="patch_45">
    <path d="M 131.574857 95.6417 
L 136.676571 95.6417 
L 136.676571 64.219727 
L 131.574857 64.219727 
z
" clip-path="url(#pf25a72f67b)" style="fill: #ff7f0e"/>
   </g>
   <g id="patch_46">
    <path d="M 141.778286 96.863162 
L 146.88 96.863162 
L 146.88 60.272645 
L 141.778286 60.272645 
z
" clip-path="url(#pf25a72f67b)" style="fill: #ff7f0e"/>
   </g>
   <g id="patch_47">
    <path d="M 151.981714 103.210496 
L 157.083429 103.210496 
L 157.083429 62.779575 
L 151.981714 62.779575 
z
" clip-path="url(#pf25a72f67b)" style="fill: #ff7f0e"/>
   </g>
   <g id="patch_48">
    <path d="M 162.185143 102.42108 
L 167.286857 102.42108 
L 167.286857 54.144 
L 162.185143 54.144 
z
" clip-path="url(#pf25a72f67b)" style="fill: #ff7f0e"/>
   </g>
   <g id="patch_49">
    <path d="M 172.388571 121.100378 
L 177.490286 121.100378 
L 177.490286 72.545936 
L 172.388571 72.545936 
z
" clip-path="url(#pf25a72f67b)" style="fill: #ff7f0e"/>
   </g>
   <g id="patch_50">
    <path d="M 182.592 133.795047 
L 187.693714 133.795047 
L 187.693714 83.560428 
L 182.592 83.560428 
z
" clip-path="url(#pf25a72f67b)" style="fill: #ff7f0e"/>
   </g>
   <g id="patch_51">
    <path d="M 192.795429 141.678544 
L 197.897143 141.678544 
L 197.897143 86.099362 
L 192.795429 86.099362 
z
" clip-path="url(#pf25a72f67b)" style="fill: #ff7f0e"/>
   </g>
   <g id="patch_52">
    <path d="M 202.998857 158.976364 
L 208.100571 158.976364 
L 208.100571 106.426834 
L 202.998857 106.426834 
z
" clip-path="url(#pf25a72f67b)" style="fill: #ff7f0e"/>
   </g>
   <g id="patch_53">
    <path d="M 213.202286 197.40174 
L 218.304 197.40174 
L 218.304 154.853263 
L 213.202286 154.853263 
z
" clip-path="url(#pf25a72f67b)" style="fill: #ff7f0e"/>
   </g>
   <g id="patch_54">
    <path d="M 223.405714 214.640887 
L 228.507429 214.640887 
L 228.507429 175.031386 
L 223.405714 175.031386 
z
" clip-path="url(#pf25a72f67b)" style="fill: #ff7f0e"/>
   </g>
   <g id="patch_55">
    <path d="M 233.609143 226.172767 
L 238.710857 226.172767 
L 238.710857 190.387669 
L 233.609143 190.387669 
z
" clip-path="url(#pf25a72f67b)" style="fill: #ff7f0e"/>
   </g>
   <g id="patch_56">
    <path d="M 243.812571 235.917793 
L 248.914286 235.917793 
L 248.914286 201.807537 
L 243.812571 201.807537 
z
" clip-path="url(#pf25a72f67b)" style="fill: #ff7f0e"/>
   </g>
   <g id="patch_57">
    <path d="M 254.016 248.329765 
L 259.117714 248.329765 
L 259.117714 218.331942 
L 254.016 218.331942 
z
" clip-path="url(#pf25a72f67b)" style="fill: #ff7f0e"/>
   </g>
   <g id="patch_58">
    <path d="M 264.219429 262.315237 
L 269.321143 262.315237 
L 269.321143 237.213929 
L 264.219429 237.213929 
z
" clip-path="url(#pf25a72f67b)" style="fill: #ff7f0e"/>
   </g>
   <g id="patch_59">
    <path d="M 274.422857 267.814482 
L 279.524571 267.814482 
L 279.524571 243.785287 
L 274.422857 243.785287 
z
" clip-path="url(#pf25a72f67b)" style="fill: #ff7f0e"/>
   </g>
   <g id="patch_60">
    <path d="M 284.626286 273.927125 
L 289.728 273.927125 
L 289.728 252.778233 
L 284.626286 252.778233 
z
" clip-path="url(#pf25a72f67b)" style="fill: #ff7f0e"/>
   </g>
   <g id="patch_61">
    <path d="M 294.829714 279.927757 
L 299.931429 279.927757 
L 299.931429 261.243124 
L 294.829714 261.243124 
z
" clip-path="url(#pf25a72f67b)" style="fill: #ff7f0e"/>
   </g>
   <g id="patch_62">
    <path d="M 305.033143 282.333343 
L 310.134857 282.333343 
L 310.134857 264.230105 
L 305.033143 264.230105 
z
" clip-path="url(#pf25a72f67b)" style="fill: #ff7f0e"/>
   </g>
   <g id="patch_63">
    <path d="M 315.236571 290.632883 
L 320.338286 290.632883 
L 320.338286 278.044892 
L 315.236571 278.044892 
z
" clip-path="url(#pf25a72f67b)" style="fill: #ff7f0e"/>
   </g>
   <g id="patch_64">
    <path d="M 325.44 295.769424 
L 330.541714 295.769424 
L 330.541714 285.853714 
L 325.44 285.853714 
z
" clip-path="url(#pf25a72f67b)" style="fill: #ff7f0e"/>
   </g>
   <g id="patch_65">
    <path d="M 335.643429 297.913649 
L 340.745143 297.913649 
L 340.745143 289.678116 
L 335.643429 289.678116 
z
" clip-path="url(#pf25a72f67b)" style="fill: #ff7f0e"/>
   </g>
   <g id="patch_66">
    <path d="M 345.846857 300.132549 
L 350.948571 300.132549 
L 350.948571 293.3265 
L 345.846857 293.3265 
z
" clip-path="url(#pf25a72f67b)" style="fill: #ff7f0e"/>
   </g>
   <g id="patch_67">
    <path d="M 356.050286 301.450021 
L 361.152 301.450021 
L 361.152 295.748088 
L 356.050286 295.748088 
z
" clip-path="url(#pf25a72f67b)" style="fill: #ff7f0e"/>
   </g>
   <g id="patch_68">
    <path d="M 366.253714 302.884839 
L 371.355429 302.884839 
L 371.355429 298.767072 
L 366.253714 298.767072 
z
" clip-path="url(#pf25a72f67b)" style="fill: #ff7f0e"/>
   </g>
   <g id="patch_69">
    <path d="M 376.457143 304.410333 
L 381.558857 304.410333 
L 381.558857 301.450021 
L 376.457143 301.450021 
z
" clip-path="url(#pf25a72f67b)" style="fill: #ff7f0e"/>
   </g>
   <g id="patch_70">
    <path d="M 386.660571 305.237086 
L 391.762286 305.237086 
L 391.762286 302.682151 
L 386.660571 302.682151 
z
" clip-path="url(#pf25a72f67b)" style="fill: #ff7f0e"/>
   </g>
   <g id="patch_71">
    <path d="M 396.864 305.759808 
L 401.965714 305.759808 
L 401.965714 303.775599 
L 396.864 303.775599 
z
" clip-path="url(#pf25a72f67b)" style="fill: #ff7f0e"/>
   </g>
   <g id="patch_72">
    <path d="M 407.067429 306.106511 
L 412.169143 306.106511 
L 412.169143 304.32499 
L 407.067429 304.32499 
z
" clip-path="url(#pf25a72f67b)" style="fill: #ff7f0e"/>
   </g>
   <g id="matplotlib.axis_1">
    <g id="xtick_1">
     <g id="line2d_1">
      <defs>
       <path id="m67ee878db4" d="M 0 0 
L 0 3.5 
" style="stroke: #000000; stroke-width: 0.8"/>
      </defs>
      <g>
       <use xlink:href="#m67ee878db4" x="62.701714" y="307.584" style="stroke: #000000; stroke-width: 0.8"/>
      </g>
     </g>
     <g id="text_1">
      <!-- A1 -->
      <g transform="translate(65.461089 327.787125)rotate(-90)scale(0.1 -0.1)">
       <defs>
        <path id="DejaVuSans-41" d="M 2188 4044 
L 1331 1722 
L 3047 1722 
L 2188 4044 
z
M 1831 4666 
L 2547 4666 
L 4325 0 
L 3669 0 
L 3244 1197 
L 1141 1197 
L 716 0 
L 50 0 
L 1831 4666 
z
" transform="scale(0.015625)"/>
        <path id="DejaVuSans-31" d="M 794 531 
L 1825 531 
L 1825 4091 
L 703 3866 
L 703 4441 
L 1819 4666 
L 2450 4666 
L 2450 531 
L 3481 531 
L 3481 0 
L 794 0 
L 794 531 
z
" transform="scale(0.015625)"/>
       </defs>
       <use xlink:href="#DejaVuSans-41"/>
       <use xlink:href="#DejaVuSans-31" x="68.408203"/>
      </g>
     </g>
    </g>
    <g id="xtick_2">
     <g id="line2d_2">
      <g>
       <use xlink:href="#m67ee878db4" x="72.905143" y="307.584" style="stroke: #000000; stroke-width: 0.8"/>
      </g>
     </g>
     <g id="text_2">
      <!-- A2 -->
      <g transform="translate(75.664518 327.787125)rotate(-90)scale(0.1 -0.1)">
       <defs>
        <path id="DejaVuSans-32" d="M 1228 531 
L 3431 531 
L 3431 0 
L 469 0 
L 469 531 
Q 828 903 1448 1529 
Q 2069 2156 2228 2338 
Q 2531 2678 2651 2914 
Q 2772 3150 2772 3378 
Q 2772 3750 2511 3984 
Q 2250 4219 1831 4219 
Q 1534 4219 1204 4116 
Q 875 4013 500 3803 
L 500 4441 
Q 881 4594 1212 4672 
Q 1544 4750 1819 4750 
Q 2544 4750 2975 4387 
Q 3406 4025 3406 3419 
Q 3406 3131 3298 2873 
Q 3191 2616 2906 2266 
Q 2828 2175 2409 1742 
Q 1991 1309 1228 531 
z
" transform="scale(0.015625)"/>
       </defs>
       <use xlink:href="#DejaVuSans-41"/>
       <use xlink:href="#DejaVuSans-32" x="68.408203"/>
      </g>
     </g>
    </g>
    <g id="xtick_3">
     <g id="line2d_3">
      <g>
       <use xlink:href="#m67ee878db4" x="83.108571" y="307.584" style="stroke: #000000; stroke-width: 0.8"/>
      </g>
     </g>
     <g id="text_3">
      <!-- A3 -->
      <g transform="translate(85.867946 327.787125)rotate(-90)scale(0.1 -0.1)">
       <defs>
        <path id="DejaVuSans-33" d="M 2597 2516 
Q 3050 2419 3304 2112 
Q 3559 1806 3559 1356 
Q 3559 666 3084 287 
Q 2609 -91 1734 -91 
Q 1441 -91 1130 -33 
Q 819 25 488 141 
L 488 750 
Q 750 597 1062 519 
Q 1375 441 1716 441 
Q 2309 441 2620 675 
Q 2931 909 2931 1356 
Q 2931 1769 2642 2001 
Q 2353 2234 1838 2234 
L 1294 2234 
L 1294 2753 
L 1863 2753 
Q 2328 2753 2575 2939 
Q 2822 3125 2822 3475 
Q 2822 3834 2567 4026 
Q 2313 4219 1838 4219 
Q 1578 4219 1281 4162 
Q 984 4106 628 3988 
L 628 4550 
Q 988 4650 1302 4700 
Q 1616 4750 1894 4750 
Q 2613 4750 3031 4423 
Q 3450 4097 3450 3541 
Q 3450 3153 3228 2886 
Q 3006 2619 2597 2516 
z
" transform="scale(0.015625)"/>
       </defs>
       <use xlink:href="#DejaVuSans-41"/>
       <use xlink:href="#DejaVuSans-33" x="68.408203"/>
      </g>
     </g>
    </g>
    <g id="xtick_4">
     <g id="line2d_4">
      <g>
       <use xlink:href="#m67ee878db4" x="93.312" y="307.584" style="stroke: #000000; stroke-width: 0.8"/>
      </g>
     </g>
     <g id="text_4">
      <!-- A4 -->
      <g transform="translate(96.071375 327.787125)rotate(-90)scale(0.1 -0.1)">
       <defs>
        <path id="DejaVuSans-34" d="M 2419 4116 
L 825 1625 
L 2419 1625 
L 2419 4116 
z
M 2253 4666 
L 3047 4666 
L 3047 1625 
L 3713 1625 
L 3713 1100 
L 3047 1100 
L 3047 0 
L 2419 0 
L 2419 1100 
L 313 1100 
L 313 1709 
L 2253 4666 
z
" transform="scale(0.015625)"/>
       </defs>
       <use xlink:href="#DejaVuSans-41"/>
       <use xlink:href="#DejaVuSans-34" x="68.408203"/>
      </g>
     </g>
    </g>
    <g id="xtick_5">
     <g id="line2d_5">
      <g>
       <use xlink:href="#m67ee878db4" x="103.515429" y="307.584" style="stroke: #000000; stroke-width: 0.8"/>
      </g>
     </g>
     <g id="text_5">
      <!-- A5 -->
      <g transform="translate(106.274804 327.787125)rotate(-90)scale(0.1 -0.1)">
       <defs>
        <path id="DejaVuSans-35" d="M 691 4666 
L 3169 4666 
L 3169 4134 
L 1269 4134 
L 1269 2991 
Q 1406 3038 1543 3061 
Q 1681 3084 1819 3084 
Q 2600 3084 3056 2656 
Q 3513 2228 3513 1497 
Q 3513 744 3044 326 
Q 2575 -91 1722 -91 
Q 1428 -91 1123 -41 
Q 819 9 494 109 
L 494 744 
Q 775 591 1075 516 
Q 1375 441 1709 441 
Q 2250 441 2565 725 
Q 2881 1009 2881 1497 
Q 2881 1984 2565 2268 
Q 2250 2553 1709 2553 
Q 1456 2553 1204 2497 
Q 953 2441 691 2322 
L 691 4666 
z
" transform="scale(0.015625)"/>
       </defs>
       <use xlink:href="#DejaVuSans-41"/>
       <use xlink:href="#DejaVuSans-35" x="68.408203"/>
      </g>
     </g>
    </g>
    <g id="xtick_6">
     <g id="line2d_6">
      <g>
       <use xlink:href="#m67ee878db4" x="113.718857" y="307.584" style="stroke: #000000; stroke-width: 0.8"/>
      </g>
     </g>
     <g id="text_6">
      <!-- B1 -->
      <g transform="translate(116.478232 327.807437)rotate(-90)scale(0.1 -0.1)">
       <defs>
        <path id="DejaVuSans-42" d="M 1259 2228 
L 1259 519 
L 2272 519 
Q 2781 519 3026 730 
Q 3272 941 3272 1375 
Q 3272 1813 3026 2020 
Q 2781 2228 2272 2228 
L 1259 2228 
z
M 1259 4147 
L 1259 2741 
L 2194 2741 
Q 2656 2741 2882 2914 
Q 3109 3088 3109 3444 
Q 3109 3797 2882 3972 
Q 2656 4147 2194 4147 
L 1259 4147 
z
M 628 4666 
L 2241 4666 
Q 2963 4666 3353 4366 
Q 3744 4066 3744 3513 
Q 3744 3084 3544 2831 
Q 3344 2578 2956 2516 
Q 3422 2416 3680 2098 
Q 3938 1781 3938 1306 
Q 3938 681 3513 340 
Q 3088 0 2303 0 
L 628 0 
L 628 4666 
z
" transform="scale(0.015625)"/>
       </defs>
       <use xlink:href="#DejaVuSans-42"/>
       <use xlink:href="#DejaVuSans-31" x="68.603516"/>
      </g>
     </g>
    </g>
    <g id="xtick_7">
     <g id="line2d_7">
      <g>
       <use xlink:href="#m67ee878db4" x="123.922286" y="307.584" style="stroke: #000000; stroke-width: 0.8"/>
      </g>
     </g>
     <g id="text_7">
      <!-- B2 -->
      <g transform="translate(126.681661 327.807437)rotate(-90)scale(0.1 -0.1)">
       <use xlink:href="#DejaVuSans-42"/>
       <use xlink:href="#DejaVuSans-32" x="68.603516"/>
      </g>
     </g>
    </g>
    <g id="xtick_8">
     <g id="line2d_8">
      <g>
       <use xlink:href="#m67ee878db4" x="134.125714" y="307.584" style="stroke: #000000; stroke-width: 0.8"/>
      </g>
     </g>
     <g id="text_8">
      <!-- B3 -->
      <g transform="translate(136.885089 327.807437)rotate(-90)scale(0.1 -0.1)">
       <use xlink:href="#DejaVuSans-42"/>
       <use xlink:href="#DejaVuSans-33" x="68.603516"/>
      </g>
     </g>
    </g>
    <g id="xtick_9">
     <g id="line2d_9">
      <g>
       <use xlink:href="#m67ee878db4" x="144.329143" y="307.584" style="stroke: #000000; stroke-width: 0.8"/>
      </g>
     </g>
     <g id="text_9">
      <!-- B4 -->
      <g transform="translate(147.088518 327.807437)rotate(-90)scale(0.1 -0.1)">
       <use xlink:href="#DejaVuSans-42"/>
       <use xlink:href="#DejaVuSans-34" x="68.603516"/>
      </g>
     </g>
    </g>
    <g id="xtick_10">
     <g id="line2d_10">
      <g>
       <use xlink:href="#m67ee878db4" x="154.532571" y="307.584" style="stroke: #000000; stroke-width: 0.8"/>
      </g>
     </g>
     <g id="text_10">
      <!-- B5 -->
      <g transform="translate(157.291946 327.807437)rotate(-90)scale(0.1 -0.1)">
       <use xlink:href="#DejaVuSans-42"/>
       <use xlink:href="#DejaVuSans-35" x="68.603516"/>
      </g>
     </g>
    </g>
    <g id="xtick_11">
     <g id="line2d_11">
      <g>
       <use xlink:href="#m67ee878db4" x="164.736" y="307.584" style="stroke: #000000; stroke-width: 0.8"/>
      </g>
     </g>
     <g id="text_11">
      <!-- C1 -->
      <g transform="translate(167.495375 327.929312)rotate(-90)scale(0.1 -0.1)">
       <defs>
        <path id="DejaVuSans-43" d="M 4122 4306 
L 4122 3641 
Q 3803 3938 3442 4084 
Q 3081 4231 2675 4231 
Q 1875 4231 1450 3742 
Q 1025 3253 1025 2328 
Q 1025 1406 1450 917 
Q 1875 428 2675 428 
Q 3081 428 3442 575 
Q 3803 722 4122 1019 
L 4122 359 
Q 3791 134 3420 21 
Q 3050 -91 2638 -91 
Q 1578 -91 968 557 
Q 359 1206 359 2328 
Q 359 3453 968 4101 
Q 1578 4750 2638 4750 
Q 3056 4750 3426 4639 
Q 3797 4528 4122 4306 
z
" transform="scale(0.015625)"/>
       </defs>
       <use xlink:href="#DejaVuSans-43"/>
       <use xlink:href="#DejaVuSans-31" x="69.824219"/>
      </g>
     </g>
    </g>
    <g id="xtick_12">
     <g id="line2d_12">
      <g>
       <use xlink:href="#m67ee878db4" x="174.939429" y="307.584" style="stroke: #000000; stroke-width: 0.8"/>
      </g>
     </g>
     <g id="text_12">
      <!-- C2 -->
      <g transform="translate(177.698804 327.929312)rotate(-90)scale(0.1 -0.1)">
       <use xlink:href="#DejaVuSans-43"/>
       <use xlink:href="#DejaVuSans-32" x="69.824219"/>
      </g>
     </g>
    </g>
    <g id="xtick_13">
     <g id="line2d_13">
      <g>
       <use xlink:href="#m67ee878db4" x="185.142857" y="307.584" style="stroke: #000000; stroke-width: 0.8"/>
      </g>
     </g>
     <g id="text_13">
      <!-- C3 -->
      <g transform="translate(187.902232 327.929312)rotate(-90)scale(0.1 -0.1)">
       <use xlink:href="#DejaVuSans-43"/>
       <use xlink:href="#DejaVuSans-33" x="69.824219"/>
      </g>
     </g>
    </g>
    <g id="xtick_14">
     <g id="line2d_14">
      <g>
       <use xlink:href="#m67ee878db4" x="195.346286" y="307.584" style="stroke: #000000; stroke-width: 0.8"/>
      </g>
     </g>
     <g id="text_14">
      <!-- C4 -->
      <g transform="translate(198.105661 327.929312)rotate(-90)scale(0.1 -0.1)">
       <use xlink:href="#DejaVuSans-43"/>
       <use xlink:href="#DejaVuSans-34" x="69.824219"/>
      </g>
     </g>
    </g>
    <g id="xtick_15">
     <g id="line2d_15">
      <g>
       <use xlink:href="#m67ee878db4" x="205.549714" y="307.584" style="stroke: #000000; stroke-width: 0.8"/>
      </g>
     </g>
     <g id="text_15">
      <!-- C5 -->
      <g transform="translate(208.309089 327.929312)rotate(-90)scale(0.1 -0.1)">
       <use xlink:href="#DejaVuSans-43"/>
       <use xlink:href="#DejaVuSans-35" x="69.824219"/>
      </g>
     </g>
    </g>
    <g id="xtick_16">
     <g id="line2d_16">
      <g>
       <use xlink:href="#m67ee878db4" x="215.753143" y="307.584" style="stroke: #000000; stroke-width: 0.8"/>
      </g>
     </g>
     <g id="text_16">
      <!-- D1 -->
      <g transform="translate(218.512518 328.6465)rotate(-90)scale(0.1 -0.1)">
       <defs>
        <path id="DejaVuSans-44" d="M 1259 4147 
L 1259 519 
L 2022 519 
Q 2988 519 3436 956 
Q 3884 1394 3884 2338 
Q 3884 3275 3436 3711 
Q 2988 4147 2022 4147 
L 1259 4147 
z
M 628 4666 
L 1925 4666 
Q 3281 4666 3915 4102 
Q 4550 3538 4550 2338 
Q 4550 1131 3912 565 
Q 3275 0 1925 0 
L 628 0 
L 628 4666 
z
" transform="scale(0.015625)"/>
       </defs>
       <use xlink:href="#DejaVuSans-44"/>
       <use xlink:href="#DejaVuSans-31" x="77.001953"/>
      </g>
     </g>
    </g>
    <g id="xtick_17">
     <g id="line2d_17">
      <g>
       <use xlink:href="#m67ee878db4" x="225.956571" y="307.584" style="stroke: #000000; stroke-width: 0.8"/>
      </g>
     </g>
     <g id="text_17">
      <!-- D2 -->
      <g transform="translate(228.715946 328.6465)rotate(-90)scale(0.1 -0.1)">
       <use xlink:href="#DejaVuSans-44"/>
       <use xlink:href="#DejaVuSans-32" x="77.001953"/>
      </g>
     </g>
    </g>
    <g id="xtick_18">
     <g id="line2d_18">
      <g>
       <use xlink:href="#m67ee878db4" x="236.16" y="307.584" style="stroke: #000000; stroke-width: 0.8"/>
      </g>
     </g>
     <g id="text_18">
      <!-- D3 -->
      <g transform="translate(238.919375 328.6465)rotate(-90)scale(0.1 -0.1)">
       <use xlink:href="#DejaVuSans-44"/>
       <use xlink:href="#DejaVuSans-33" x="77.001953"/>
      </g>
     </g>
    </g>
    <g id="xtick_19">
     <g id="line2d_19">
      <g>
       <use xlink:href="#m67ee878db4" x="246.363429" y="307.584" style="stroke: #000000; stroke-width: 0.8"/>
      </g>
     </g>
     <g id="text_19">
      <!-- D4 -->
      <g transform="translate(249.122804 328.6465)rotate(-90)scale(0.1 -0.1)">
       <use xlink:href="#DejaVuSans-44"/>
       <use xlink:href="#DejaVuSans-34" x="77.001953"/>
      </g>
     </g>
    </g>
    <g id="xtick_20">
     <g id="line2d_20">
      <g>
       <use xlink:href="#m67ee878db4" x="256.566857" y="307.584" style="stroke: #000000; stroke-width: 0.8"/>
      </g>
     </g>
     <g id="text_20">
      <!-- D5 -->
      <g transform="translate(259.326232 328.6465)rotate(-90)scale(0.1 -0.1)">
       <use xlink:href="#DejaVuSans-44"/>
       <use xlink:href="#DejaVuSans-35" x="77.001953"/>
      </g>
     </g>
    </g>
    <g id="xtick_21">
     <g id="line2d_21">
      <g>
       <use xlink:href="#m67ee878db4" x="266.770286" y="307.584" style="stroke: #000000; stroke-width: 0.8"/>
      </g>
     </g>
     <g id="text_21">
      <!-- E1 -->
      <g transform="translate(269.529661 327.26525)rotate(-90)scale(0.1 -0.1)">
       <defs>
        <path id="DejaVuSans-45" d="M 628 4666 
L 3578 4666 
L 3578 4134 
L 1259 4134 
L 1259 2753 
L 3481 2753 
L 3481 2222 
L 1259 2222 
L 1259 531 
L 3634 531 
L 3634 0 
L 628 0 
L 628 4666 
z
" transform="scale(0.015625)"/>
       </defs>
       <use xlink:href="#DejaVuSans-45"/>
       <use xlink:href="#DejaVuSans-31" x="63.183594"/>
      </g>
     </g>
    </g>
    <g id="xtick_22">
     <g id="line2d_22">
      <g>
       <use xlink:href="#m67ee878db4" x="276.973714" y="307.584" style="stroke: #000000; stroke-width: 0.8"/>
      </g>
     </g>
     <g id="text_22">
      <!-- E2 -->
      <g transform="translate(279.733089 327.26525)rotate(-90)scale(0.1 -0.1)">
       <use xlink:href="#DejaVuSans-45"/>
       <use xlink:href="#DejaVuSans-32" x="63.183594"/>
      </g>
     </g>
    </g>
    <g id="xtick_23">
     <g id="line2d_23">
      <g>
       <use xlink:href="#m67ee878db4" x="287.177143" y="307.584" style="stroke: #000000; stroke-width: 0.8"/>
      </g>
     </g>
     <g id="text_23">
      <!-- E3 -->
      <g transform="translate(289.936518 327.26525)rotate(-90)scale(0.1 -0.1)">
       <use xlink:href="#DejaVuSans-45"/>
       <use xlink:href="#DejaVuSans-33" x="63.183594"/>
      </g>
     </g>
    </g>
    <g id="xtick_24">
     <g id="line2d_24">
      <g>
       <use xlink:href="#m67ee878db4" x="297.380571" y="307.584" style="stroke: #000000; stroke-width: 0.8"/>
      </g>
     </g>
     <g id="text_24">
      <!-- E4 -->
      <g transform="translate(300.139946 327.26525)rotate(-90)scale(0.1 -0.1)">
       <use xlink:href="#DejaVuSans-45"/>
       <use xlink:href="#DejaVuSans-34" x="63.183594"/>
      </g>
     </g>
    </g>
    <g id="xtick_25">
     <g id="line2d_25">
      <g>
       <use xlink:href="#m67ee878db4" x="307.584" y="307.584" style="stroke: #000000; stroke-width: 0.8"/>
      </g>
     </g>
     <g id="text_25">
      <!-- E5 -->
      <g transform="translate(310.343375 327.26525)rotate(-90)scale(0.1 -0.1)">
       <use xlink:href="#DejaVuSans-45"/>
       <use xlink:href="#DejaVuSans-35" x="63.183594"/>
      </g>
     </g>
    </g>
    <g id="xtick_26">
     <g id="line2d_26">
      <g>
       <use xlink:href="#m67ee878db4" x="317.787429" y="307.584" style="stroke: #000000; stroke-width: 0.8"/>
      </g>
     </g>
     <g id="text_26">
      <!-- F1 -->
      <g transform="translate(320.546804 326.698062)rotate(-90)scale(0.1 -0.1)">
       <defs>
        <path id="DejaVuSans-46" d="M 628 4666 
L 3309 4666 
L 3309 4134 
L 1259 4134 
L 1259 2759 
L 3109 2759 
L 3109 2228 
L 1259 2228 
L 1259 0 
L 628 0 
L 628 4666 
z
" transform="scale(0.015625)"/>
       </defs>
       <use xlink:href="#DejaVuSans-46"/>
       <use xlink:href="#DejaVuSans-31" x="57.519531"/>
      </g>
     </g>
    </g>
    <g id="xtick_27">
     <g id="line2d_27">
      <g>
       <use xlink:href="#m67ee878db4" x="327.990857" y="307.584" style="stroke: #000000; stroke-width: 0.8"/>
      </g>
     </g>
     <g id="text_27">
      <!-- F2 -->
      <g transform="translate(330.750232 326.698062)rotate(-90)scale(0.1 -0.1)">
       <use xlink:href="#DejaVuSans-46"/>
       <use xlink:href="#DejaVuSans-32" x="57.519531"/>
      </g>
     </g>
    </g>
    <g id="xtick_28">
     <g id="line2d_28">
      <g>
       <use xlink:href="#m67ee878db4" x="338.194286" y="307.584" style="stroke: #000000; stroke-width: 0.8"/>
      </g>
     </g>
     <g id="text_28">
      <!-- F3 -->
      <g transform="translate(340.953661 326.698062)rotate(-90)scale(0.1 -0.1)">
       <use xlink:href="#DejaVuSans-46"/>
       <use xlink:href="#DejaVuSans-33" x="57.519531"/>
      </g>
     </g>
    </g>
    <g id="xtick_29">
     <g id="line2d_29">
      <g>
       <use xlink:href="#m67ee878db4" x="348.397714" y="307.584" style="stroke: #000000; stroke-width: 0.8"/>
      </g>
     </g>
     <g id="text_29">
      <!-- F4 -->
      <g transform="translate(351.157089 326.698062)rotate(-90)scale(0.1 -0.1)">
       <use xlink:href="#DejaVuSans-46"/>
       <use xlink:href="#DejaVuSans-34" x="57.519531"/>
      </g>
     </g>
    </g>
    <g id="xtick_30">
     <g id="line2d_30">
      <g>
       <use xlink:href="#m67ee878db4" x="358.601143" y="307.584" style="stroke: #000000; stroke-width: 0.8"/>
      </g>
     </g>
     <g id="text_30">
      <!-- F5 -->
      <g transform="translate(361.360518 326.698062)rotate(-90)scale(0.1 -0.1)">
       <use xlink:href="#DejaVuSans-46"/>
       <use xlink:href="#DejaVuSans-35" x="57.519531"/>
      </g>
     </g>
    </g>
    <g id="xtick_31">
     <g id="line2d_31">
      <g>
       <use xlink:href="#m67ee878db4" x="368.804571" y="307.584" style="stroke: #000000; stroke-width: 0.8"/>
      </g>
     </g>
     <g id="text_31">
      <!-- G1 -->
      <g transform="translate(371.563946 328.694937)rotate(-90)scale(0.1 -0.1)">
       <defs>
        <path id="DejaVuSans-47" d="M 3809 666 
L 3809 1919 
L 2778 1919 
L 2778 2438 
L 4434 2438 
L 4434 434 
Q 4069 175 3628 42 
Q 3188 -91 2688 -91 
Q 1594 -91 976 548 
Q 359 1188 359 2328 
Q 359 3472 976 4111 
Q 1594 4750 2688 4750 
Q 3144 4750 3555 4637 
Q 3966 4525 4313 4306 
L 4313 3634 
Q 3963 3931 3569 4081 
Q 3175 4231 2741 4231 
Q 1884 4231 1454 3753 
Q 1025 3275 1025 2328 
Q 1025 1384 1454 906 
Q 1884 428 2741 428 
Q 3075 428 3337 486 
Q 3600 544 3809 666 
z
" transform="scale(0.015625)"/>
       </defs>
       <use xlink:href="#DejaVuSans-47"/>
       <use xlink:href="#DejaVuSans-31" x="77.490234"/>
      </g>
     </g>
    </g>
    <g id="xtick_32">
     <g id="line2d_32">
      <g>
       <use xlink:href="#m67ee878db4" x="379.008" y="307.584" style="stroke: #000000; stroke-width: 0.8"/>
      </g>
     </g>
     <g id="text_32">
      <!-- G2 -->
      <g transform="translate(381.767375 328.694937)rotate(-90)scale(0.1 -0.1)">
       <use xlink:href="#DejaVuSans-47"/>
       <use xlink:href="#DejaVuSans-32" x="77.490234"/>
      </g>
     </g>
    </g>
    <g id="xtick_33">
     <g id="line2d_33">
      <g>
       <use xlink:href="#m67ee878db4" x="389.211429" y="307.584" style="stroke: #000000; stroke-width: 0.8"/>
      </g>
     </g>
     <g id="text_33">
      <!-- G3 -->
      <g transform="translate(391.970804 328.694937)rotate(-90)scale(0.1 -0.1)">
       <use xlink:href="#DejaVuSans-47"/>
       <use xlink:href="#DejaVuSans-33" x="77.490234"/>
      </g>
     </g>
    </g>
    <g id="xtick_34">
     <g id="line2d_34">
      <g>
       <use xlink:href="#m67ee878db4" x="399.414857" y="307.584" style="stroke: #000000; stroke-width: 0.8"/>
      </g>
     </g>
     <g id="text_34">
      <!-- G4 -->
      <g transform="translate(402.174232 328.694937)rotate(-90)scale(0.1 -0.1)">
       <use xlink:href="#DejaVuSans-47"/>
       <use xlink:href="#DejaVuSans-34" x="77.490234"/>
      </g>
     </g>
    </g>
    <g id="xtick_35">
     <g id="line2d_35">
      <g>
       <use xlink:href="#m67ee878db4" x="409.618286" y="307.584" style="stroke: #000000; stroke-width: 0.8"/>
      </g>
     </g>
     <g id="text_35">
      <!-- G5 -->
      <g transform="translate(412.377661 328.694937)rotate(-90)scale(0.1 -0.1)">
       <use xlink:href="#DejaVuSans-47"/>
       <use xlink:href="#DejaVuSans-35" x="77.490234"/>
      </g>
     </g>
    </g>
    <g id="text_36">
     <!-- sub_class -->
     <g transform="translate(212.300625 340.293375)scale(0.1 -0.1)">
      <defs>
       <path id="DejaVuSans-73" d="M 2834 3397 
L 2834 2853 
Q 2591 2978 2328 3040 
Q 2066 3103 1784 3103 
Q 1356 3103 1142 2972 
Q 928 2841 928 2578 
Q 928 2378 1081 2264 
Q 1234 2150 1697 2047 
L 1894 2003 
Q 2506 1872 2764 1633 
Q 3022 1394 3022 966 
Q 3022 478 2636 193 
Q 2250 -91 1575 -91 
Q 1294 -91 989 -36 
Q 684 19 347 128 
L 347 722 
Q 666 556 975 473 
Q 1284 391 1588 391 
Q 1994 391 2212 530 
Q 2431 669 2431 922 
Q 2431 1156 2273 1281 
Q 2116 1406 1581 1522 
L 1381 1569 
Q 847 1681 609 1914 
Q 372 2147 372 2553 
Q 372 3047 722 3315 
Q 1072 3584 1716 3584 
Q 2034 3584 2315 3537 
Q 2597 3491 2834 3397 
z
" transform="scale(0.015625)"/>
       <path id="DejaVuSans-75" d="M 544 1381 
L 544 3500 
L 1119 3500 
L 1119 1403 
Q 1119 906 1312 657 
Q 1506 409 1894 409 
Q 2359 409 2629 706 
Q 2900 1003 2900 1516 
L 2900 3500 
L 3475 3500 
L 3475 0 
L 2900 0 
L 2900 538 
Q 2691 219 2414 64 
Q 2138 -91 1772 -91 
Q 1169 -91 856 284 
Q 544 659 544 1381 
z
M 1991 3584 
L 1991 3584 
z
" transform="scale(0.015625)"/>
       <path id="DejaVuSans-62" d="M 3116 1747 
Q 3116 2381 2855 2742 
Q 2594 3103 2138 3103 
Q 1681 3103 1420 2742 
Q 1159 2381 1159 1747 
Q 1159 1113 1420 752 
Q 1681 391 2138 391 
Q 2594 391 2855 752 
Q 3116 1113 3116 1747 
z
M 1159 2969 
Q 1341 3281 1617 3432 
Q 1894 3584 2278 3584 
Q 2916 3584 3314 3078 
Q 3713 2572 3713 1747 
Q 3713 922 3314 415 
Q 2916 -91 2278 -91 
Q 1894 -91 1617 61 
Q 1341 213 1159 525 
L 1159 0 
L 581 0 
L 581 4863 
L 1159 4863 
L 1159 2969 
z
" transform="scale(0.015625)"/>
       <path id="DejaVuSans-5f" d="M 3263 -1063 
L 3263 -1509 
L -63 -1509 
L -63 -1063 
L 3263 -1063 
z
" transform="scale(0.015625)"/>
       <path id="DejaVuSans-63" d="M 3122 3366 
L 3122 2828 
Q 2878 2963 2633 3030 
Q 2388 3097 2138 3097 
Q 1578 3097 1268 2742 
Q 959 2388 959 1747 
Q 959 1106 1268 751 
Q 1578 397 2138 397 
Q 2388 397 2633 464 
Q 2878 531 3122 666 
L 3122 134 
Q 2881 22 2623 -34 
Q 2366 -91 2075 -91 
Q 1284 -91 818 406 
Q 353 903 353 1747 
Q 353 2603 823 3093 
Q 1294 3584 2113 3584 
Q 2378 3584 2631 3529 
Q 2884 3475 3122 3366 
z
" transform="scale(0.015625)"/>
       <path id="DejaVuSans-6c" d="M 603 4863 
L 1178 4863 
L 1178 0 
L 603 0 
L 603 4863 
z
" transform="scale(0.015625)"/>
       <path id="DejaVuSans-61" d="M 2194 1759 
Q 1497 1759 1228 1600 
Q 959 1441 959 1056 
Q 959 750 1161 570 
Q 1363 391 1709 391 
Q 2188 391 2477 730 
Q 2766 1069 2766 1631 
L 2766 1759 
L 2194 1759 
z
M 3341 1997 
L 3341 0 
L 2766 0 
L 2766 531 
Q 2569 213 2275 61 
Q 1981 -91 1556 -91 
Q 1019 -91 701 211 
Q 384 513 384 1019 
Q 384 1609 779 1909 
Q 1175 2209 1959 2209 
L 2766 2209 
L 2766 2266 
Q 2766 2663 2505 2880 
Q 2244 3097 1772 3097 
Q 1472 3097 1187 3025 
Q 903 2953 641 2809 
L 641 3341 
Q 956 3463 1253 3523 
Q 1550 3584 1831 3584 
Q 2591 3584 2966 3190 
Q 3341 2797 3341 1997 
z
" transform="scale(0.015625)"/>
      </defs>
      <use xlink:href="#DejaVuSans-73"/>
      <use xlink:href="#DejaVuSans-75" x="52.099609"/>
      <use xlink:href="#DejaVuSans-62" x="115.478516"/>
      <use xlink:href="#DejaVuSans-5f" x="178.955078"/>
      <use xlink:href="#DejaVuSans-63" x="228.955078"/>
      <use xlink:href="#DejaVuSans-6c" x="283.935547"/>
      <use xlink:href="#DejaVuSans-61" x="311.71875"/>
      <use xlink:href="#DejaVuSans-73" x="372.998047"/>
      <use xlink:href="#DejaVuSans-73" x="425.097656"/>
     </g>
    </g>
   </g>
   <g id="matplotlib.axis_2">
    <g id="ytick_1">
     <g id="line2d_36">
      <defs>
       <path id="mb424bb1161" d="M 0 0 
L -3.5 0 
" style="stroke: #000000; stroke-width: 0.8"/>
      </defs>
      <g>
       <use xlink:href="#mb424bb1161" x="57.6" y="307.584" style="stroke: #000000; stroke-width: 0.8"/>
      </g>
     </g>
     <g id="text_37">
      <!-- 0 -->
      <g transform="translate(44.2375 311.383219)scale(0.1 -0.1)">
       <defs>
        <path id="DejaVuSans-30" d="M 2034 4250 
Q 1547 4250 1301 3770 
Q 1056 3291 1056 2328 
Q 1056 1369 1301 889 
Q 1547 409 2034 409 
Q 2525 409 2770 889 
Q 3016 1369 3016 2328 
Q 3016 3291 2770 3770 
Q 2525 4250 2034 4250 
z
M 2034 4750 
Q 2819 4750 3233 4129 
Q 3647 3509 3647 2328 
Q 3647 1150 3233 529 
Q 2819 -91 2034 -91 
Q 1250 -91 836 529 
Q 422 1150 422 2328 
Q 422 3509 836 4129 
Q 1250 4750 2034 4750 
z
" transform="scale(0.015625)"/>
       </defs>
       <use xlink:href="#DejaVuSans-30"/>
      </g>
     </g>
    </g>
    <g id="ytick_2">
     <g id="line2d_37">
      <g>
       <use xlink:href="#mb424bb1161" x="57.6" y="254.245054" style="stroke: #000000; stroke-width: 0.8"/>
      </g>
     </g>
     <g id="text_38">
      <!-- 10000 -->
      <g transform="translate(18.7875 258.044273)scale(0.1 -0.1)">
       <use xlink:href="#DejaVuSans-31"/>
       <use xlink:href="#DejaVuSans-30" x="63.623047"/>
       <use xlink:href="#DejaVuSans-30" x="127.246094"/>
       <use xlink:href="#DejaVuSans-30" x="190.869141"/>
       <use xlink:href="#DejaVuSans-30" x="254.492188"/>
      </g>
     </g>
    </g>
    <g id="ytick_3">
     <g id="line2d_38">
      <g>
       <use xlink:href="#mb424bb1161" x="57.6" y="200.906109" style="stroke: #000000; stroke-width: 0.8"/>
      </g>
     </g>
     <g id="text_39">
      <!-- 20000 -->
      <g transform="translate(18.7875 204.705328)scale(0.1 -0.1)">
       <use xlink:href="#DejaVuSans-32"/>
       <use xlink:href="#DejaVuSans-30" x="63.623047"/>
       <use xlink:href="#DejaVuSans-30" x="127.246094"/>
       <use xlink:href="#DejaVuSans-30" x="190.869141"/>
       <use xlink:href="#DejaVuSans-30" x="254.492188"/>
      </g>
     </g>
    </g>
    <g id="ytick_4">
     <g id="line2d_39">
      <g>
       <use xlink:href="#mb424bb1161" x="57.6" y="147.567163" style="stroke: #000000; stroke-width: 0.8"/>
      </g>
     </g>
     <g id="text_40">
      <!-- 30000 -->
      <g transform="translate(18.7875 151.366382)scale(0.1 -0.1)">
       <use xlink:href="#DejaVuSans-33"/>
       <use xlink:href="#DejaVuSans-30" x="63.623047"/>
       <use xlink:href="#DejaVuSans-30" x="127.246094"/>
       <use xlink:href="#DejaVuSans-30" x="190.869141"/>
       <use xlink:href="#DejaVuSans-30" x="254.492188"/>
      </g>
     </g>
    </g>
    <g id="ytick_5">
     <g id="line2d_40">
      <g>
       <use xlink:href="#mb424bb1161" x="57.6" y="94.228218" style="stroke: #000000; stroke-width: 0.8"/>
      </g>
     </g>
     <g id="text_41">
      <!-- 40000 -->
      <g transform="translate(18.7875 98.027436)scale(0.1 -0.1)">
       <use xlink:href="#DejaVuSans-34"/>
       <use xlink:href="#DejaVuSans-30" x="63.623047"/>
       <use xlink:href="#DejaVuSans-30" x="127.246094"/>
       <use xlink:href="#DejaVuSans-30" x="190.869141"/>
       <use xlink:href="#DejaVuSans-30" x="254.492188"/>
      </g>
     </g>
    </g>
   </g>
   <g id="patch_73">
    <path d="M 57.6 307.584 
L 57.6 41.472 
" style="fill: none; stroke: #000000; stroke-width: 0.8; stroke-linejoin: miter; stroke-linecap: square"/>
   </g>
   <g id="patch_74">
    <path d="M 414.72 307.584 
L 414.72 41.472 
" style="fill: none; stroke: #000000; stroke-width: 0.8; stroke-linejoin: miter; stroke-linecap: square"/>
   </g>
   <g id="patch_75">
    <path d="M 57.6 307.584 
L 414.72 307.584 
" style="fill: none; stroke: #000000; stroke-width: 0.8; stroke-linejoin: miter; stroke-linecap: square"/>
   </g>
   <g id="patch_76">
    <path d="M 57.6 41.472 
L 414.72 41.472 
" style="fill: none; stroke: #000000; stroke-width: 0.8; stroke-linejoin: miter; stroke-linecap: square"/>
   </g>
   <g id="legend_1">
    <g id="patch_77">
     <path d="M 359.195 93.506375 
L 407.72 93.506375 
Q 409.72 93.506375 409.72 91.506375 
L 409.72 48.472 
Q 409.72 46.472 407.72 46.472 
L 359.195 46.472 
Q 357.195 46.472 357.195 48.472 
L 357.195 91.506375 
Q 357.195 93.506375 359.195 93.506375 
z
" style="fill: #ffffff; opacity: 0.8; stroke: #cccccc; stroke-linejoin: miter"/>
    </g>
    <g id="text_42">
     <!-- isDefault -->
     <g transform="translate(361.195 58.070438)scale(0.1 -0.1)">
      <defs>
       <path id="DejaVuSans-69" d="M 603 3500 
L 1178 3500 
L 1178 0 
L 603 0 
L 603 3500 
z
M 603 4863 
L 1178 4863 
L 1178 4134 
L 603 4134 
L 603 4863 
z
" transform="scale(0.015625)"/>
       <path id="DejaVuSans-65" d="M 3597 1894 
L 3597 1613 
L 953 1613 
Q 991 1019 1311 708 
Q 1631 397 2203 397 
Q 2534 397 2845 478 
Q 3156 559 3463 722 
L 3463 178 
Q 3153 47 2828 -22 
Q 2503 -91 2169 -91 
Q 1331 -91 842 396 
Q 353 884 353 1716 
Q 353 2575 817 3079 
Q 1281 3584 2069 3584 
Q 2775 3584 3186 3129 
Q 3597 2675 3597 1894 
z
M 3022 2063 
Q 3016 2534 2758 2815 
Q 2500 3097 2075 3097 
Q 1594 3097 1305 2825 
Q 1016 2553 972 2059 
L 3022 2063 
z
" transform="scale(0.015625)"/>
       <path id="DejaVuSans-66" d="M 2375 4863 
L 2375 4384 
L 1825 4384 
Q 1516 4384 1395 4259 
Q 1275 4134 1275 3809 
L 1275 3500 
L 2222 3500 
L 2222 3053 
L 1275 3053 
L 1275 0 
L 697 0 
L 697 3053 
L 147 3053 
L 147 3500 
L 697 3500 
L 697 3744 
Q 697 4328 969 4595 
Q 1241 4863 1831 4863 
L 2375 4863 
z
" transform="scale(0.015625)"/>
       <path id="DejaVuSans-74" d="M 1172 4494 
L 1172 3500 
L 2356 3500 
L 2356 3053 
L 1172 3053 
L 1172 1153 
Q 1172 725 1289 603 
Q 1406 481 1766 481 
L 2356 481 
L 2356 0 
L 1766 0 
Q 1100 0 847 248 
Q 594 497 594 1153 
L 594 3053 
L 172 3053 
L 172 3500 
L 594 3500 
L 594 4494 
L 1172 4494 
z
" transform="scale(0.015625)"/>
      </defs>
      <use xlink:href="#DejaVuSans-69"/>
      <use xlink:href="#DejaVuSans-73" x="27.783203"/>
      <use xlink:href="#DejaVuSans-44" x="79.882812"/>
      <use xlink:href="#DejaVuSans-65" x="156.884766"/>
      <use xlink:href="#DejaVuSans-66" x="218.408203"/>
      <use xlink:href="#DejaVuSans-61" x="253.613281"/>
      <use xlink:href="#DejaVuSans-75" x="314.892578"/>
      <use xlink:href="#DejaVuSans-6c" x="378.271484"/>
      <use xlink:href="#DejaVuSans-74" x="406.054688"/>
     </g>
    </g>
    <g id="patch_78">
     <path d="M 366.27625 72.748563 
L 386.27625 72.748563 
L 386.27625 65.748563 
L 366.27625 65.748563 
z
" style="fill: #1f77b4"/>
    </g>
    <g id="text_43">
     <!-- 0 -->
     <g transform="translate(394.27625 72.748563)scale(0.1 -0.1)">
      <use xlink:href="#DejaVuSans-30"/>
     </g>
    </g>
    <g id="patch_79">
     <path d="M 366.27625 87.426688 
L 386.27625 87.426688 
L 386.27625 80.426688 
L 366.27625 80.426688 
z
" style="fill: #ff7f0e"/>
    </g>
    <g id="text_44">
     <!-- 1 -->
     <g transform="translate(394.27625 87.426688)scale(0.1 -0.1)">
      <use xlink:href="#DejaVuSans-31"/>
     </g>
    </g>
   </g>
  </g>
 </g>
 <defs>
  <clipPath id="pf25a72f67b">
   <rect x="57.6" y="41.472" width="357.12" height="266.112"/>
  </clipPath>
 </defs>
</svg>
