<?xml version="1.0" encoding="utf-8" standalone="no"?>
<!DOCTYPE svg PUBLIC "-//W3C//DTD SVG 1.1//EN"
  "http://www.w3.org/Graphics/SVG/1.1/DTD/svg11.dtd">
<svg xmlns:xlink="http://www.w3.org/1999/xlink" width="432pt" height="432pt" viewBox="0 0 432 432" xmlns="http://www.w3.org/2000/svg" version="1.1">
 <metadata>
  <rdf:RDF xmlns:dc="http://purl.org/dc/elements/1.1/" xmlns:cc="http://creativecommons.org/ns#" xmlns:rdf="http://www.w3.org/1999/02/22-rdf-syntax-ns#">
   <cc:Work>
    <dc:type rdf:resource="http://purl.org/dc/dcmitype/StillImage"/>
    <dc:date>2022-11-02T21:18:03.590697</dc:date>
    <dc:format>image/svg+xml</dc:format>
    <dc:creator>
     <cc:Agent>
      <dc:title>Matplotlib v3.5.1, https://matplotlib.org/</dc:title>
     </cc:Agent>
    </dc:creator>
   </cc:Work>
  </rdf:RDF>
 </metadata>
 <defs>
  <style type="text/css">*{stroke-linejoin: round; stroke-linecap: butt}</style>
 </defs>
 <g id="figure_1">
  <g id="patch_1">
   <path d="M 0 432 
L 432 432 
L 432 0 
L 0 0 
z
" style="fill: #ffffff"/>
  </g>
  <g id="axes_1">
   <g id="patch_2">
    <path d="M 54 384.48 
L 388.8 384.48 
L 388.8 51.84 
L 54 51.84 
z
" style="fill: #ffffff"/>
   </g>
   <g id="patch_3">
    <path d="M 129.2997 384.48 
L 132.983712 384.48 
L 132.983712 67.68 
L 129.2997 67.68 
z
" clip-path="url(#p636fd5b2af)" style="fill: #1f77b4; opacity: 0.4"/>
   </g>
   <g id="patch_4">
    <path d="M 132.983712 384.48 
L 136.667724 384.48 
L 136.667724 384.48 
L 132.983712 384.48 
z
" clip-path="url(#p636fd5b2af)" style="fill: #1f77b4; opacity: 0.4"/>
   </g>
   <g id="patch_5">
    <path d="M 136.667724 384.48 
L 140.351736 384.48 
L 140.351736 384.48 
L 136.667724 384.48 
z
" clip-path="url(#p636fd5b2af)" style="fill: #1f77b4; opacity: 0.4"/>
   </g>
   <g id="patch_6">
    <path d="M 140.351736 384.48 
L 144.035748 384.48 
L 144.035748 384.48 
L 140.351736 384.48 
z
" clip-path="url(#p636fd5b2af)" style="fill: #1f77b4; opacity: 0.4"/>
   </g>
   <g id="patch_7">
    <path d="M 144.035748 384.48 
L 147.71976 384.48 
L 147.71976 384.48 
L 144.035748 384.48 
z
" clip-path="url(#p636fd5b2af)" style="fill: #1f77b4; opacity: 0.4"/>
   </g>
   <g id="patch_8">
    <path d="M 147.71976 384.48 
L 151.403772 384.48 
L 151.403772 384.48 
L 147.71976 384.48 
z
" clip-path="url(#p636fd5b2af)" style="fill: #1f77b4; opacity: 0.4"/>
   </g>
   <g id="patch_9">
    <path d="M 151.403772 384.48 
L 155.087784 384.48 
L 155.087784 384.48 
L 151.403772 384.48 
z
" clip-path="url(#p636fd5b2af)" style="fill: #1f77b4; opacity: 0.4"/>
   </g>
   <g id="patch_10">
    <path d="M 155.087784 384.48 
L 158.771796 384.48 
L 158.771796 384.48 
L 155.087784 384.48 
z
" clip-path="url(#p636fd5b2af)" style="fill: #1f77b4; opacity: 0.4"/>
   </g>
   <g id="patch_11">
    <path d="M 158.771796 384.48 
L 162.455808 384.48 
L 162.455808 384.48 
L 158.771796 384.48 
z
" clip-path="url(#p636fd5b2af)" style="fill: #1f77b4; opacity: 0.4"/>
   </g>
   <g id="patch_12">
    <path d="M 162.455808 384.48 
L 166.13982 384.48 
L 166.13982 384.48 
L 162.455808 384.48 
z
" clip-path="url(#p636fd5b2af)" style="fill: #1f77b4; opacity: 0.4"/>
   </g>
   <g id="patch_13">
    <path d="M 166.13982 384.48 
L 169.823832 384.48 
L 169.823832 384.48 
L 166.13982 384.48 
z
" clip-path="url(#p636fd5b2af)" style="fill: #1f77b4; opacity: 0.4"/>
   </g>
   <g id="patch_14">
    <path d="M 169.823832 384.48 
L 173.507844 384.48 
L 173.507844 384.48 
L 169.823832 384.48 
z
" clip-path="url(#p636fd5b2af)" style="fill: #1f77b4; opacity: 0.4"/>
   </g>
   <g id="patch_15">
    <path d="M 173.507844 384.48 
L 177.191856 384.48 
L 177.191856 384.48 
L 173.507844 384.48 
z
" clip-path="url(#p636fd5b2af)" style="fill: #1f77b4; opacity: 0.4"/>
   </g>
   <g id="patch_16">
    <path d="M 177.191856 384.48 
L 180.875868 384.48 
L 180.875868 384.48 
L 177.191856 384.48 
z
" clip-path="url(#p636fd5b2af)" style="fill: #1f77b4; opacity: 0.4"/>
   </g>
   <g id="patch_17">
    <path d="M 180.875868 384.48 
L 184.55988 384.48 
L 184.55988 384.48 
L 180.875868 384.48 
z
" clip-path="url(#p636fd5b2af)" style="fill: #1f77b4; opacity: 0.4"/>
   </g>
   <g id="patch_18">
    <path d="M 184.55988 384.48 
L 188.243892 384.48 
L 188.243892 384.48 
L 184.55988 384.48 
z
" clip-path="url(#p636fd5b2af)" style="fill: #1f77b4; opacity: 0.4"/>
   </g>
   <g id="patch_19">
    <path d="M 188.243892 384.48 
L 191.927904 384.48 
L 191.927904 384.48 
L 188.243892 384.48 
z
" clip-path="url(#p636fd5b2af)" style="fill: #1f77b4; opacity: 0.4"/>
   </g>
   <g id="patch_20">
    <path d="M 191.927904 384.48 
L 195.611916 384.48 
L 195.611916 384.48 
L 191.927904 384.48 
z
" clip-path="url(#p636fd5b2af)" style="fill: #1f77b4; opacity: 0.4"/>
   </g>
   <g id="patch_21">
    <path d="M 195.611916 384.48 
L 199.295928 384.48 
L 199.295928 384.48 
L 195.611916 384.48 
z
" clip-path="url(#p636fd5b2af)" style="fill: #1f77b4; opacity: 0.4"/>
   </g>
   <g id="patch_22">
    <path d="M 199.295928 384.48 
L 202.97994 384.48 
L 202.97994 384.48 
L 199.295928 384.48 
z
" clip-path="url(#p636fd5b2af)" style="fill: #1f77b4; opacity: 0.4"/>
   </g>
   <g id="patch_23">
    <path d="M 202.97994 384.48 
L 206.663952 384.48 
L 206.663952 384.48 
L 202.97994 384.48 
z
" clip-path="url(#p636fd5b2af)" style="fill: #1f77b4; opacity: 0.4"/>
   </g>
   <g id="patch_24">
    <path d="M 206.663952 384.48 
L 210.347964 384.48 
L 210.347964 384.48 
L 206.663952 384.48 
z
" clip-path="url(#p636fd5b2af)" style="fill: #1f77b4; opacity: 0.4"/>
   </g>
   <g id="patch_25">
    <path d="M 210.347964 384.48 
L 214.031976 384.48 
L 214.031976 384.48 
L 210.347964 384.48 
z
" clip-path="url(#p636fd5b2af)" style="fill: #1f77b4; opacity: 0.4"/>
   </g>
   <g id="patch_26">
    <path d="M 214.031976 384.48 
L 217.715988 384.48 
L 217.715988 384.48 
L 214.031976 384.48 
z
" clip-path="url(#p636fd5b2af)" style="fill: #1f77b4; opacity: 0.4"/>
   </g>
   <g id="patch_27">
    <path d="M 217.715988 384.48 
L 221.4 384.48 
L 221.4 384.48 
L 217.715988 384.48 
z
" clip-path="url(#p636fd5b2af)" style="fill: #1f77b4; opacity: 0.4"/>
   </g>
   <g id="patch_28">
    <path d="M 221.4 384.48 
L 225.084012 384.48 
L 225.084012 384.48 
L 221.4 384.48 
z
" clip-path="url(#p636fd5b2af)" style="fill: #1f77b4; opacity: 0.4"/>
   </g>
   <g id="patch_29">
    <path d="M 225.084012 384.48 
L 228.768024 384.48 
L 228.768024 384.48 
L 225.084012 384.48 
z
" clip-path="url(#p636fd5b2af)" style="fill: #1f77b4; opacity: 0.4"/>
   </g>
   <g id="patch_30">
    <path d="M 228.768024 384.48 
L 232.452036 384.48 
L 232.452036 384.48 
L 228.768024 384.48 
z
" clip-path="url(#p636fd5b2af)" style="fill: #1f77b4; opacity: 0.4"/>
   </g>
   <g id="patch_31">
    <path d="M 232.452036 384.48 
L 236.136048 384.48 
L 236.136048 384.48 
L 232.452036 384.48 
z
" clip-path="url(#p636fd5b2af)" style="fill: #1f77b4; opacity: 0.4"/>
   </g>
   <g id="patch_32">
    <path d="M 236.136048 384.48 
L 239.82006 384.48 
L 239.82006 384.48 
L 236.136048 384.48 
z
" clip-path="url(#p636fd5b2af)" style="fill: #1f77b4; opacity: 0.4"/>
   </g>
   <g id="patch_33">
    <path d="M 239.82006 384.48 
L 243.504072 384.48 
L 243.504072 384.48 
L 239.82006 384.48 
z
" clip-path="url(#p636fd5b2af)" style="fill: #1f77b4; opacity: 0.4"/>
   </g>
   <g id="patch_34">
    <path d="M 243.504072 384.48 
L 247.188084 384.48 
L 247.188084 384.48 
L 243.504072 384.48 
z
" clip-path="url(#p636fd5b2af)" style="fill: #1f77b4; opacity: 0.4"/>
   </g>
   <g id="patch_35">
    <path d="M 247.188084 384.48 
L 250.872096 384.48 
L 250.872096 384.48 
L 247.188084 384.48 
z
" clip-path="url(#p636fd5b2af)" style="fill: #1f77b4; opacity: 0.4"/>
   </g>
   <g id="patch_36">
    <path d="M 250.872096 384.48 
L 254.556108 384.48 
L 254.556108 384.48 
L 250.872096 384.48 
z
" clip-path="url(#p636fd5b2af)" style="fill: #1f77b4; opacity: 0.4"/>
   </g>
   <g id="patch_37">
    <path d="M 254.556108 384.48 
L 258.24012 384.48 
L 258.24012 384.48 
L 254.556108 384.48 
z
" clip-path="url(#p636fd5b2af)" style="fill: #1f77b4; opacity: 0.4"/>
   </g>
   <g id="patch_38">
    <path d="M 258.24012 384.48 
L 261.924132 384.48 
L 261.924132 384.48 
L 258.24012 384.48 
z
" clip-path="url(#p636fd5b2af)" style="fill: #1f77b4; opacity: 0.4"/>
   </g>
   <g id="patch_39">
    <path d="M 261.924132 384.48 
L 265.608144 384.48 
L 265.608144 384.48 
L 261.924132 384.48 
z
" clip-path="url(#p636fd5b2af)" style="fill: #1f77b4; opacity: 0.4"/>
   </g>
   <g id="patch_40">
    <path d="M 265.608144 384.48 
L 269.292156 384.48 
L 269.292156 384.48 
L 265.608144 384.48 
z
" clip-path="url(#p636fd5b2af)" style="fill: #1f77b4; opacity: 0.4"/>
   </g>
   <g id="patch_41">
    <path d="M 269.292156 384.48 
L 272.976168 384.48 
L 272.976168 384.48 
L 269.292156 384.48 
z
" clip-path="url(#p636fd5b2af)" style="fill: #1f77b4; opacity: 0.4"/>
   </g>
   <g id="patch_42">
    <path d="M 272.976168 384.48 
L 276.66018 384.48 
L 276.66018 384.48 
L 272.976168 384.48 
z
" clip-path="url(#p636fd5b2af)" style="fill: #1f77b4; opacity: 0.4"/>
   </g>
   <g id="patch_43">
    <path d="M 276.66018 384.48 
L 280.344192 384.48 
L 280.344192 384.48 
L 276.66018 384.48 
z
" clip-path="url(#p636fd5b2af)" style="fill: #1f77b4; opacity: 0.4"/>
   </g>
   <g id="patch_44">
    <path d="M 280.344192 384.48 
L 284.028204 384.48 
L 284.028204 384.48 
L 280.344192 384.48 
z
" clip-path="url(#p636fd5b2af)" style="fill: #1f77b4; opacity: 0.4"/>
   </g>
   <g id="patch_45">
    <path d="M 284.028204 384.48 
L 287.712216 384.48 
L 287.712216 384.48 
L 284.028204 384.48 
z
" clip-path="url(#p636fd5b2af)" style="fill: #1f77b4; opacity: 0.4"/>
   </g>
   <g id="patch_46">
    <path d="M 287.712216 384.48 
L 291.396228 384.48 
L 291.396228 384.48 
L 287.712216 384.48 
z
" clip-path="url(#p636fd5b2af)" style="fill: #1f77b4; opacity: 0.4"/>
   </g>
   <g id="patch_47">
    <path d="M 291.396228 384.48 
L 295.08024 384.48 
L 295.08024 384.48 
L 291.396228 384.48 
z
" clip-path="url(#p636fd5b2af)" style="fill: #1f77b4; opacity: 0.4"/>
   </g>
   <g id="patch_48">
    <path d="M 295.08024 384.48 
L 298.764252 384.48 
L 298.764252 384.48 
L 295.08024 384.48 
z
" clip-path="url(#p636fd5b2af)" style="fill: #1f77b4; opacity: 0.4"/>
   </g>
   <g id="patch_49">
    <path d="M 298.764252 384.48 
L 302.448264 384.48 
L 302.448264 384.48 
L 298.764252 384.48 
z
" clip-path="url(#p636fd5b2af)" style="fill: #1f77b4; opacity: 0.4"/>
   </g>
   <g id="patch_50">
    <path d="M 302.448264 384.48 
L 306.132276 384.48 
L 306.132276 384.48 
L 302.448264 384.48 
z
" clip-path="url(#p636fd5b2af)" style="fill: #1f77b4; opacity: 0.4"/>
   </g>
   <g id="patch_51">
    <path d="M 306.132276 384.48 
L 309.816288 384.48 
L 309.816288 384.48 
L 306.132276 384.48 
z
" clip-path="url(#p636fd5b2af)" style="fill: #1f77b4; opacity: 0.4"/>
   </g>
   <g id="patch_52">
    <path d="M 309.816288 384.48 
L 313.5003 384.48 
L 313.5003 297.537187 
L 309.816288 297.537187 
z
" clip-path="url(#p636fd5b2af)" style="fill: #1f77b4; opacity: 0.4"/>
   </g>
   <g id="patch_53">
    <path d="M 129.2997 384.48 
L 159.9998 384.48 
L 159.9998 353.504794 
L 129.2997 353.504794 
z
" clip-path="url(#p636fd5b2af)" style="fill: #ff7f0e; opacity: 0.4"/>
   </g>
   <g id="patch_54">
    <path d="M 159.9998 384.48 
L 190.6999 384.48 
L 190.6999 384.48 
L 159.9998 384.48 
z
" clip-path="url(#p636fd5b2af)" style="fill: #ff7f0e; opacity: 0.4"/>
   </g>
   <g id="patch_55">
    <path d="M 190.6999 384.48 
L 221.4 384.48 
L 221.4 384.48 
L 190.6999 384.48 
z
" clip-path="url(#p636fd5b2af)" style="fill: #ff7f0e; opacity: 0.4"/>
   </g>
   <g id="patch_56">
    <path d="M 221.4 384.48 
L 252.1001 384.48 
L 252.1001 384.48 
L 221.4 384.48 
z
" clip-path="url(#p636fd5b2af)" style="fill: #ff7f0e; opacity: 0.4"/>
   </g>
   <g id="patch_57">
    <path d="M 252.1001 384.48 
L 282.8002 384.48 
L 282.8002 384.48 
L 252.1001 384.48 
z
" clip-path="url(#p636fd5b2af)" style="fill: #ff7f0e; opacity: 0.4"/>
   </g>
   <g id="patch_58">
    <path d="M 282.8002 384.48 
L 313.5003 384.48 
L 313.5003 367.006069 
L 282.8002 367.006069 
z
" clip-path="url(#p636fd5b2af)" style="fill: #ff7f0e; opacity: 0.4"/>
   </g>
   <g id="matplotlib.axis_1">
    <g id="xtick_1">
     <g id="line2d_1">
      <defs>
       <path id="m5ef1a124ba" d="M 0 0 
L 0 3.5 
" style="stroke: #000000; stroke-width: 0.8"/>
      </defs>
      <g>
       <use xlink:href="#m5ef1a124ba" x="83.24955" y="384.48" style="stroke: #000000; stroke-width: 0.8"/>
      </g>
     </g>
     <g id="text_1">
      <!-- 2.5 -->
      <g transform="translate(75.74955 398.355)scale(0.1 -0.1)">
       <defs>
        <path id="SimHei-32" d="M 300 250 
Q 325 625 650 925 
Q 975 1225 1475 1862 
Q 1975 2500 2125 2850 
Q 2275 3200 2237 3450 
Q 2200 3700 2000 3862 
Q 1800 4025 1537 4000 
Q 1275 3975 1037 3800 
Q 800 3625 675 3275 
L 200 3350 
Q 400 3925 712 4187 
Q 1025 4450 1450 4475 
Q 1700 4500 1900 4462 
Q 2100 4425 2312 4287 
Q 2525 4150 2662 3875 
Q 2800 3600 2762 3212 
Q 2725 2825 2375 2287 
Q 2025 1750 1025 600 
L 2825 600 
L 2825 150 
L 300 150 
L 300 250 
z
" transform="scale(0.015625)"/>
        <path id="SimHei-2e" d="M 1075 125 
L 500 125 
L 500 675 
L 1075 675 
L 1075 125 
z
" transform="scale(0.015625)"/>
        <path id="SimHei-35" d="M 550 1325 
Q 725 650 1150 575 
Q 1575 500 1837 662 
Q 2100 825 2212 1087 
Q 2325 1350 2312 1675 
Q 2300 2000 2137 2225 
Q 1975 2450 1725 2525 
Q 1475 2600 1162 2525 
Q 850 2450 650 2175 
L 225 2225 
Q 275 2375 700 4375 
L 2675 4375 
L 2675 3925 
L 1075 3925 
Q 950 3250 825 2850 
Q 1200 3025 1525 3012 
Q 1850 3000 2150 2862 
Q 2450 2725 2587 2487 
Q 2725 2250 2787 2012 
Q 2850 1775 2837 1500 
Q 2825 1225 2725 937 
Q 2625 650 2425 462 
Q 2225 275 1937 162 
Q 1650 50 1275 75 
Q 900 100 562 350 
Q 225 600 100 1200 
L 550 1325 
z
" transform="scale(0.015625)"/>
       </defs>
       <use xlink:href="#SimHei-32"/>
       <use xlink:href="#SimHei-2e" x="50"/>
       <use xlink:href="#SimHei-35" x="100"/>
      </g>
     </g>
    </g>
    <g id="xtick_2">
     <g id="line2d_2">
      <g>
       <use xlink:href="#m5ef1a124ba" x="129.2997" y="384.48" style="stroke: #000000; stroke-width: 0.8"/>
      </g>
     </g>
     <g id="text_2">
      <!-- 3.0 -->
      <g transform="translate(121.7997 398.355)scale(0.1 -0.1)">
       <defs>
        <path id="SimHei-33" d="M 250 1225 
L 700 1300 
Q 800 975 1025 762 
Q 1250 550 1587 562 
Q 1925 575 2125 837 
Q 2325 1100 2300 1437 
Q 2275 1775 2037 1962 
Q 1800 2150 1275 2225 
L 1275 2550 
Q 1800 2600 2037 2825 
Q 2275 3050 2250 3412 
Q 2225 3775 1925 3937 
Q 1625 4100 1287 3975 
Q 950 3850 750 3275 
L 300 3350 
Q 450 3800 712 4100 
Q 975 4400 1425 4450 
Q 1875 4500 2212 4337 
Q 2550 4175 2687 3837 
Q 2825 3500 2725 3100 
Q 2625 2700 2150 2400 
Q 2500 2250 2687 1950 
Q 2875 1650 2812 1162 
Q 2750 675 2375 375 
Q 2000 75 1525 87 
Q 1050 100 700 387 
Q 350 675 250 1225 
z
" transform="scale(0.015625)"/>
        <path id="SimHei-30" d="M 225 2537 
Q 250 3200 412 3587 
Q 575 3975 875 4225 
Q 1175 4475 1612 4475 
Q 2050 4475 2375 4112 
Q 2700 3750 2800 3200 
Q 2900 2650 2862 1937 
Q 2825 1225 2612 775 
Q 2400 325 1975 150 
Q 1550 -25 1125 187 
Q 700 400 525 750 
Q 350 1100 275 1487 
Q 200 1875 225 2537 
z
M 750 2687 
Q 675 2000 800 1462 
Q 925 925 1212 700 
Q 1500 475 1800 612 
Q 2100 750 2237 1162 
Q 2375 1575 2375 2062 
Q 2375 2550 2337 2950 
Q 2300 3350 2112 3675 
Q 1925 4000 1612 4012 
Q 1300 4025 1062 3700 
Q 825 3375 750 2687 
z
" transform="scale(0.015625)"/>
       </defs>
       <use xlink:href="#SimHei-33"/>
       <use xlink:href="#SimHei-2e" x="50"/>
       <use xlink:href="#SimHei-30" x="100"/>
      </g>
     </g>
    </g>
    <g id="xtick_3">
     <g id="line2d_3">
      <g>
       <use xlink:href="#m5ef1a124ba" x="175.34985" y="384.48" style="stroke: #000000; stroke-width: 0.8"/>
      </g>
     </g>
     <g id="text_3">
      <!-- 3.5 -->
      <g transform="translate(167.84985 398.355)scale(0.1 -0.1)">
       <use xlink:href="#SimHei-33"/>
       <use xlink:href="#SimHei-2e" x="50"/>
       <use xlink:href="#SimHei-35" x="100"/>
      </g>
     </g>
    </g>
    <g id="xtick_4">
     <g id="line2d_4">
      <g>
       <use xlink:href="#m5ef1a124ba" x="221.4" y="384.48" style="stroke: #000000; stroke-width: 0.8"/>
      </g>
     </g>
     <g id="text_4">
      <!-- 4.0 -->
      <g transform="translate(213.9 398.355)scale(0.1 -0.1)">
       <defs>
        <path id="SimHei-34" d="M 2000 1100 
L 75 1100 
L 75 1525 
L 2100 4450 
L 2475 4450 
L 2475 1525 
L 3075 1525 
L 3075 1100 
L 2475 1100 
L 2475 150 
L 2000 150 
L 2000 1100 
z
M 2000 1525 
L 2000 3500 
L 600 1525 
L 2000 1525 
z
" transform="scale(0.015625)"/>
       </defs>
       <use xlink:href="#SimHei-34"/>
       <use xlink:href="#SimHei-2e" x="50"/>
       <use xlink:href="#SimHei-30" x="100"/>
      </g>
     </g>
    </g>
    <g id="xtick_5">
     <g id="line2d_5">
      <g>
       <use xlink:href="#m5ef1a124ba" x="267.45015" y="384.48" style="stroke: #000000; stroke-width: 0.8"/>
      </g>
     </g>
     <g id="text_5">
      <!-- 4.5 -->
      <g transform="translate(259.95015 398.355)scale(0.1 -0.1)">
       <use xlink:href="#SimHei-34"/>
       <use xlink:href="#SimHei-2e" x="50"/>
       <use xlink:href="#SimHei-35" x="100"/>
      </g>
     </g>
    </g>
    <g id="xtick_6">
     <g id="line2d_6">
      <g>
       <use xlink:href="#m5ef1a124ba" x="313.5003" y="384.48" style="stroke: #000000; stroke-width: 0.8"/>
      </g>
     </g>
     <g id="text_6">
      <!-- 5.0 -->
      <g transform="translate(306.0003 398.355)scale(0.1 -0.1)">
       <use xlink:href="#SimHei-35"/>
       <use xlink:href="#SimHei-2e" x="50"/>
       <use xlink:href="#SimHei-30" x="100"/>
      </g>
     </g>
    </g>
    <g id="xtick_7">
     <g id="line2d_7">
      <g>
       <use xlink:href="#m5ef1a124ba" x="359.55045" y="384.48" style="stroke: #000000; stroke-width: 0.8"/>
      </g>
     </g>
     <g id="text_7">
      <!-- 5.5 -->
      <g transform="translate(352.05045 398.355)scale(0.1 -0.1)">
       <use xlink:href="#SimHei-35"/>
       <use xlink:href="#SimHei-2e" x="50"/>
       <use xlink:href="#SimHei-35" x="100"/>
      </g>
     </g>
    </g>
    <g id="text_8">
     <!-- year_of_loan -->
     <g transform="translate(191.4 410.558125)scale(0.1 -0.1)">
      <defs>
       <path id="SimHei-79" d="M 2900 2925 
L 1750 -100 
Q 1650 -450 1450 -625 
Q 1250 -800 950 -800 
Q 825 -800 712 -787 
Q 600 -775 500 -725 
L 500 -225 
Q 600 -275 700 -300 
Q 800 -325 875 -325 
Q 1075 -325 1150 -262 
Q 1225 -200 1300 25 
L 200 2925 
L 750 2925 
L 1550 725 
L 1575 725 
L 2350 2925 
L 2900 2925 
z
" transform="scale(0.015625)"/>
       <path id="SimHei-65" d="M 2850 1075 
Q 2800 625 2450 350 
Q 2100 75 1625 75 
Q 1025 75 637 462 
Q 250 850 250 1525 
Q 250 2200 637 2587 
Q 1025 2975 1625 2975 
Q 2150 2975 2487 2637 
Q 2825 2300 2825 1525 
L 800 1525 
Q 800 975 1037 750 
Q 1275 525 1625 525 
Q 1900 525 2075 662 
Q 2250 800 2300 1075 
L 2850 1075 
z
M 2250 1925 
Q 2200 2275 2025 2412 
Q 1850 2550 1575 2550 
Q 1325 2550 1125 2412 
Q 925 2275 825 1925 
L 2250 1925 
z
" transform="scale(0.015625)"/>
       <path id="SimHei-61" d="M 2875 125 
L 2275 125 
Q 2225 175 2200 262 
Q 2175 350 2175 475 
Q 2000 275 1750 175 
Q 1500 75 1225 75 
Q 825 75 550 275 
Q 275 475 275 850 
Q 275 1225 525 1450 
Q 775 1675 1300 1750 
Q 1650 1800 1912 1875 
Q 2175 1950 2175 2075 
Q 2175 2225 2062 2375 
Q 1950 2525 1575 2525 
Q 1275 2525 1137 2412 
Q 1000 2300 950 2100 
L 400 2100 
Q 450 2500 762 2737 
Q 1075 2975 1575 2975 
Q 2125 2975 2400 2725 
Q 2675 2475 2675 2025 
L 2675 650 
Q 2675 500 2725 375 
Q 2775 250 2875 125 
z
M 2175 1050 
L 2175 1550 
Q 2025 1500 1887 1462 
Q 1750 1425 1425 1375 
Q 1050 1325 937 1200 
Q 825 1075 825 900 
Q 825 750 937 637 
Q 1050 525 1275 525 
Q 1500 525 1762 650 
Q 2025 775 2175 1050 
z
" transform="scale(0.015625)"/>
       <path id="SimHei-72" d="M 2500 2425 
Q 2025 2500 1700 2287 
Q 1375 2075 1150 1550 
L 1150 125 
L 650 125 
L 650 2925 
L 1150 2925 
L 1150 2200 
Q 1375 2600 1712 2787 
Q 2050 2975 2500 2975 
L 2500 2425 
z
" transform="scale(0.015625)"/>
       <path id="SimHei-5f" d="M 3150 -850 
L 0 -850 
L 0 -550 
L 3150 -550 
L 3150 -850 
z
" transform="scale(0.015625)"/>
       <path id="SimHei-6f" d="M 2925 1525 
Q 2925 875 2525 475 
Q 2125 75 1575 75 
Q 1025 75 625 475 
Q 225 875 225 1525 
Q 225 2175 625 2575 
Q 1025 2975 1575 2975 
Q 2125 2975 2525 2575 
Q 2925 2175 2925 1525 
z
M 2375 1525 
Q 2375 2025 2125 2275 
Q 1875 2525 1575 2525 
Q 1275 2525 1025 2275 
Q 775 2025 775 1525 
Q 775 1025 1025 775 
Q 1275 525 1575 525 
Q 1875 525 2125 775 
Q 2375 1025 2375 1525 
z
" transform="scale(0.015625)"/>
       <path id="SimHei-66" d="M 2850 3825 
Q 2725 3900 2550 3950 
Q 2375 4000 2100 4000 
Q 1825 4000 1725 3862 
Q 1625 3725 1625 3525 
L 1625 2925 
L 2650 2925 
L 2650 2525 
L 1625 2525 
L 1625 125 
L 1125 125 
L 1125 2525 
L 275 2525 
L 275 2925 
L 1125 2925 
L 1125 3500 
Q 1125 3950 1400 4200 
Q 1675 4450 2125 4450 
Q 2400 4450 2562 4412 
Q 2725 4375 2850 4325 
L 2850 3825 
z
" transform="scale(0.015625)"/>
       <path id="SimHei-6c" d="M 1825 125 
L 1325 125 
L 1325 4400 
L 1825 4400 
L 1825 125 
z
" transform="scale(0.015625)"/>
       <path id="SimHei-6e" d="M 2800 125 
L 2300 125 
L 2300 1925 
Q 2300 2225 2150 2400 
Q 2000 2575 1750 2575 
Q 1425 2575 1137 2237 
Q 850 1900 850 1400 
L 850 125 
L 350 125 
L 350 2925 
L 850 2925 
L 850 2400 
Q 1050 2675 1287 2825 
Q 1525 2975 1900 2975 
Q 2350 2975 2575 2725 
Q 2800 2475 2800 2100 
L 2800 125 
z
" transform="scale(0.015625)"/>
      </defs>
      <use xlink:href="#SimHei-79"/>
      <use xlink:href="#SimHei-65" x="50"/>
      <use xlink:href="#SimHei-61" x="100"/>
      <use xlink:href="#SimHei-72" x="150"/>
      <use xlink:href="#SimHei-5f" x="200"/>
      <use xlink:href="#SimHei-6f" x="250"/>
      <use xlink:href="#SimHei-66" x="300"/>
      <use xlink:href="#SimHei-5f" x="350"/>
      <use xlink:href="#SimHei-6c" x="400"/>
      <use xlink:href="#SimHei-6f" x="450"/>
      <use xlink:href="#SimHei-61" x="500"/>
      <use xlink:href="#SimHei-6e" x="550"/>
     </g>
    </g>
   </g>
   <g id="matplotlib.axis_2">
    <g id="ytick_1">
     <g id="line2d_8">
      <defs>
       <path id="m92cfcb1210" d="M 0 0 
L -3.5 0 
" style="stroke: #000000; stroke-width: 0.8"/>
      </defs>
      <g>
       <use xlink:href="#m92cfcb1210" x="54" y="384.48" style="stroke: #000000; stroke-width: 0.8"/>
      </g>
     </g>
     <g id="text_9">
      <!-- 0.0 -->
      <g transform="translate(32 387.9175)scale(0.1 -0.1)">
       <use xlink:href="#SimHei-30"/>
       <use xlink:href="#SimHei-2e" x="50"/>
       <use xlink:href="#SimHei-30" x="100"/>
      </g>
     </g>
    </g>
    <g id="ytick_2">
     <g id="line2d_9">
      <g>
       <use xlink:href="#m92cfcb1210" x="54" y="344.105719" style="stroke: #000000; stroke-width: 0.8"/>
      </g>
     </g>
     <g id="text_10">
      <!-- 2.5 -->
      <g transform="translate(32 347.543219)scale(0.1 -0.1)">
       <use xlink:href="#SimHei-32"/>
       <use xlink:href="#SimHei-2e" x="50"/>
       <use xlink:href="#SimHei-35" x="100"/>
      </g>
     </g>
    </g>
    <g id="ytick_3">
     <g id="line2d_10">
      <g>
       <use xlink:href="#m92cfcb1210" x="54" y="303.731437" style="stroke: #000000; stroke-width: 0.8"/>
      </g>
     </g>
     <g id="text_11">
      <!-- 5.0 -->
      <g transform="translate(32 307.168937)scale(0.1 -0.1)">
       <use xlink:href="#SimHei-35"/>
       <use xlink:href="#SimHei-2e" x="50"/>
       <use xlink:href="#SimHei-30" x="100"/>
      </g>
     </g>
    </g>
    <g id="ytick_4">
     <g id="line2d_11">
      <g>
       <use xlink:href="#m92cfcb1210" x="54" y="263.357156" style="stroke: #000000; stroke-width: 0.8"/>
      </g>
     </g>
     <g id="text_12">
      <!-- 7.5 -->
      <g transform="translate(32 266.794656)scale(0.1 -0.1)">
       <defs>
        <path id="SimHei-37" d="M 850 150 
Q 1300 2050 2425 3925 
L 275 3925 
L 275 4375 
L 2950 4375 
L 2950 3950 
Q 1775 2050 1400 150 
L 850 150 
z
" transform="scale(0.015625)"/>
       </defs>
       <use xlink:href="#SimHei-37"/>
       <use xlink:href="#SimHei-2e" x="50"/>
       <use xlink:href="#SimHei-35" x="100"/>
      </g>
     </g>
    </g>
    <g id="ytick_5">
     <g id="line2d_12">
      <g>
       <use xlink:href="#m92cfcb1210" x="54" y="222.982875" style="stroke: #000000; stroke-width: 0.8"/>
      </g>
     </g>
     <g id="text_13">
      <!-- 10.0 -->
      <g transform="translate(27 226.420375)scale(0.1 -0.1)">
       <defs>
        <path id="SimHei-31" d="M 1400 3600 
Q 1075 3275 575 2975 
L 575 3450 
Q 1200 3875 1600 4450 
L 1900 4450 
L 1900 150 
L 1400 150 
L 1400 3600 
z
" transform="scale(0.015625)"/>
       </defs>
       <use xlink:href="#SimHei-31"/>
       <use xlink:href="#SimHei-30" x="50"/>
       <use xlink:href="#SimHei-2e" x="100"/>
       <use xlink:href="#SimHei-30" x="150"/>
      </g>
     </g>
    </g>
    <g id="ytick_6">
     <g id="line2d_13">
      <g>
       <use xlink:href="#m92cfcb1210" x="54" y="182.608593" style="stroke: #000000; stroke-width: 0.8"/>
      </g>
     </g>
     <g id="text_14">
      <!-- 12.5 -->
      <g transform="translate(27 186.046093)scale(0.1 -0.1)">
       <use xlink:href="#SimHei-31"/>
       <use xlink:href="#SimHei-32" x="50"/>
       <use xlink:href="#SimHei-2e" x="100"/>
       <use xlink:href="#SimHei-35" x="150"/>
      </g>
     </g>
    </g>
    <g id="ytick_7">
     <g id="line2d_14">
      <g>
       <use xlink:href="#m92cfcb1210" x="54" y="142.234312" style="stroke: #000000; stroke-width: 0.8"/>
      </g>
     </g>
     <g id="text_15">
      <!-- 15.0 -->
      <g transform="translate(27 145.671812)scale(0.1 -0.1)">
       <use xlink:href="#SimHei-31"/>
       <use xlink:href="#SimHei-35" x="50"/>
       <use xlink:href="#SimHei-2e" x="100"/>
       <use xlink:href="#SimHei-30" x="150"/>
      </g>
     </g>
    </g>
    <g id="ytick_8">
     <g id="line2d_15">
      <g>
       <use xlink:href="#m92cfcb1210" x="54" y="101.860031" style="stroke: #000000; stroke-width: 0.8"/>
      </g>
     </g>
     <g id="text_16">
      <!-- 17.5 -->
      <g transform="translate(27 105.297531)scale(0.1 -0.1)">
       <use xlink:href="#SimHei-31"/>
       <use xlink:href="#SimHei-37" x="50"/>
       <use xlink:href="#SimHei-2e" x="100"/>
       <use xlink:href="#SimHei-35" x="150"/>
      </g>
     </g>
    </g>
    <g id="ytick_9">
     <g id="line2d_16">
      <g>
       <use xlink:href="#m92cfcb1210" x="54" y="61.485749" style="stroke: #000000; stroke-width: 0.8"/>
      </g>
     </g>
     <g id="text_17">
      <!-- 20.0 -->
      <g transform="translate(27 64.923249)scale(0.1 -0.1)">
       <use xlink:href="#SimHei-32"/>
       <use xlink:href="#SimHei-30" x="50"/>
       <use xlink:href="#SimHei-2e" x="100"/>
       <use xlink:href="#SimHei-30" x="150"/>
      </g>
     </g>
    </g>
    <g id="text_18">
     <!-- Density -->
     <g transform="translate(21.75 235.66)rotate(-90)scale(0.1 -0.1)">
      <defs>
       <path id="SimHei-44" d="M 2925 2250 
Q 2925 1100 2437 612 
Q 1950 125 1125 125 
L 275 125 
L 275 4400 
L 1125 4400 
Q 2050 4400 2487 3900 
Q 2925 3400 2925 2250 
z
M 2325 2250 
Q 2325 3175 2025 3550 
Q 1725 3925 1125 3925 
L 850 3925 
L 850 600 
L 1125 600 
Q 1725 600 2025 962 
Q 2325 1325 2325 2250 
z
" transform="scale(0.015625)"/>
       <path id="SimHei-73" d="M 2750 900 
Q 2750 500 2437 287 
Q 2125 75 1650 75 
Q 1050 75 725 312 
Q 400 550 400 1000 
L 900 1000 
Q 900 700 1112 600 
Q 1325 500 1625 500 
Q 1925 500 2075 612 
Q 2225 725 2225 900 
Q 2225 1025 2100 1150 
Q 1975 1275 1475 1350 
Q 900 1425 687 1637 
Q 475 1850 475 2200 
Q 475 2500 762 2737 
Q 1050 2975 1600 2975 
Q 2100 2975 2387 2750 
Q 2675 2525 2675 2150 
L 2175 2150 
Q 2175 2375 2012 2462 
Q 1850 2550 1600 2550 
Q 1275 2550 1137 2437 
Q 1000 2325 1000 2175 
Q 1000 2000 1125 1900 
Q 1250 1800 1650 1750 
Q 2300 1650 2525 1437 
Q 2750 1225 2750 900 
z
" transform="scale(0.015625)"/>
       <path id="SimHei-69" d="M 1800 3725 
L 1300 3725 
L 1300 4375 
L 1800 4375 
L 1800 3725 
z
M 1800 125 
L 1300 125 
L 1300 2925 
L 1800 2925 
L 1800 125 
z
" transform="scale(0.015625)"/>
       <path id="SimHei-74" d="M 2750 200 
Q 2625 150 2462 112 
Q 2300 75 2025 75 
Q 1575 75 1300 325 
Q 1025 575 1025 1025 
L 1025 2525 
L 175 2525 
L 175 2925 
L 1025 2925 
L 1025 3900 
L 1525 3900 
L 1525 2925 
L 2550 2925 
L 2550 2525 
L 1525 2525 
L 1525 1000 
Q 1525 800 1625 662 
Q 1725 525 2000 525 
Q 2275 525 2450 575 
Q 2625 625 2750 700 
L 2750 200 
z
" transform="scale(0.015625)"/>
      </defs>
      <use xlink:href="#SimHei-44"/>
      <use xlink:href="#SimHei-65" x="50"/>
      <use xlink:href="#SimHei-6e" x="100"/>
      <use xlink:href="#SimHei-73" x="150"/>
      <use xlink:href="#SimHei-69" x="200"/>
      <use xlink:href="#SimHei-74" x="250"/>
      <use xlink:href="#SimHei-79" x="300"/>
     </g>
    </g>
   </g>
   <g id="line2d_17">
    <path d="M 91.944618 384.064604 
L 94.546737 383.719232 
L 97.148855 383.146246 
L 99.750973 382.241626 
L 101.052032 381.627347 
L 102.353091 380.883968 
L 103.65415 379.996092 
L 104.955209 378.949706 
L 106.256269 377.733195 
L 107.557328 376.33846 
L 108.858387 374.762078 
L 111.460505 371.080692 
L 114.062623 366.794184 
L 121.868978 353.186381 
L 123.170037 351.354271 
L 124.471096 349.795653 
L 125.772155 348.558039 
L 127.073214 347.680239 
L 128.374274 347.190343 
L 129.675333 347.104224 
L 130.976392 347.424687 
L 132.277451 348.141316 
L 133.57851 349.231037 
L 134.879569 350.659352 
L 136.180628 352.38215 
L 138.782746 356.500543 
L 146.589101 370.219596 
L 149.191219 374.041691 
L 150.492278 375.69449 
L 151.793338 377.165877 
L 153.094397 378.456957 
L 154.395456 379.573994 
L 155.696515 380.527256 
L 156.997574 381.329876 
L 159.599692 382.543752 
L 162.20181 383.340726 
L 164.803929 383.838305 
L 168.707106 384.23007 
L 173.911342 384.418987 
L 184.319815 384.477847 
L 272.791835 384.43099 
L 279.29713 384.244062 
L 283.200308 383.948615 
L 287.103485 383.395206 
L 289.705603 382.827032 
L 292.307722 382.068898 
L 294.90984 381.113332 
L 298.813017 379.361818 
L 305.318313 376.210545 
L 307.920431 375.198238 
L 310.522549 374.507186 
L 313.124667 374.222566 
L 315.726786 374.380648 
L 318.328904 374.961204 
L 320.931022 375.891757 
L 324.834199 377.698496 
L 330.038436 380.232112 
L 332.640554 381.331185 
L 335.242672 382.24563 
L 337.844791 382.962262 
L 340.446909 383.493102 
L 344.350086 384.003214 
L 348.253263 384.271214 
L 350.855382 384.365998 
L 350.855382 384.365998 
" clip-path="url(#p636fd5b2af)" style="fill: none; stroke: #1f77b4; stroke-width: 1.5; stroke-linecap: square"/>
   </g>
   <g id="line2d_18">
    <path d="M 69.218182 384.269564 
L 75.336044 383.977822 
L 79.92444 383.573085 
L 84.512837 382.925903 
L 87.571768 382.318503 
L 90.630699 381.54303 
L 93.68963 380.581365 
L 96.748561 379.424154 
L 99.807492 378.074642 
L 104.395889 375.736794 
L 118.161078 368.251663 
L 121.220009 367.017705 
L 124.27894 366.123204 
L 127.337871 365.627858 
L 130.396802 365.565591 
L 133.455733 365.94071 
L 136.514664 366.727412 
L 139.573595 367.872721 
L 142.632526 369.302384 
L 147.220923 371.787004 
L 154.86825 376.094936 
L 159.456647 378.383558 
L 162.515578 379.692319 
L 165.574509 380.80682 
L 168.63344 381.726866 
L 171.692371 382.464045 
L 176.280767 383.270895 
L 180.869164 383.791901 
L 186.987026 384.180931 
L 194.634354 384.387438 
L 208.399543 384.472226 
L 248.165646 384.427783 
L 258.871905 384.221087 
L 264.989767 383.91145 
L 269.578164 383.515317 
L 274.16656 382.926884 
L 278.754957 382.107389 
L 283.343353 381.040836 
L 287.93175 379.749764 
L 303.226405 375.111395 
L 306.285336 374.465297 
L 309.344267 374.021497 
L 312.403198 373.809883 
L 315.462129 373.845009 
L 318.52106 374.124447 
L 321.579991 374.629058 
L 324.638922 375.325167 
L 329.227318 376.629227 
L 342.992508 380.866568 
L 347.580905 381.968136 
L 352.169301 382.823178 
L 356.757698 383.443046 
L 361.346094 383.864191 
L 367.463956 384.196708 
L 373.581818 384.361288 
L 373.581818 384.361288 
" clip-path="url(#p636fd5b2af)" style="fill: none; stroke: #ff7f0e; stroke-width: 1.5; stroke-linecap: square"/>
   </g>
   <g id="patch_59">
    <path d="M 54 384.48 
L 54 51.84 
" style="fill: none; stroke: #000000; stroke-width: 0.8; stroke-linejoin: miter; stroke-linecap: square"/>
   </g>
   <g id="patch_60">
    <path d="M 388.8 384.48 
L 388.8 51.84 
" style="fill: none; stroke: #000000; stroke-width: 0.8; stroke-linejoin: miter; stroke-linecap: square"/>
   </g>
   <g id="patch_61">
    <path d="M 54 384.48 
L 388.8 384.48 
" style="fill: none; stroke: #000000; stroke-width: 0.8; stroke-linejoin: miter; stroke-linecap: square"/>
   </g>
   <g id="patch_62">
    <path d="M 54 51.84 
L 388.8 51.84 
" style="fill: none; stroke: #000000; stroke-width: 0.8; stroke-linejoin: miter; stroke-linecap: square"/>
   </g>
   <g id="legend_1">
    <g id="patch_63">
     <path d="M 344.8 86.34 
L 381.8 86.34 
Q 383.8 86.34 383.8 84.34 
L 383.8 58.84 
Q 383.8 56.84 381.8 56.84 
L 344.8 56.84 
Q 342.8 56.84 342.8 58.84 
L 342.8 84.34 
Q 342.8 86.34 344.8 86.34 
z
" style="fill: #ffffff; opacity: 0.8; stroke: #cccccc; stroke-linejoin: miter"/>
    </g>
    <g id="patch_64">
     <path d="M 346.8 67.84 
L 366.8 67.84 
L 366.8 60.84 
L 346.8 60.84 
z
" style="fill: #1f77b4; opacity: 0.4"/>
    </g>
    <g id="text_19">
     <!-- 0 -->
     <g transform="translate(374.8 67.84)scale(0.1 -0.1)">
      <use xlink:href="#SimHei-30"/>
     </g>
    </g>
    <g id="patch_65">
     <path d="M 346.8 81.09 
L 366.8 81.09 
L 366.8 74.09 
L 346.8 74.09 
z
" style="fill: #ff7f0e; opacity: 0.4"/>
    </g>
    <g id="text_20">
     <!-- 1 -->
     <g transform="translate(374.8 81.09)scale(0.1 -0.1)">
      <use xlink:href="#SimHei-31"/>
     </g>
    </g>
   </g>
  </g>
 </g>
 <defs>
  <clipPath id="p636fd5b2af">
   <rect x="54" y="51.84" width="334.8" height="332.64"/>
  </clipPath>
 </defs>
</svg>
